<?xml version="1.0" encoding="utf-8"?>
<!-- Generator: Adobe Illustrator 28.2.0, SVG Export Plug-In . SVG Version: 6.00 Build 0)  -->
<svg version="1.1" id="Layer_1" xmlns="http://www.w3.org/2000/svg" xmlns:xlink="http://www.w3.org/1999/xlink" x="0px" y="0px"
	 viewBox="0 0 288 249.2" style="enable-background:new 0 0 288 249.2;" xml:space="preserve">
<style type="text/css">
	.st0{fill:none;}
	.st1{clip-path:url(#SVGID_00000037692927089202551930000015182023004185771193_);}
	.st2{fill:none;stroke:#BEBEBE;stroke-width:1.07;stroke-linejoin:round;stroke-miterlimit:10;}
	.st3{fill:none;stroke:#6091A0;stroke-width:2.13;stroke-linejoin:round;stroke-miterlimit:10;}
	.st4{fill:none;stroke:#65AA81;stroke-width:2.13;stroke-linejoin:round;stroke-miterlimit:10;}
	.st5{fill:#6091A0;stroke:#6091A0;stroke-width:0.71;stroke-linecap:round;stroke-linejoin:round;stroke-miterlimit:10;}
	.st6{fill:#65AA81;stroke:#65AA81;stroke-width:0.71;stroke-linecap:round;stroke-linejoin:round;stroke-miterlimit:10;}
	.st7{fill:none;stroke:#0000FF;stroke-width:1.07;stroke-linecap:round;stroke-linejoin:round;stroke-miterlimit:10;}
	.st8{fill:#6091A0;stroke:#6091A0;stroke-width:0.5;stroke-miterlimit:10;}
	.st9{fill:#6091A0;stroke:#65AA81;stroke-width:0.5;stroke-miterlimit:10;}
	.st10{clip-path:url(#SVGID_00000044150571133726189360000001184686627823329969_);}
	.st11{fill:#4D4D4D;}
	.st12{font-family:'ArialMT';}
	.st13{font-size:8.8px;}
	.st14{fill:#414242;}
</style>
<rect y="-38.8" class="st0" width="288" height="288"/>
<g>
	<g>
		<defs>
			<polyline id="SVGID_1_" points="282.5,217.5 32.2,217.5 32.2,-7.1 282.5,-7.1 			"/>
		</defs>
		<clipPath id="SVGID_00000134216855065652865120000009078084001663081903_">
			<use xlink:href="#SVGID_1_"  style="overflow:visible;"/>
		</clipPath>
		<g style="clip-path:url(#SVGID_00000134216855065652865120000009078084001663081903_);">
			<line class="st2" x1="32.2" y1="216.5" x2="282.5" y2="216.5"/>
			<line class="st2" x1="32.2" y1="155.5" x2="282.5" y2="155.5"/>
			<line class="st2" x1="32.2" y1="94.5" x2="282.5" y2="94.5"/>
			<line class="st2" x1="32.2" y1="33.6" x2="282.5" y2="33.6"/>
			<polyline class="st3" points="44.5,76.3 65,137.2 85.5,137.8 106.1,140.3 126.6,155.5 147.1,161.6 167.6,167.7 188.1,176.8 
				208.6,186 229.2,192.1 249.7,198.2 270.2,204.3 			"/>
			<polyline class="st4" points="44.5,106.7 65,131.1 85.5,128.1 106.1,129.3 126.6,161.6 147.1,164.6 167.6,186 188.1,189 
				208.6,192.1 229.2,193.3 249.7,204.3 270.2,207.3 			"/>
			<circle class="st5" cx="44.5" cy="76.3" r="1.9"/>
			<circle class="st5" cx="65" cy="137.2" r="1.9"/>
			<circle class="st5" cx="85.5" cy="137.8" r="1.9"/>
			<circle class="st5" cx="106.1" cy="140.3" r="1.9"/>
			<circle class="st5" cx="126.6" cy="155.5" r="1.9"/>
			<circle class="st5" cx="147.1" cy="161.6" r="1.9"/>
			<circle class="st5" cx="167.6" cy="167.7" r="1.9"/>
			<circle class="st5" cx="188.1" cy="176.8" r="1.9"/>
			<circle class="st5" cx="208.6" cy="186" r="1.9"/>
			<circle class="st5" cx="229.2" cy="192.1" r="1.9"/>
			<circle class="st5" cx="249.7" cy="198.2" r="1.9"/>
			<circle class="st5" cx="270.2" cy="204.3" r="2"/>
			<circle class="st6" cx="44.5" cy="106.7" r="1.9"/>
			<circle class="st6" cx="65" cy="131.1" r="1.9"/>
			<circle class="st6" cx="85.5" cy="128.1" r="1.9"/>
			<circle class="st6" cx="106.1" cy="129.3" r="1.9"/>
			<circle class="st6" cx="126.6" cy="161.6" r="1.9"/>
			<circle class="st6" cx="147.1" cy="164.6" r="1.9"/>
			<circle class="st6" cx="167.6" cy="186" r="1.9"/>
			<circle class="st6" cx="188.1" cy="189" r="1.9"/>
			<circle class="st6" cx="208.6" cy="192.1" r="1.9"/>
			<circle class="st6" cx="229.2" cy="193.3" r="1.9"/>
			<circle class="st6" cx="249.7" cy="204.3" r="2"/>
			<circle class="st6" cx="270.2" cy="207.3" r="2"/>
			<path class="st7" d="M86.2,138.7"/>
			<path class="st7" d="M99.5,155.2"/>
			<path class="st7" d="M86.1,127.1"/>
			<path class="st7" d="M97.7,105.5"/>
			<line class="st8" x1="243.5" y1="182.1" x2="229.2" y2="190.2"/>
			<line class="st9" x1="244.5" y1="181.1" x2="230.2" y2="194.2"/>
		</g>
	</g>
	<g>
		<g>
			<path d="M112.3,121.7c0,2.1-1.3,3.2-2.8,3.2c-1.6,0-2.7-1.2-2.7-3.1c0-1.9,1.2-3.2,2.8-3.2C111.2,118.6,112.3,119.9,112.3,121.7z
				 M107.5,121.8c0,1.3,0.7,2.5,1.9,2.5c1.2,0,1.9-1.1,1.9-2.5c0-1.2-0.6-2.5-1.9-2.5C108.2,119.2,107.5,120.4,107.5,121.8z"/>
			<path d="M115.7,124.8l-0.1-0.5h0c-0.2,0.3-0.7,0.6-1.3,0.6c-0.9,0-1.3-0.6-1.3-1.2c0-1.1,0.9-1.6,2.6-1.6v-0.1c0-0.4-0.1-1-1-1
				c-0.4,0-0.8,0.1-1.1,0.3l-0.2-0.5c0.4-0.2,0.9-0.4,1.4-0.4c1.3,0,1.7,0.9,1.7,1.8v1.6c0,0.4,0,0.7,0.1,1H115.7z M115.5,122.5
				c-0.9,0-1.8,0.1-1.8,1c0,0.5,0.3,0.8,0.7,0.8c0.6,0,0.9-0.4,1.1-0.7c0-0.1,0-0.2,0-0.2V122.5z"/>
			<path d="M118.4,122.4L118.4,122.4c0.1-0.2,0.3-0.3,0.4-0.5l1.3-1.5h1l-1.7,1.8l1.9,2.6h-1l-1.5-2.1l-0.4,0.5v1.6h-0.8v-6.4h0.8
				V122.4z"/>
			<path d="M121.7,123.9c0.2,0.1,0.7,0.3,1,0.3c0.6,0,0.8-0.3,0.8-0.6c0-0.4-0.2-0.6-0.8-0.8c-0.8-0.3-1.2-0.7-1.2-1.2
				c0-0.7,0.6-1.3,1.5-1.3c0.4,0,0.8,0.1,1.1,0.3l-0.2,0.6c-0.2-0.1-0.5-0.3-0.9-0.3c-0.5,0-0.7,0.3-0.7,0.6c0,0.4,0.3,0.5,0.8,0.7
				c0.8,0.3,1.1,0.7,1.1,1.3c0,0.8-0.6,1.3-1.6,1.3c-0.5,0-0.9-0.1-1.2-0.3L121.7,123.9z"/>
		</g>
	</g>
	<g>
		<g>
			<path d="M224.9,175.7h-2.1v1.9h2.3v0.6h-3v-5.4h2.9v0.6h-2.2v1.7h2.1V175.7z"/>
			<path d="M228.2,178.2l-0.1-0.5h0c-0.2,0.3-0.6,0.6-1.2,0.6c-0.8,0-1.2-0.6-1.2-1.1c0-0.9,0.8-1.5,2.3-1.4v-0.1
				c0-0.3-0.1-0.9-0.9-0.9c-0.4,0-0.7,0.1-1,0.3l-0.2-0.5c0.3-0.2,0.8-0.3,1.3-0.3c1.2,0,1.5,0.8,1.5,1.6v1.4c0,0.3,0,0.7,0.1,0.9
				H228.2z M228.1,176.3c-0.8,0-1.6,0.1-1.6,0.9c0,0.5,0.3,0.7,0.7,0.7c0.5,0,0.8-0.3,0.9-0.6c0-0.1,0-0.2,0-0.2V176.3z"/>
			<path d="M229.8,177.5c0.2,0.1,0.6,0.3,0.9,0.3c0.5,0,0.8-0.3,0.8-0.6c0-0.3-0.2-0.5-0.7-0.7c-0.7-0.3-1-0.6-1-1.1
				c0-0.6,0.5-1.1,1.3-1.1c0.4,0,0.7,0.1,0.9,0.2l-0.2,0.5c-0.1-0.1-0.4-0.2-0.8-0.2c-0.4,0-0.6,0.2-0.6,0.5c0,0.3,0.2,0.5,0.7,0.7
				c0.7,0.2,1,0.6,1,1.2c0,0.7-0.5,1.2-1.4,1.2c-0.4,0-0.8-0.1-1.1-0.3L229.8,177.5z"/>
			<path d="M233.9,173.2v1.1h1v0.5h-1v2.1c0,0.5,0.1,0.8,0.5,0.8c0.2,0,0.3,0,0.4-0.1l0,0.5c-0.1,0.1-0.4,0.1-0.6,0.1
				c-0.3,0-0.6-0.1-0.8-0.3c-0.2-0.2-0.3-0.6-0.3-1v-2.1h-0.6v-0.5h0.6v-0.9L233.9,173.2z"/>
			<path d="M236.1,176.4c0,1,0.6,1.3,1.3,1.3c0.5,0,0.8-0.1,1.1-0.2l0.1,0.5c-0.2,0.1-0.7,0.2-1.3,0.2c-1.2,0-1.9-0.8-1.9-2
				c0-1.2,0.7-2.1,1.8-2.1c1.3,0,1.6,1.1,1.6,1.8c0,0.1,0,0.3,0,0.3H236.1z M238.1,175.9c0-0.4-0.2-1.1-1-1.1c-0.7,0-1,0.6-1.1,1.1
				H238.1z"/>
			<path d="M239.7,175.6c0-0.5,0-0.8,0-1.2h0.6l0,0.8h0c0.2-0.5,0.6-0.8,1.1-0.8c0.1,0,0.1,0,0.2,0v0.7c-0.1,0-0.1,0-0.2,0
				c-0.5,0-0.8,0.4-0.9,0.9c0,0.1,0,0.2,0,0.3v2.1h-0.7V175.6z"/>
			<path d="M242.3,175.4c0-0.4,0-0.7,0-1h0.6l0,0.6h0c0.2-0.4,0.6-0.7,1.3-0.7c0.5,0,1.4,0.3,1.4,1.6v2.3h-0.7V176
				c0-0.6-0.2-1.1-0.9-1.1c-0.5,0-0.8,0.3-0.9,0.7c0,0.1,0,0.2,0,0.3v2.3h-0.7V175.4z"/>
			<path d="M249.2,172.8v2.3h2.6v-2.3h0.7v5.4h-0.7v-2.5h-2.6v2.5h-0.7v-5.4H249.2z"/>
			<path d="M254.1,176.4c0,1,0.6,1.3,1.3,1.3c0.5,0,0.8-0.1,1.1-0.2l0.1,0.5c-0.2,0.1-0.7,0.2-1.3,0.2c-1.2,0-1.9-0.8-1.9-2
				c0-1.2,0.7-2.1,1.8-2.1c1.3,0,1.6,1.1,1.6,1.8c0,0.1,0,0.3,0,0.3H254.1z M256.1,175.9c0-0.4-0.2-1.1-1-1.1c-0.7,0-1,0.6-1.1,1.1
				H256.1z"/>
			<path d="M257.7,175.4c0-0.4,0-0.7,0-1h0.6l0,0.6h0c0.2-0.4,0.6-0.7,1.2-0.7c0.5,0,0.9,0.3,1.1,0.8h0c0.1-0.2,0.3-0.4,0.4-0.5
				c0.2-0.2,0.5-0.3,0.9-0.3c0.5,0,1.3,0.3,1.3,1.7v2.3h-0.7V176c0-0.7-0.3-1.2-0.8-1.2c-0.4,0-0.7,0.3-0.8,0.6
				c0,0.1-0.1,0.2-0.1,0.4v2.4h-0.7v-2.3c0-0.6-0.3-1.1-0.8-1.1c-0.4,0-0.8,0.3-0.9,0.7c0,0.1-0.1,0.2-0.1,0.3v2.3h-0.7V175.4z"/>
			<path d="M264.3,172.6h0.7v5.7h-0.7V172.6z"/>
			<path d="M269.7,176.3c0,1.4-1,2.1-1.9,2.1c-1,0-1.9-0.8-1.9-2c0-1.3,0.9-2.1,1.9-2.1C269,174.3,269.7,175.1,269.7,176.3z
				 M266.7,176.3c0,0.8,0.5,1.5,1.2,1.5c0.7,0,1.2-0.6,1.2-1.5c0-0.7-0.3-1.5-1.2-1.5C267,174.8,266.7,175.6,266.7,176.3z"/>
			<path d="M273.4,178.1c-0.2,0.1-0.6,0.2-1.1,0.2c-1.2,0-1.9-0.8-1.9-2c0-1.2,0.8-2.1,2.1-2.1c0.4,0,0.8,0.1,1,0.2l-0.2,0.5
				c-0.2-0.1-0.4-0.2-0.8-0.2c-0.9,0-1.4,0.7-1.4,1.5c0,0.9,0.6,1.4,1.3,1.4c0.4,0,0.7-0.1,0.9-0.2L273.4,178.1z"/>
			<path d="M274.9,176.1L274.9,176.1c0.1-0.1,0.2-0.3,0.4-0.4l1.1-1.3h0.8l-1.5,1.6l1.7,2.3h-0.9l-1.3-1.9l-0.4,0.4v1.5h-0.7v-5.7
				h0.7V176.1z"/>
		</g>
	</g>
</g>
<g>
	<g>
		<defs>
			<rect id="SVGID_00000005265879763460037940000005134981842136215691_" y="-38.8" width="288" height="288"/>
		</defs>
		<clipPath id="SVGID_00000018950033270224024410000009476350560655076750_">
			<use xlink:href="#SVGID_00000005265879763460037940000005134981842136215691_"  style="overflow:visible;"/>
		</clipPath>
		<g style="clip-path:url(#SVGID_00000018950033270224024410000009476350560655076750_);">
			<rect x="10.4" y="212.1" class="st0" width="4.9" height="10.4"/>
			<text transform="matrix(1 0 0 1 10.376 219.6009)" class="st11 st12 st13">0</text>
			<rect x="5.5" y="151.1" class="st0" width="9.8" height="10.4"/>
			<text transform="matrix(1 0 0 1 5.4819 158.6312)" class="st11 st12 st13">10</text>
			<rect x="5.5" y="90.1" class="st0" width="9.8" height="10.4"/>
			<text transform="matrix(1 0 0 1 5.4819 97.6712)" class="st11 st12 st13">20</text>
			<rect x="5.5" y="29.2" class="st0" width="9.8" height="10.4"/>
			<text transform="matrix(1 0 0 1 5.4819 36.701)" class="st11 st12 st13">30 </text>
			<rect x="42.1" y="221.2" class="st0" width="4.9" height="10.4"/>
			<text transform="matrix(1 0 0 1 42.0527 228.7508)" class="st11 st12 st13">1</text>
			<rect x="62.6" y="221.2" class="st0" width="4.9" height="10.4"/>
			<text transform="matrix(1 0 0 1 62.5728 228.7508)" class="st11 st12 st13">2</text>
			<rect x="83.1" y="221.2" class="st0" width="4.9" height="10.4"/>
			<text transform="matrix(1 0 0 1 83.083 228.7508)" class="st11 st12 st13">3</text>
			<rect x="103.6" y="221.2" class="st0" width="4.9" height="10.4"/>
			<text transform="matrix(1 0 0 1 103.603 228.7508)" class="st11 st12 st13">4</text>
			<rect x="124.1" y="221.2" class="st0" width="4.9" height="10.4"/>
			<text transform="matrix(1 0 0 1 124.123 228.7508)" class="st11 st12 st13">5</text>
			<rect x="144.6" y="221.2" class="st0" width="4.9" height="10.4"/>
			<text transform="matrix(1 0 0 1 144.6431 228.7508)" class="st11 st12 st13">6</text>
			<rect x="165.2" y="221.2" class="st0" width="4.9" height="10.4"/>
			<text transform="matrix(1 0 0 1 165.1631 228.7508)" class="st11 st12 st13">7</text>
			<rect x="185.7" y="221.2" class="st0" width="4.9" height="10.4"/>
			<text transform="matrix(1 0 0 1 185.6831 228.7508)" class="st11 st12 st13">8</text>
			<rect x="206.2" y="221.2" class="st0" width="4.9" height="10.4"/>
			<text transform="matrix(1 0 0 1 206.2031 228.7508)" class="st11 st12 st13">9</text>
			<rect x="224.3" y="221.2" class="st0" width="9.8" height="10.4"/>
			<text transform="matrix(1 0 0 1 224.2759 228.7508)" class="st11 st12 st13">10</text>
			<rect x="245.1" y="221.2" class="st0" width="9.8" height="10.4"/>
			<text transform="matrix(1 0 0 1 245.1226 228.7508)" class="st11 st12 st13">11</text>
			<rect x="265.3" y="221.2" class="st0" width="9.8" height="10.4"/>
			<text transform="matrix(1 0 0 1 265.3159 228.7508)" class="st11 st12 st13">12</text>
		</g>
	</g>
</g>
<line class="st3" x1="198.8" y1="76.8" x2="210.6" y2="76.8"/>
<line class="st4" x1="198.5" y1="68.1" x2="210.3" y2="68.1"/>
<rect x="16.1" y="30.3" class="st0" width="9.8" height="10.4"/>
<text transform="matrix(1 0 0 1 16.1016 36.5711)" class="st11 st12 st13">%</text>
<g>
	<g>
		<path class="st14" d="M222.1,234.5c0,0.2-0.1,0.3-0.3,0.3s-0.3-0.1-0.3-0.3c0-0.2,0.1-0.3,0.3-0.3S222.1,234.3,222.1,234.5z"/>
	</g>
</g>
<g>
	<g>
		<path d="M216.6,69.1c0.4,0.2,0.9,0.4,1.4,0.4c0.8,0,1.3-0.4,1.3-1c0-0.6-0.3-0.9-1.1-1.2c-1-0.4-1.6-0.9-1.6-1.7
			c0-0.9,0.8-1.6,2-1.6c0.6,0,1.1,0.1,1.3,0.3l-0.2,0.6c-0.2-0.1-0.6-0.3-1.1-0.3c-0.8,0-1.1,0.5-1.1,0.9c0,0.6,0.4,0.8,1.2,1.2
			c1,0.4,1.5,0.9,1.5,1.8c0,0.9-0.7,1.8-2.1,1.8c-0.6,0-1.2-0.2-1.6-0.4L216.6,69.1z"/>
		<path d="M221.1,63.7h0.8v2.7h0c0.1-0.2,0.3-0.4,0.6-0.6c0.2-0.1,0.5-0.2,0.8-0.2c0.6,0,1.5,0.4,1.5,1.9V70H224v-2.5
			c0-0.7-0.3-1.3-1-1.3c-0.5,0-0.9,0.4-1.1,0.8c0,0.1-0.1,0.2-0.1,0.4V70h-0.8V63.7z"/>
		<path d="M228.5,70l-0.1-0.5h0c-0.2,0.3-0.7,0.6-1.3,0.6c-0.9,0-1.3-0.6-1.3-1.2c0-1.1,0.9-1.6,2.6-1.6v-0.1c0-0.4-0.1-1-1-1
			c-0.4,0-0.8,0.1-1.1,0.3L226,66c0.4-0.2,0.9-0.4,1.4-0.4c1.3,0,1.7,0.9,1.7,1.8V69c0,0.4,0,0.7,0.1,1H228.5z M228.4,67.8
			c-0.9,0-1.8,0.1-1.8,1c0,0.5,0.3,0.8,0.7,0.8c0.6,0,0.9-0.4,1.1-0.7c0-0.1,0-0.2,0-0.2V67.8z"/>
		<path d="M230.4,67c0-0.5,0-1,0-1.4h0.7l0,0.9h0c0.2-0.6,0.7-1,1.2-1c0.1,0,0.1,0,0.2,0v0.7c-0.1,0-0.2,0-0.3,0c-0.6,0-1,0.4-1.1,1
			c0,0.1,0,0.2,0,0.4V70h-0.8V67z"/>
		<path d="M233.8,68c0,1.1,0.7,1.5,1.5,1.5c0.6,0,0.9-0.1,1.2-0.2l0.1,0.6c-0.3,0.1-0.8,0.3-1.5,0.3c-1.3,0-2.1-0.9-2.1-2.2
			c0-1.3,0.8-2.3,2-2.3c1.4,0,1.8,1.2,1.8,2c0,0.2,0,0.3,0,0.4H233.8z M236.1,67.4c0-0.5-0.2-1.3-1.1-1.3c-0.8,0-1.2,0.7-1.2,1.3
			H236.1z"/>
		<path d="M243.7,67.8c0,1.6-1.1,2.3-2.2,2.3c-1.2,0-2.1-0.9-2.1-2.2c0-1.5,1-2.3,2.2-2.3C242.9,65.6,243.7,66.5,243.7,67.8z
			 M240.3,67.9c0,1,0.5,1.7,1.3,1.7c0.8,0,1.3-0.7,1.3-1.7c0-0.7-0.4-1.7-1.3-1.7C240.7,66.2,240.3,67.1,240.3,67.9z"/>
		<path d="M244.8,70v-3.8h-0.6v-0.6h0.6v-0.2c0-0.6,0.1-1.2,0.5-1.5c0.3-0.3,0.7-0.4,1.1-0.4c0.3,0,0.5,0.1,0.7,0.1l-0.1,0.6
			c-0.1-0.1-0.3-0.1-0.5-0.1c-0.7,0-0.8,0.6-0.8,1.3v0.2h1.1v0.6h-1V70H244.8z"/>
		<path d="M252.3,69.9c-0.2,0.1-0.7,0.3-1.2,0.3c-1.3,0-2.2-0.9-2.2-2.2c0-1.3,0.9-2.3,2.3-2.3c0.5,0,0.9,0.1,1.1,0.2l-0.2,0.6
			c-0.2-0.1-0.5-0.2-0.9-0.2c-1,0-1.5,0.7-1.5,1.6c0,1,0.6,1.6,1.5,1.6c0.4,0,0.7-0.1,1-0.2L252.3,69.9z"/>
		<path d="M257.2,67.8c0,1.6-1.1,2.3-2.2,2.3c-1.2,0-2.1-0.9-2.1-2.2c0-1.5,1-2.3,2.2-2.3C256.4,65.6,257.2,66.5,257.2,67.8z
			 M253.8,67.9c0,1,0.5,1.7,1.3,1.7c0.8,0,1.3-0.7,1.3-1.7c0-0.7-0.4-1.7-1.3-1.7C254.2,66.2,253.8,67.1,253.8,67.9z"/>
		<path d="M261.9,68.9c0,0.5,0,0.8,0,1.2h-0.7l0-0.7h0c-0.2,0.4-0.7,0.8-1.4,0.8c-0.7,0-1.5-0.4-1.5-1.9v-2.5h0.8v2.4
			c0,0.8,0.3,1.4,1,1.4c0.5,0,0.9-0.4,1-0.7c0-0.1,0.1-0.3,0.1-0.4v-2.7h0.8V68.9z"/>
		<path d="M263.2,66.9c0-0.5,0-0.8,0-1.2h0.7l0,0.7h0c0.2-0.4,0.7-0.8,1.4-0.8c0.6,0,1.5,0.4,1.5,1.9V70h-0.8v-2.5
			c0-0.7-0.3-1.3-1-1.3c-0.5,0-0.9,0.4-1.1,0.8c0,0.1-0.1,0.2-0.1,0.4V70h-0.8V66.9z"/>
		<path d="M269.1,64.4v1.3h1.1v0.6h-1.1v2.3c0,0.5,0.2,0.8,0.6,0.8c0.2,0,0.4,0,0.5-0.1l0,0.6c-0.2,0.1-0.4,0.1-0.7,0.1
			c-0.4,0-0.7-0.1-0.9-0.3c-0.2-0.2-0.3-0.6-0.3-1.1v-2.4h-0.7v-0.6h0.7v-1L269.1,64.4z"/>
	</g>
</g>
<g>
	<g>
		<path d="M216.2,78.3c0.4,0.2,0.9,0.4,1.4,0.4c0.8,0,1.3-0.4,1.3-1c0-0.6-0.3-0.9-1.1-1.2c-1-0.4-1.6-0.9-1.6-1.7
			c0-0.9,0.8-1.6,2-1.6c0.6,0,1.1,0.1,1.3,0.3l-0.2,0.6c-0.2-0.1-0.6-0.3-1.1-0.3c-0.8,0-1.1,0.5-1.1,0.9c0,0.6,0.4,0.8,1.2,1.2
			c1,0.4,1.5,0.9,1.5,1.8c0,0.9-0.7,1.8-2.1,1.8c-0.6,0-1.2-0.2-1.6-0.4L216.2,78.3z"/>
		<path d="M220.7,72.8h0.8v2.7h0c0.1-0.2,0.3-0.4,0.6-0.6c0.2-0.1,0.5-0.2,0.8-0.2c0.6,0,1.5,0.4,1.5,1.9v2.6h-0.8v-2.5
			c0-0.7-0.3-1.3-1-1.3c-0.5,0-0.9,0.4-1.1,0.8c0,0.1-0.1,0.2-0.1,0.4v2.6h-0.8V72.8z"/>
		<path d="M228.1,79.2l-0.1-0.5h0c-0.2,0.3-0.7,0.6-1.3,0.6c-0.9,0-1.3-0.6-1.3-1.2c0-1.1,0.9-1.6,2.6-1.6v-0.1c0-0.4-0.1-1-1-1
			c-0.4,0-0.8,0.1-1.1,0.3l-0.2-0.5c0.4-0.2,0.9-0.4,1.4-0.4c1.3,0,1.7,0.9,1.7,1.8v1.6c0,0.4,0,0.7,0.1,1H228.1z M228,77
			c-0.9,0-1.8,0.1-1.8,1c0,0.5,0.3,0.8,0.7,0.8c0.6,0,0.9-0.4,1.1-0.7c0-0.1,0-0.2,0-0.2V77z"/>
		<path d="M230,76.2c0-0.5,0-1,0-1.4h0.7l0,0.9h0c0.2-0.6,0.7-1,1.2-1c0.1,0,0.1,0,0.2,0v0.7c-0.1,0-0.2,0-0.3,0c-0.6,0-1,0.4-1.1,1
			c0,0.1,0,0.2,0,0.4v2.3H230V76.2z"/>
		<path d="M233.4,77.2c0,1.1,0.7,1.5,1.5,1.5c0.6,0,0.9-0.1,1.2-0.2l0.1,0.6c-0.3,0.1-0.8,0.3-1.5,0.3c-1.3,0-2.1-0.9-2.1-2.2
			c0-1.3,0.8-2.3,2-2.3c1.4,0,1.8,1.2,1.8,2c0,0.2,0,0.3,0,0.4H233.4z M235.7,76.6c0-0.5-0.2-1.3-1.1-1.3c-0.8,0-1.2,0.7-1.2,1.3
			H235.7z"/>
		<path d="M243.3,77c0,1.6-1.1,2.3-2.2,2.3c-1.2,0-2.1-0.9-2.1-2.2c0-1.5,1-2.3,2.2-2.3C242.5,74.8,243.3,75.7,243.3,77z
			 M239.9,77.1c0,1,0.5,1.7,1.3,1.7c0.8,0,1.3-0.7,1.3-1.7c0-0.7-0.4-1.7-1.3-1.7C240.3,75.4,239.9,76.2,239.9,77.1z"/>
		<path d="M244.4,79.2v-3.8h-0.6v-0.6h0.6v-0.2c0-0.6,0.1-1.2,0.5-1.5c0.3-0.3,0.7-0.4,1.1-0.4c0.3,0,0.5,0.1,0.7,0.1l-0.1,0.6
			c-0.1-0.1-0.3-0.1-0.5-0.1c-0.7,0-0.8,0.6-0.8,1.3v0.2h1.1v0.6h-1v3.8H244.4z"/>
		<path d="M248.9,76.3c0-0.6,0-1,0-1.4h0.7l0,0.7h0c0.3-0.5,0.8-0.8,1.5-0.8c1.1,0,1.8,0.9,1.8,2.2c0,1.6-1,2.3-2,2.3
			c-0.6,0-1.1-0.3-1.3-0.7h0V81h-0.8V76.3z M249.7,77.5c0,0.1,0,0.2,0,0.3c0.1,0.6,0.6,0.9,1.2,0.9c0.8,0,1.3-0.7,1.3-1.7
			c0-0.9-0.5-1.6-1.3-1.6c-0.5,0-1,0.4-1.2,1c0,0.1-0.1,0.2-0.1,0.3V77.5z"/>
		<path d="M254,72.8h0.8v6.4H254V72.8z"/>
		<path d="M258.5,79.2l-0.1-0.5h0c-0.2,0.3-0.7,0.6-1.3,0.6c-0.9,0-1.3-0.6-1.3-1.2c0-1.1,0.9-1.6,2.6-1.6v-0.1c0-0.4-0.1-1-1-1
			c-0.4,0-0.8,0.1-1.1,0.3l-0.2-0.5c0.4-0.2,0.9-0.4,1.4-0.4c1.3,0,1.7,0.9,1.7,1.8v1.6c0,0.4,0,0.7,0.1,1H258.5z M258.4,77
			c-0.9,0-1.8,0.1-1.8,1c0,0.5,0.3,0.8,0.7,0.8c0.6,0,0.9-0.4,1.1-0.7c0-0.1,0-0.2,0-0.2V77z"/>
		<path d="M260.4,76.1c0-0.5,0-0.8,0-1.2h0.7l0,0.7h0c0.2-0.4,0.7-0.8,1.4-0.8c0.6,0,1.5,0.4,1.5,1.9v2.6h-0.8v-2.5
			c0-0.7-0.3-1.3-1-1.3c-0.5,0-0.9,0.4-1.1,0.8c0,0.1-0.1,0.2-0.1,0.4v2.6h-0.8V76.1z"/>
		<path d="M266.4,73.6v1.3h1.1v0.6h-1.1v2.3c0,0.5,0.2,0.8,0.6,0.8c0.2,0,0.4,0,0.5-0.1l0,0.6c-0.2,0.1-0.4,0.1-0.7,0.1
			c-0.4,0-0.7-0.1-0.9-0.3c-0.2-0.2-0.3-0.6-0.3-1.1v-2.4h-0.7v-0.6h0.7v-1L266.4,73.6z"/>
		<path d="M272.7,79.2l-0.1-0.5h0c-0.2,0.3-0.7,0.6-1.3,0.6c-0.9,0-1.3-0.6-1.3-1.2c0-1.1,0.9-1.6,2.6-1.6v-0.1c0-0.4-0.1-1-1-1
			c-0.4,0-0.8,0.1-1.1,0.3l-0.2-0.5c0.4-0.2,0.9-0.4,1.4-0.4c1.3,0,1.7,0.9,1.7,1.8v1.6c0,0.4,0,0.7,0.1,1H272.7z M272.6,77
			c-0.9,0-1.8,0.1-1.8,1c0,0.5,0.3,0.8,0.7,0.8c0.6,0,0.9-0.4,1.1-0.7c0-0.1,0-0.2,0-0.2V77z"/>
		<path d="M274.7,76.2c0-0.5,0-1,0-1.4h0.7l0,0.9h0c0.2-0.6,0.7-1,1.2-1c0.1,0,0.1,0,0.2,0v0.7c-0.1,0-0.2,0-0.3,0
			c-0.6,0-1,0.4-1.1,1c0,0.1,0,0.2,0,0.4v2.3h-0.8V76.2z"/>
		<path d="M278.1,77.2c0,1.1,0.7,1.5,1.5,1.5c0.6,0,0.9-0.1,1.2-0.2l0.1,0.6c-0.3,0.1-0.8,0.3-1.5,0.3c-1.3,0-2.1-0.9-2.1-2.2
			c0-1.3,0.8-2.3,2-2.3c1.4,0,1.8,1.2,1.8,2c0,0.2,0,0.3,0,0.4H278.1z M280.4,76.6c0-0.5-0.2-1.3-1.1-1.3c-0.8,0-1.2,0.7-1.2,1.3
			H280.4z"/>
		<path d="M284.5,79.2l-0.1-0.5h0c-0.2,0.3-0.7,0.6-1.3,0.6c-0.9,0-1.3-0.6-1.3-1.2c0-1.1,0.9-1.6,2.6-1.6v-0.1c0-0.4-0.1-1-1-1
			c-0.4,0-0.8,0.1-1.1,0.3l-0.2-0.5c0.4-0.2,0.9-0.4,1.4-0.4c1.3,0,1.7,0.9,1.7,1.8v1.6c0,0.4,0,0.7,0.1,1H284.5z M284.4,77
			c-0.9,0-1.8,0.1-1.8,1c0,0.5,0.3,0.8,0.7,0.8c0.6,0,0.9-0.4,1.1-0.7c0-0.1,0-0.2,0-0.2V77z"/>
	</g>
</g>
<g>
	<g>
		<path d="M42.9,67.1c0,2.1-1.3,3.2-2.8,3.2c-1.6,0-2.7-1.2-2.7-3.1c0-1.9,1.2-3.2,2.8-3.2C41.8,64,42.9,65.2,42.9,67.1z M38.2,67.1
			c0,1.3,0.7,2.5,1.9,2.5c1.2,0,1.9-1.1,1.9-2.5c0-1.2-0.6-2.5-1.9-2.5C38.8,64.6,38.2,65.8,38.2,67.1z"/>
		<path d="M46.3,70.1l-0.1-0.5h0c-0.2,0.3-0.7,0.6-1.3,0.6c-0.9,0-1.3-0.6-1.3-1.2c0-1.1,0.9-1.6,2.6-1.6v-0.1c0-0.4-0.1-1-1-1
			c-0.4,0-0.8,0.1-1.1,0.3l-0.2-0.5c0.4-0.2,0.9-0.4,1.4-0.4c1.3,0,1.7,0.9,1.7,1.8v1.6c0,0.4,0,0.7,0.1,1H46.3z M46.2,67.9
			c-0.9,0-1.8,0.1-1.8,1c0,0.5,0.3,0.8,0.7,0.8c0.6,0,0.9-0.4,1.1-0.7c0-0.1,0-0.2,0-0.2V67.9z"/>
		<path d="M49,67.8L49,67.8c0.1-0.2,0.3-0.3,0.4-0.5l1.3-1.5h1L50,67.6l1.9,2.6h-1l-1.5-2.1L49,68.5v1.6h-0.8v-6.4H49V67.8z"/>
		<path d="M52.4,69.3c0.2,0.1,0.7,0.3,1,0.3c0.6,0,0.8-0.3,0.8-0.6c0-0.4-0.2-0.6-0.8-0.8c-0.8-0.3-1.2-0.7-1.2-1.2
			c0-0.7,0.6-1.3,1.5-1.3c0.4,0,0.8,0.1,1.1,0.3l-0.2,0.6c-0.2-0.1-0.5-0.3-0.9-0.3c-0.5,0-0.7,0.3-0.7,0.6c0,0.4,0.3,0.5,0.8,0.7
			c0.8,0.3,1.1,0.7,1.1,1.3c0,0.8-0.6,1.3-1.6,1.3c-0.5,0-0.9-0.1-1.2-0.3L52.4,69.3z"/>
	</g>
</g>
<g>
	<g>
		<path d="M197.5,231.8c0.3-0.1,0.6-0.1,1-0.1c0.6,0,0.9,0.1,1.2,0.3c0.2,0.2,0.3,0.5,0.3,0.8c0,0.5-0.3,0.9-0.8,1v0
			c0.3,0.1,0.5,0.4,0.6,0.8c0.1,0.6,0.2,1,0.3,1.1h-0.5c-0.1-0.1-0.2-0.5-0.3-1c-0.1-0.6-0.3-0.8-0.8-0.8H198v1.8h-0.5V231.8z
			 M198,233.7h0.5c0.6,0,0.9-0.3,0.9-0.8c0-0.5-0.4-0.8-0.9-0.8c-0.3,0-0.4,0-0.5,0V233.7z"/>
		<path d="M202.3,235.8l0-0.4h0c-0.2,0.2-0.5,0.4-0.9,0.4c-0.6,0-0.9-0.4-0.9-0.8c0-0.7,0.6-1.1,1.7-1.1v-0.1c0-0.2-0.1-0.7-0.7-0.7
			c-0.3,0-0.6,0.1-0.8,0.2l-0.1-0.4c0.2-0.2,0.6-0.3,1-0.3c0.9,0,1.1,0.6,1.1,1.2v1.1c0,0.2,0,0.5,0,0.7H202.3z M202.2,234.3
			c-0.6,0-1.2,0.1-1.2,0.7c0,0.3,0.2,0.5,0.5,0.5c0.4,0,0.6-0.2,0.7-0.5c0-0.1,0-0.1,0-0.2V234.3z"/>
		<path d="M203.6,233.7c0-0.3,0-0.5,0-0.8h0.5l0,0.5h0c0.1-0.3,0.5-0.5,1-0.5c0.4,0,1,0.2,1,1.2v1.7h-0.5v-1.7
			c0-0.5-0.2-0.9-0.7-0.9c-0.3,0-0.6,0.2-0.7,0.5c0,0.1,0,0.2,0,0.2v1.7h-0.5V233.7z"/>
		<path d="M207.5,234.3L207.5,234.3c0.1-0.1,0.2-0.2,0.3-0.3l0.9-1h0.6l-1.1,1.2l1.3,1.7h-0.6l-1-1.4l-0.3,0.3v1.1h-0.5v-4.3h0.5
			V234.3z"/>
		<path d="M212.2,231.7c-0.4,0.6-0.8,1.4-0.8,2.5c0,1.1,0.3,1.8,0.8,2.4h-0.4c-0.4-0.5-0.8-1.3-0.8-2.4c0-1.2,0.4-2,0.8-2.5H212.2z"
			/>
		<path d="M212.7,235.3c0.2,0.1,0.4,0.2,0.7,0.2c0.4,0,0.6-0.2,0.6-0.4c0-0.3-0.2-0.4-0.5-0.5c-0.5-0.2-0.8-0.5-0.8-0.8
			c0-0.5,0.4-0.9,1-0.9c0.3,0,0.5,0.1,0.7,0.2l-0.1,0.4c-0.1-0.1-0.3-0.2-0.6-0.2c-0.3,0-0.5,0.2-0.5,0.4c0,0.2,0.2,0.3,0.6,0.5
			c0.5,0.2,0.8,0.4,0.8,0.9c0,0.5-0.4,0.9-1.1,0.9c-0.3,0-0.6-0.1-0.8-0.2L212.7,235.3z"/>
		<path d="M215.7,232.1v0.8h0.8v0.4h-0.8v1.6c0,0.4,0.1,0.6,0.4,0.6c0.1,0,0.2,0,0.3,0l0,0.4c-0.1,0-0.3,0.1-0.5,0.1
			c-0.2,0-0.4-0.1-0.6-0.2c-0.1-0.2-0.2-0.4-0.2-0.8v-1.6h-0.4v-0.4h0.4v-0.7L215.7,232.1z"/>
		<path d="M218.7,235.8l0-0.4h0c-0.2,0.2-0.5,0.4-0.9,0.4c-0.6,0-0.9-0.4-0.9-0.8c0-0.7,0.6-1.1,1.7-1.1v-0.1c0-0.2-0.1-0.7-0.7-0.7
			c-0.3,0-0.6,0.1-0.8,0.2l-0.1-0.4c0.2-0.2,0.6-0.3,1-0.3c0.9,0,1.1,0.6,1.1,1.2v1.1c0,0.2,0,0.5,0,0.7H218.7z M218.6,234.3
			c-0.6,0-1.2,0.1-1.2,0.7c0,0.3,0.2,0.5,0.5,0.5c0.4,0,0.6-0.2,0.7-0.5c0-0.1,0-0.1,0-0.2V234.3z"/>
		<path d="M220,233.8c0-0.3,0-0.6,0-0.9h0.5l0,0.6h0c0.1-0.4,0.5-0.6,0.8-0.6c0.1,0,0.1,0,0.1,0v0.5c-0.1,0-0.1,0-0.2,0
			c-0.4,0-0.6,0.3-0.7,0.7c0,0.1,0,0.2,0,0.2v1.5H220V233.8z"/>
		<path d="M222.6,232.1v0.8h0.8v0.4h-0.8v1.6c0,0.4,0.1,0.6,0.4,0.6c0.1,0,0.2,0,0.3,0l0,0.4c-0.1,0-0.3,0.1-0.5,0.1
			c-0.2,0-0.4-0.1-0.6-0.2c-0.1-0.2-0.2-0.4-0.2-0.8v-1.6h-0.4v-0.4h0.4v-0.7L222.6,232.1z"/>
		<path d="M224.5,232.1c0,0.2-0.1,0.3-0.3,0.3c-0.2,0-0.3-0.1-0.3-0.3c0-0.2,0.1-0.3,0.3-0.3C224.4,231.8,224.5,231.9,224.5,232.1z
			 M223.9,235.8v-2.9h0.5v2.9H223.9z"/>
		<path d="M225.3,233.7c0-0.3,0-0.5,0-0.8h0.5l0,0.5h0c0.1-0.3,0.5-0.5,1-0.5c0.4,0,1,0.2,1,1.2v1.7h-0.5v-1.7
			c0-0.5-0.2-0.9-0.7-0.9c-0.3,0-0.6,0.2-0.7,0.5c0,0.1,0,0.2,0,0.2v1.7h-0.5V233.7z"/>
		<path d="M231.2,232.9c0,0.2,0,0.4,0,0.8v1.7c0,0.7-0.1,1.1-0.4,1.3c-0.3,0.3-0.7,0.3-1.1,0.3c-0.4,0-0.7-0.1-1-0.2l0.1-0.4
			c0.2,0.1,0.5,0.2,0.9,0.2c0.5,0,0.9-0.3,0.9-1v-0.3h0c-0.2,0.3-0.5,0.5-0.9,0.5c-0.7,0-1.2-0.6-1.2-1.4c0-1,0.6-1.5,1.3-1.5
			c0.5,0,0.8,0.3,0.9,0.5h0l0-0.4H231.2z M230.6,234.1c0-0.1,0-0.2,0-0.2c-0.1-0.3-0.4-0.6-0.7-0.6c-0.5,0-0.9,0.4-0.9,1.1
			c0,0.6,0.3,1,0.9,1c0.3,0,0.6-0.2,0.7-0.5c0-0.1,0-0.2,0-0.3V234.1z"/>
		<path d="M233.3,235.8v-2.5h-0.4v-0.4h0.4v-0.1c0-0.4,0.1-0.8,0.3-1c0.2-0.2,0.5-0.3,0.7-0.3c0.2,0,0.3,0,0.5,0.1l-0.1,0.4
			c-0.1,0-0.2-0.1-0.3-0.1c-0.4,0-0.6,0.4-0.6,0.8v0.2h0.7v0.4h-0.7v2.5H233.3z"/>
		<path d="M235,233.8c0-0.3,0-0.6,0-0.9h0.5l0,0.6h0c0.1-0.4,0.5-0.6,0.8-0.6c0.1,0,0.1,0,0.1,0v0.5c-0.1,0-0.1,0-0.2,0
			c-0.4,0-0.6,0.3-0.7,0.7c0,0.1,0,0.2,0,0.2v1.5H235V233.8z"/>
		<path d="M239.6,234.3c0,1.1-0.7,1.5-1.4,1.5c-0.8,0-1.4-0.6-1.4-1.5c0-1,0.6-1.5,1.4-1.5C239.1,232.9,239.6,233.5,239.6,234.3z
			 M237.3,234.4c0,0.6,0.4,1.1,0.9,1.1c0.5,0,0.9-0.5,0.9-1.1c0-0.5-0.2-1.1-0.9-1.1C237.6,233.3,237.3,233.8,237.3,234.4z"/>
		<path d="M240.3,233.7c0-0.3,0-0.5,0-0.8h0.5l0,0.5h0c0.2-0.3,0.4-0.5,0.9-0.5c0.4,0,0.7,0.2,0.8,0.6h0c0.1-0.2,0.2-0.3,0.3-0.4
			c0.2-0.1,0.4-0.2,0.6-0.2c0.4,0,1,0.2,1,1.3v1.7h-0.5v-1.6c0-0.6-0.2-0.9-0.6-0.9c-0.3,0-0.5,0.2-0.6,0.5c0,0.1,0,0.2,0,0.3v1.8
			h-0.5v-1.7c0-0.5-0.2-0.8-0.6-0.8c-0.3,0-0.6,0.3-0.7,0.5c0,0.1,0,0.2,0,0.3v1.7h-0.5V233.7z"/>
		<path d="M246.6,233.7c0-0.3,0-0.5,0-0.8h0.5l0,0.5h0c0.2-0.3,0.4-0.5,0.9-0.5c0.4,0,0.7,0.2,0.8,0.6h0c0.1-0.2,0.2-0.3,0.3-0.4
			c0.2-0.1,0.4-0.2,0.6-0.2c0.4,0,1,0.2,1,1.3v1.7h-0.5v-1.6c0-0.6-0.2-0.9-0.6-0.9c-0.3,0-0.5,0.2-0.6,0.5c0,0.1,0,0.2,0,0.3v1.8
			h-0.5v-1.7c0-0.5-0.2-0.8-0.6-0.8c-0.3,0-0.6,0.3-0.7,0.5c0,0.1,0,0.2,0,0.3v1.7h-0.5V233.7z"/>
		<path d="M254.2,234.3c0,1.1-0.7,1.5-1.4,1.5c-0.8,0-1.4-0.6-1.4-1.5c0-1,0.6-1.5,1.4-1.5C253.6,232.9,254.2,233.5,254.2,234.3z
			 M251.9,234.4c0,0.6,0.4,1.1,0.9,1.1c0.5,0,0.9-0.5,0.9-1.1c0-0.5-0.2-1.1-0.9-1.1C252.2,233.3,251.9,233.8,251.9,234.4z"/>
		<path d="M254.8,235.3c0.2,0.1,0.4,0.2,0.7,0.2c0.4,0,0.6-0.2,0.6-0.4c0-0.3-0.2-0.4-0.5-0.5c-0.5-0.2-0.8-0.5-0.8-0.8
			c0-0.5,0.4-0.9,1-0.9c0.3,0,0.5,0.1,0.7,0.2l-0.1,0.4c-0.1-0.1-0.3-0.2-0.6-0.2c-0.3,0-0.5,0.2-0.5,0.4c0,0.2,0.2,0.3,0.6,0.5
			c0.5,0.2,0.8,0.4,0.8,0.9c0,0.5-0.4,0.9-1.1,0.9c-0.3,0-0.6-0.1-0.8-0.2L254.8,235.3z"/>
		<path d="M257.9,232.1v0.8h0.8v0.4h-0.8v1.6c0,0.4,0.1,0.6,0.4,0.6c0.1,0,0.2,0,0.3,0l0,0.4c-0.1,0-0.3,0.1-0.5,0.1
			c-0.2,0-0.4-0.1-0.6-0.2c-0.1-0.2-0.2-0.4-0.2-0.8v-1.6h-0.4v-0.4h0.4v-0.7L257.9,232.1z"/>
		<path d="M262.6,235.7c-0.1,0.1-0.4,0.2-0.8,0.2c-0.9,0-1.4-0.6-1.4-1.5c0-0.9,0.6-1.5,1.6-1.5c0.3,0,0.6,0.1,0.7,0.2l-0.1,0.4
			c-0.1-0.1-0.3-0.1-0.6-0.1c-0.7,0-1,0.5-1,1.1c0,0.7,0.4,1.1,1,1.1c0.3,0,0.5-0.1,0.6-0.1L262.6,235.7z"/>
		<path d="M265.8,234.3c0,1.1-0.7,1.5-1.4,1.5c-0.8,0-1.4-0.6-1.4-1.5c0-1,0.6-1.5,1.4-1.5C265.3,232.9,265.8,233.5,265.8,234.3z
			 M263.5,234.4c0,0.6,0.4,1.1,0.9,1.1c0.5,0,0.9-0.5,0.9-1.1c0-0.5-0.2-1.1-0.9-1.1C263.8,233.3,263.5,233.8,263.5,234.4z"/>
		<path d="M266.5,233.7c0-0.3,0-0.5,0-0.8h0.5l0,0.5h0c0.2-0.3,0.4-0.5,0.9-0.5c0.4,0,0.7,0.2,0.8,0.6h0c0.1-0.2,0.2-0.3,0.3-0.4
			c0.2-0.1,0.4-0.2,0.6-0.2c0.4,0,1,0.2,1,1.3v1.7h-0.5v-1.6c0-0.6-0.2-0.9-0.6-0.9c-0.3,0-0.5,0.2-0.6,0.5c0,0.1,0,0.2,0,0.3v1.8
			h-0.5v-1.7c0-0.5-0.2-0.8-0.6-0.8c-0.3,0-0.6,0.3-0.7,0.5c0,0.1,0,0.2,0,0.3v1.7h-0.5V233.7z"/>
		<path d="M271.5,233.7c0-0.3,0-0.5,0-0.8h0.5l0,0.5h0c0.2-0.3,0.4-0.5,0.9-0.5c0.4,0,0.7,0.2,0.8,0.6h0c0.1-0.2,0.2-0.3,0.3-0.4
			c0.2-0.1,0.4-0.2,0.6-0.2c0.4,0,1,0.2,1,1.3v1.7h-0.5v-1.6c0-0.6-0.2-0.9-0.6-0.9c-0.3,0-0.5,0.2-0.6,0.5c0,0.1,0,0.2,0,0.3v1.8
			h-0.5v-1.7c0-0.5-0.2-0.8-0.6-0.8c-0.3,0-0.6,0.3-0.7,0.5c0,0.1,0,0.2,0,0.3v1.7h-0.5V233.7z"/>
		<path d="M279.1,234.3c0,1.1-0.7,1.5-1.4,1.5c-0.8,0-1.4-0.6-1.4-1.5c0-1,0.6-1.5,1.4-1.5C278.6,232.9,279.1,233.5,279.1,234.3z
			 M276.8,234.4c0,0.6,0.4,1.1,0.9,1.1c0.5,0,0.9-0.5,0.9-1.1c0-0.5-0.2-1.1-0.9-1.1C277.1,233.3,276.8,233.8,276.8,234.4z"/>
		<path d="M279.8,233.7c0-0.3,0-0.5,0-0.8h0.5l0,0.5h0c0.1-0.3,0.5-0.5,1-0.5c0.4,0,1,0.2,1,1.2v1.7h-0.5v-1.7
			c0-0.5-0.2-0.9-0.7-0.9c-0.3,0-0.6,0.2-0.7,0.5c0,0.1,0,0.2,0,0.2v1.7h-0.5V233.7z"/>
		<path d="M282.8,236.5c0.4-0.6,0.8-1.4,0.8-2.4c0-1.1-0.3-1.8-0.8-2.4h0.4c0.4,0.5,0.8,1.3,0.8,2.4c0,1.2-0.4,1.9-0.8,2.4H282.8z"
			/>
	</g>
</g>
</svg>
