<?xml version="1.0" encoding="utf-8"?>
<!-- Generator: Adobe Illustrator 28.2.0, SVG Export Plug-In . SVG Version: 6.00 Build 0)  -->
<svg version="1.1" id="Layer_1" xmlns="http://www.w3.org/2000/svg" xmlns:xlink="http://www.w3.org/1999/xlink" x="0px" y="0px"
	 viewBox="0 0 288 243" style="enable-background:new 0 0 288 243;" xml:space="preserve">
<style type="text/css">
	.st0{fill:none;}
	.st1{clip-path:url(#SVGID_00000040559159635696844670000008964258151300989863_);}
	.st2{fill:none;stroke:#BEBEBE;stroke-width:1.07;stroke-linejoin:round;stroke-miterlimit:10;}
	.st3{fill:none;stroke:#6091A0;stroke-width:2.13;stroke-linejoin:round;stroke-miterlimit:10;}
	.st4{fill:none;stroke:#65AA81;stroke-width:2.13;stroke-linejoin:round;stroke-miterlimit:10;}
	.st5{fill:#6091A0;stroke:#6091A0;stroke-width:0.71;stroke-linecap:round;stroke-linejoin:round;stroke-miterlimit:10;}
	.st6{fill:#6091A0;stroke:#ADD8E6;stroke-width:0.71;stroke-linecap:round;stroke-linejoin:round;stroke-miterlimit:10;}
	.st7{fill:#65AA81;stroke:#65AA81;stroke-width:0.71;stroke-linecap:round;stroke-linejoin:round;stroke-miterlimit:10;}
	.st8{enable-background:new    ;}
	.st9{fill:#65AA81;}
	.st10{fill:#6091A0;}
	.st11{clip-path:url(#SVGID_00000036209663418427902860000000956501504407565185_);}
	.st12{fill:#4D4D4D;}
	.st13{font-family:'ArialMT';}
	.st14{font-size:8.8px;}
	.st15{clip-path:url(#SVGID_00000036209663418427902860000000956501504407565185_);enable-background:new    ;}
	.st16{fill:#414242;}
	.st17{fill:#6091A0;stroke:#6091A0;stroke-width:0.5;stroke-miterlimit:10;}
</style>
<rect y="-45" class="st0" width="288" height="273"/>
<g>
	<defs>
		<rect id="SVGID_1_" y="-45" width="288" height="273"/>
	</defs>
	<clipPath id="SVGID_00000106848021994520410240000008300878999424429715_">
		<use xlink:href="#SVGID_1_"  style="overflow:visible;"/>
	</clipPath>
</g>
<g>
	<defs>
		<rect id="SVGID_00000176033362363800529030000006137844692882462083_" x="32.2" y="-0.3" width="250.3" height="209.6"/>
	</defs>
	<clipPath id="SVGID_00000147898907249594236990000008491509829322080673_">
		<use xlink:href="#SVGID_00000176033362363800529030000006137844692882462083_"  style="overflow:visible;"/>
	</clipPath>
	<g style="clip-path:url(#SVGID_00000147898907249594236990000008491509829322080673_);">
		<line class="st2" x1="32.2" y1="208.2" x2="282.5" y2="208.2"/>
		<line class="st2" x1="32.2" y1="147.3" x2="282.5" y2="147.3"/>
		<line class="st2" x1="32.2" y1="86.3" x2="282.5" y2="86.3"/>
		<line class="st2" x1="32.2" y1="25.4" x2="282.5" y2="25.4"/>
		<polyline class="st3" points="44.5,68 65,129 85.5,129 106.1,132 126.6,147.3 147.1,153.4 167.6,159.5 188.1,165.6 208.6,171.7 
			229.2,177.8 249.7,183.9 270.2,190 		"/>
		<polyline class="st4" points="44.5,98.5 65,122.9 85.5,122.9 106.1,122.9 126.6,153.4 147.1,159.5 167.6,174.7 188.1,174.7 
			208.6,183.9 229.2,183.9 249.7,196.1 270.2,199.1 		"/>
		<circle class="st5" cx="44.5" cy="68" r="1.9"/>
		<circle class="st5" cx="65" cy="129" r="1.9"/>
		<circle class="st5" cx="85.5" cy="129" r="1.9"/>
		<circle class="st5" cx="106.1" cy="132" r="1.9"/>
		<circle class="st5" cx="126.6" cy="147.3" r="1.9"/>
		<circle class="st5" cx="147.1" cy="153.4" r="1.9"/>
		<circle class="st5" cx="167.6" cy="159.5" r="1.9"/>
		<circle class="st5" cx="188.1" cy="165.6" r="1.9"/>
		<circle class="st5" cx="208.6" cy="171.7" r="1.9"/>
		<circle class="st5" cx="229.2" cy="177.8" r="1.9"/>
		<circle class="st5" cx="249.7" cy="183.9" r="1.9"/>
		<circle class="st6" cx="270.2" cy="190" r="2"/>
		<circle class="st7" cx="44.5" cy="98.5" r="1.9"/>
		<circle class="st7" cx="65" cy="122.9" r="1.9"/>
		<circle class="st7" cx="85.5" cy="122.9" r="1.9"/>
		<circle class="st7" cx="106.1" cy="122.9" r="1.9"/>
		<circle class="st7" cx="126.6" cy="153.4" r="1.9"/>
		<circle class="st7" cx="147.1" cy="159.5" r="1.9"/>
		<circle class="st7" cx="167.6" cy="174.7" r="1.9"/>
		<circle class="st7" cx="188.1" cy="174.7" r="1.9"/>
		<circle class="st7" cx="208.6" cy="183.9" r="1.9"/>
		<circle class="st7" cx="229.2" cy="183.9" r="1.9"/>
		<circle class="st7" cx="249.7" cy="196.1" r="2"/>
		<circle class="st7" cx="270.2" cy="199.1" r="2"/>
		<g>
			<g class="st8">
				<path class="st9" d="M108.9,115.5c0,1.8-1.1,2.8-2.5,2.8c-1.4,0-2.4-1.1-2.4-2.7c0-1.7,1.1-2.8,2.5-2.8
					C107.9,112.7,108.9,113.9,108.9,115.5z M104.7,115.5c0,1.2,0.6,2.2,1.7,2.2c1.1,0,1.7-1,1.7-2.2c0-1.1-0.6-2.2-1.7-2.2
					C105.2,113.3,104.7,114.4,104.7,115.5z"/>
				<path class="st9" d="M111.9,118.2l-0.1-0.5h0c-0.2,0.3-0.6,0.6-1.2,0.6c-0.8,0-1.2-0.6-1.2-1.1c0-0.9,0.8-1.5,2.3-1.4v-0.1
					c0-0.3-0.1-0.9-0.9-0.9c-0.4,0-0.7,0.1-1,0.3l-0.2-0.5c0.3-0.2,0.8-0.3,1.3-0.3c1.2,0,1.5,0.8,1.5,1.6v1.4c0,0.3,0,0.7,0.1,0.9
					H111.9z M111.8,116.2c-0.8,0-1.6,0.1-1.6,0.9c0,0.5,0.3,0.7,0.7,0.7c0.5,0,0.8-0.3,0.9-0.6c0-0.1,0-0.2,0-0.2V116.2z"/>
				<path class="st9" d="M114.3,116.1L114.3,116.1c0.1-0.1,0.2-0.3,0.4-0.4l1.1-1.3h0.8l-1.5,1.6l1.7,2.3H116l-1.3-1.9l-0.4,0.4v1.5
					h-0.7v-5.7h0.7V116.1z"/>
				<path class="st9" d="M117.2,117.5c0.2,0.1,0.6,0.3,0.9,0.3c0.5,0,0.8-0.3,0.8-0.6c0-0.3-0.2-0.5-0.7-0.7c-0.7-0.3-1-0.6-1-1.1
					c0-0.6,0.5-1.1,1.3-1.1c0.4,0,0.7,0.1,0.9,0.2l-0.2,0.5c-0.1-0.1-0.4-0.2-0.8-0.2c-0.4,0-0.6,0.2-0.6,0.5c0,0.3,0.2,0.5,0.7,0.7
					c0.7,0.2,1,0.6,1,1.2c0,0.7-0.5,1.2-1.4,1.2c-0.4,0-0.8-0.1-1.1-0.3L117.2,117.5z"/>
			</g>
		</g>
		<g>
			<g>
				<path class="st10" d="M38.1,57.8c0,2.1-1.3,3.2-2.8,3.2c-1.6,0-2.7-1.2-2.7-3.1c0-1.9,1.2-3.2,2.8-3.2
					C37,54.7,38.1,56,38.1,57.8z M33.3,57.9c0,1.3,0.7,2.5,1.9,2.5c1.2,0,1.9-1.1,1.9-2.5c0-1.2-0.6-2.5-1.9-2.5
					C34,55.4,33.3,56.6,33.3,57.9z"/>
				<path class="st10" d="M41.5,60.9l-0.1-0.5h0C41.1,60.7,40.7,61,40,61c-0.9,0-1.3-0.6-1.3-1.2c0-1.1,0.9-1.6,2.6-1.6V58
					c0-0.4-0.1-1-1-1c-0.4,0-0.8,0.1-1.1,0.3L39,56.8c0.4-0.2,0.9-0.4,1.4-0.4c1.3,0,1.7,0.9,1.7,1.8v1.6c0,0.4,0,0.7,0.1,1H41.5z
					 M41.3,58.7c-0.9,0-1.8,0.1-1.8,1c0,0.5,0.3,0.8,0.7,0.8c0.6,0,0.9-0.4,1.1-0.7c0-0.1,0-0.2,0-0.2V58.7z"/>
				<path class="st10" d="M44.2,58.5L44.2,58.5c0.1-0.2,0.3-0.3,0.4-0.5l1.3-1.5h1l-1.7,1.8l1.9,2.6h-1l-1.5-2.1l-0.4,0.5v1.6h-0.8
					v-6.4h0.8V58.5z"/>
				<path class="st10" d="M47.5,60.1c0.2,0.1,0.7,0.3,1,0.3c0.6,0,0.8-0.3,0.8-0.6c0-0.4-0.2-0.6-0.8-0.8c-0.8-0.3-1.2-0.7-1.2-1.2
					c0-0.7,0.6-1.3,1.5-1.3c0.4,0,0.8,0.1,1.1,0.3l-0.2,0.6c-0.2-0.1-0.5-0.3-0.9-0.3c-0.5,0-0.7,0.3-0.7,0.6c0,0.4,0.3,0.5,0.8,0.7
					c0.8,0.3,1.1,0.7,1.1,1.3c0,0.8-0.6,1.3-1.6,1.3c-0.5,0-0.9-0.1-1.2-0.3L47.5,60.1z"/>
			</g>
		</g>
	</g>
</g>
<g>
	<defs>
		<rect id="SVGID_00000062184084906519959770000017137383391720821646_" y="-45" width="288" height="273"/>
	</defs>
	<clipPath id="SVGID_00000029733166879073866550000010363495492928271273_">
		<use xlink:href="#SVGID_00000062184084906519959770000017137383391720821646_"  style="overflow:visible;"/>
	</clipPath>
	<g style="clip-path:url(#SVGID_00000029733166879073866550000010363495492928271273_);">
		<rect x="10.4" y="203.9" class="st0" width="4.9" height="10.4"/>
		<text transform="matrix(1 0 0 1 10.376 211.4061)" class="st12 st13 st14">0</text>
		<rect x="5.5" y="142.9" class="st0" width="9.8" height="10.4"/>
		<text transform="matrix(1 0 0 1 5.4819 150.4363)" class="st12 st13 st14">10</text>
		<rect x="5.5" y="81.9" class="st0" width="9.8" height="10.4"/>
		<text transform="matrix(1 0 0 1 5.4819 89.4764)" class="st12 st13 st14">20</text>
		<rect x="5.5" y="21" class="st0" width="9.8" height="10.4"/>
		<text transform="matrix(1 0 0 1 5.4819 28.5062)" class="st12 st13 st14">30 </text>
		<rect x="42.1" y="213" class="st0" width="4.9" height="10.4"/>
		<text transform="matrix(1 0 0 1 42.0527 220.556)" class="st12 st13 st14">1</text>
		<rect x="62.6" y="213" class="st0" width="4.9" height="10.4"/>
		<text transform="matrix(1 0 0 1 62.5728 220.556)" class="st12 st13 st14">2</text>
		<rect x="83.1" y="213" class="st0" width="4.9" height="10.4"/>
		<text transform="matrix(1 0 0 1 83.083 220.556)" class="st12 st13 st14">3</text>
		<rect x="103.6" y="213" class="st0" width="4.9" height="10.4"/>
		<text transform="matrix(1 0 0 1 103.603 220.556)" class="st12 st13 st14">4</text>
		<rect x="124.1" y="213" class="st0" width="4.9" height="10.4"/>
		<text transform="matrix(1 0 0 1 124.123 220.556)" class="st12 st13 st14">5</text>
		<rect x="144.6" y="213" class="st0" width="4.9" height="10.4"/>
		<text transform="matrix(1 0 0 1 144.6431 220.556)" class="st12 st13 st14">6</text>
		<rect x="165.2" y="213" class="st0" width="4.9" height="10.4"/>
		<text transform="matrix(1 0 0 1 165.1631 220.556)" class="st12 st13 st14">7</text>
		<rect x="185.7" y="213" class="st0" width="4.9" height="10.4"/>
		<text transform="matrix(1 0 0 1 185.6831 220.556)" class="st12 st13 st14">8</text>
		<rect x="206.2" y="213" class="st0" width="4.9" height="10.4"/>
		<text transform="matrix(1 0 0 1 206.2031 220.556)" class="st12 st13 st14">9</text>
		<rect x="224.3" y="213" class="st0" width="9.8" height="10.4"/>
		<text transform="matrix(1 0 0 1 224.2759 220.556)" class="st12 st13 st14">10</text>
		<rect x="245.1" y="213" class="st0" width="9.8" height="10.4"/>
		<text transform="matrix(1 0 0 1 245.1226 220.556)" class="st12 st13 st14">11</text>
		<rect x="265.3" y="213" class="st0" width="9.8" height="10.4"/>
		<text transform="matrix(1 0 0 1 265.3159 220.556)" class="st12 st13 st14">12</text>
	</g>
	<g style="clip-path:url(#SVGID_00000029733166879073866550000010363495492928271273_);enable-background:new    ;">
		<rect x="17.2" y="22.2" class="st0" width="9.8" height="10.4"/>
		<text transform="matrix(1 0 0 1 17.2285 28.4798)" class="st12 st13 st14">%</text>
	</g>
</g>
<g>
	<g>
		<path class="st16" d="M198.6,224c0.3-0.1,0.6-0.1,1-0.1c0.6,0,0.9,0.1,1.2,0.3c0.2,0.2,0.3,0.5,0.3,0.8c0,0.5-0.3,0.9-0.8,1v0
			c0.3,0.1,0.5,0.4,0.6,0.8c0.1,0.6,0.2,1,0.3,1.1h-0.5c-0.1-0.1-0.2-0.5-0.3-1c-0.1-0.6-0.3-0.8-0.8-0.8h-0.5v1.8h-0.5V224z
			 M199.1,225.8h0.5c0.6,0,0.9-0.3,0.9-0.8c0-0.5-0.4-0.8-0.9-0.8c-0.3,0-0.4,0-0.5,0V225.8z"/>
		<path class="st16" d="M203.4,228l0-0.4h0c-0.2,0.2-0.5,0.4-0.9,0.4c-0.6,0-0.9-0.4-0.9-0.8c0-0.7,0.6-1.1,1.7-1.1v-0.1
			c0-0.2-0.1-0.7-0.7-0.7c-0.3,0-0.6,0.1-0.8,0.2l-0.1-0.4c0.2-0.2,0.6-0.3,1-0.3c0.9,0,1.1,0.6,1.1,1.2v1.1c0,0.2,0,0.5,0,0.7
			H203.4z M203.4,226.5c-0.6,0-1.2,0.1-1.2,0.7c0,0.3,0.2,0.5,0.5,0.5c0.4,0,0.6-0.2,0.7-0.5c0-0.1,0-0.1,0-0.2V226.5z"/>
		<path class="st16" d="M204.7,225.9c0-0.3,0-0.5,0-0.8h0.5l0,0.5h0c0.1-0.3,0.5-0.5,1-0.5c0.4,0,1,0.2,1,1.2v1.7h-0.5v-1.7
			c0-0.5-0.2-0.9-0.7-0.9c-0.3,0-0.6,0.2-0.7,0.5c0,0.1,0,0.2,0,0.2v1.7h-0.5V225.9z"/>
		<path class="st16" d="M208.6,226.4L208.6,226.4c0.1-0.1,0.2-0.2,0.3-0.3l0.9-1h0.6l-1.1,1.2l1.3,1.7h-0.6l-1-1.4l-0.3,0.3v1.1
			h-0.5v-4.3h0.5V226.4z"/>
		<path class="st16" d="M213.3,223.8c-0.4,0.6-0.8,1.4-0.8,2.5c0,1.1,0.3,1.8,0.8,2.4h-0.4c-0.4-0.5-0.8-1.3-0.8-2.4
			c0-1.2,0.4-2,0.8-2.5H213.3z"/>
		<path class="st16" d="M213.8,227.4c0.2,0.1,0.4,0.2,0.7,0.2c0.4,0,0.6-0.2,0.6-0.4c0-0.3-0.2-0.4-0.5-0.5
			c-0.5-0.2-0.8-0.5-0.8-0.8c0-0.5,0.4-0.9,1-0.9c0.3,0,0.5,0.1,0.7,0.2l-0.1,0.4c-0.1-0.1-0.3-0.2-0.6-0.2c-0.3,0-0.5,0.2-0.5,0.4
			c0,0.2,0.2,0.3,0.6,0.5c0.5,0.2,0.8,0.4,0.8,0.9c0,0.5-0.4,0.9-1.1,0.9c-0.3,0-0.6-0.1-0.8-0.2L213.8,227.4z"/>
		<path class="st16" d="M216.9,224.3v0.8h0.8v0.4h-0.8v1.6c0,0.4,0.1,0.6,0.4,0.6c0.1,0,0.2,0,0.3,0l0,0.4c-0.1,0-0.3,0.1-0.5,0.1
			c-0.2,0-0.4-0.1-0.6-0.2c-0.1-0.2-0.2-0.4-0.2-0.8v-1.6h-0.4v-0.4h0.4v-0.7L216.9,224.3z"/>
		<path class="st16" d="M219.8,228l0-0.4h0c-0.2,0.2-0.5,0.4-0.9,0.4c-0.6,0-0.9-0.4-0.9-0.8c0-0.7,0.6-1.1,1.7-1.1v-0.1
			c0-0.2-0.1-0.7-0.7-0.7c-0.3,0-0.6,0.1-0.8,0.2l-0.1-0.4c0.2-0.2,0.6-0.3,1-0.3c0.9,0,1.1,0.6,1.1,1.2v1.1c0,0.2,0,0.5,0,0.7
			H219.8z M219.7,226.5c-0.6,0-1.2,0.1-1.2,0.7c0,0.3,0.2,0.5,0.5,0.5c0.4,0,0.6-0.2,0.7-0.5c0-0.1,0-0.1,0-0.2V226.5z"/>
		<path class="st16" d="M221.1,226c0-0.3,0-0.6,0-0.9h0.5l0,0.6h0c0.1-0.4,0.5-0.6,0.8-0.6c0.1,0,0.1,0,0.1,0v0.5
			c-0.1,0-0.1,0-0.2,0c-0.4,0-0.6,0.3-0.7,0.7c0,0.1,0,0.2,0,0.2v1.5h-0.5V226z"/>
		<path class="st16" d="M223.7,224.3v0.8h0.8v0.4h-0.8v1.6c0,0.4,0.1,0.6,0.4,0.6c0.1,0,0.2,0,0.3,0l0,0.4c-0.1,0-0.3,0.1-0.5,0.1
			c-0.2,0-0.4-0.1-0.6-0.2c-0.1-0.2-0.2-0.4-0.2-0.8v-1.6h-0.4v-0.4h0.4v-0.7L223.7,224.3z"/>
		<path class="st16" d="M225.6,224.3c0,0.2-0.1,0.3-0.3,0.3c-0.2,0-0.3-0.1-0.3-0.3c0-0.2,0.1-0.3,0.3-0.3
			C225.5,223.9,225.6,224.1,225.6,224.3z M225,228v-2.9h0.5v2.9H225z"/>
		<path class="st16" d="M226.4,225.9c0-0.3,0-0.5,0-0.8h0.5l0,0.5h0c0.1-0.3,0.5-0.5,1-0.5c0.4,0,1,0.2,1,1.2v1.7h-0.5v-1.7
			c0-0.5-0.2-0.9-0.7-0.9c-0.3,0-0.6,0.2-0.7,0.5c0,0.1,0,0.2,0,0.2v1.7h-0.5V225.9z"/>
		<path class="st16" d="M232.3,225.1c0,0.2,0,0.4,0,0.8v1.7c0,0.7-0.1,1.1-0.4,1.3c-0.3,0.3-0.7,0.3-1.1,0.3c-0.4,0-0.7-0.1-1-0.2
			l0.1-0.4c0.2,0.1,0.5,0.2,0.9,0.2c0.5,0,0.9-0.3,0.9-1v-0.3h0c-0.2,0.3-0.5,0.5-0.9,0.5c-0.7,0-1.2-0.6-1.2-1.4
			c0-1,0.6-1.5,1.3-1.5c0.5,0,0.8,0.3,0.9,0.5h0l0-0.4H232.3z M231.7,226.2c0-0.1,0-0.2,0-0.2c-0.1-0.3-0.4-0.6-0.7-0.6
			c-0.5,0-0.9,0.4-0.9,1.1c0,0.6,0.3,1,0.9,1c0.3,0,0.6-0.2,0.7-0.5c0-0.1,0-0.2,0-0.3V226.2z"/>
		<path class="st16" d="M234.5,228v-2.5H234v-0.4h0.4v-0.1c0-0.4,0.1-0.8,0.3-1c0.2-0.2,0.5-0.3,0.7-0.3c0.2,0,0.3,0,0.5,0.1
			l-0.1,0.4c-0.1,0-0.2-0.1-0.3-0.1c-0.4,0-0.6,0.4-0.6,0.8v0.2h0.7v0.4H235v2.5H234.5z"/>
		<path class="st16" d="M236.2,226c0-0.3,0-0.6,0-0.9h0.5l0,0.6h0c0.1-0.4,0.5-0.6,0.8-0.6c0.1,0,0.1,0,0.1,0v0.5
			c-0.1,0-0.1,0-0.2,0c-0.4,0-0.6,0.3-0.7,0.7c0,0.1,0,0.2,0,0.2v1.5h-0.5V226z"/>
		<path class="st16" d="M240.7,226.5c0,1.1-0.7,1.5-1.4,1.5c-0.8,0-1.4-0.6-1.4-1.5c0-1,0.6-1.5,1.4-1.5
			C240.2,225,240.7,225.6,240.7,226.5z M238.4,226.5c0,0.6,0.4,1.1,0.9,1.1c0.5,0,0.9-0.5,0.9-1.1c0-0.5-0.2-1.1-0.9-1.1
			C238.7,225.4,238.4,226,238.4,226.5z"/>
		<path class="st16" d="M241.4,225.9c0-0.3,0-0.5,0-0.8h0.5l0,0.5h0c0.2-0.3,0.4-0.5,0.9-0.5c0.4,0,0.7,0.2,0.8,0.6h0
			c0.1-0.2,0.2-0.3,0.3-0.4c0.2-0.1,0.4-0.2,0.6-0.2c0.4,0,1,0.2,1,1.3v1.7H245v-1.6c0-0.6-0.2-0.9-0.6-0.9c-0.3,0-0.5,0.2-0.6,0.5
			c0,0.1,0,0.2,0,0.3v1.8h-0.5v-1.7c0-0.5-0.2-0.8-0.6-0.8c-0.3,0-0.6,0.3-0.7,0.5c0,0.1,0,0.2,0,0.3v1.7h-0.5V225.9z"/>
		<path class="st16" d="M247.7,225.9c0-0.3,0-0.5,0-0.8h0.5l0,0.5h0c0.2-0.3,0.4-0.5,0.9-0.5c0.4,0,0.7,0.2,0.8,0.6h0
			c0.1-0.2,0.2-0.3,0.3-0.4c0.2-0.1,0.4-0.2,0.6-0.2c0.4,0,1,0.2,1,1.3v1.7h-0.5v-1.6c0-0.6-0.2-0.9-0.6-0.9c-0.3,0-0.5,0.2-0.6,0.5
			c0,0.1,0,0.2,0,0.3v1.8h-0.5v-1.7c0-0.5-0.2-0.8-0.6-0.8c-0.3,0-0.6,0.3-0.7,0.5c0,0.1,0,0.2,0,0.3v1.7h-0.5V225.9z"/>
		<path class="st16" d="M255.3,226.5c0,1.1-0.7,1.5-1.4,1.5c-0.8,0-1.4-0.6-1.4-1.5c0-1,0.6-1.5,1.4-1.5
			C254.8,225,255.3,225.6,255.3,226.5z M253,226.5c0,0.6,0.4,1.1,0.9,1.1c0.5,0,0.9-0.5,0.9-1.1c0-0.5-0.2-1.1-0.9-1.1
			C253.3,225.4,253,226,253,226.5z"/>
		<path class="st16" d="M255.9,227.4c0.2,0.1,0.4,0.2,0.7,0.2c0.4,0,0.6-0.2,0.6-0.4c0-0.3-0.2-0.4-0.5-0.5
			c-0.5-0.2-0.8-0.5-0.8-0.8c0-0.5,0.4-0.9,1-0.9c0.3,0,0.5,0.1,0.7,0.2l-0.1,0.4c-0.1-0.1-0.3-0.2-0.6-0.2c-0.3,0-0.5,0.2-0.5,0.4
			c0,0.2,0.2,0.3,0.6,0.5c0.5,0.2,0.8,0.4,0.8,0.9c0,0.5-0.4,0.9-1.1,0.9c-0.3,0-0.6-0.1-0.8-0.2L255.9,227.4z"/>
		<path class="st16" d="M259,224.3v0.8h0.8v0.4H259v1.6c0,0.4,0.1,0.6,0.4,0.6c0.1,0,0.2,0,0.3,0l0,0.4c-0.1,0-0.3,0.1-0.5,0.1
			c-0.2,0-0.4-0.1-0.6-0.2c-0.1-0.2-0.2-0.4-0.2-0.8v-1.6H258v-0.4h0.4v-0.7L259,224.3z"/>
		<path class="st16" d="M263.7,227.9c-0.1,0.1-0.4,0.2-0.8,0.2c-0.9,0-1.4-0.6-1.4-1.5c0-0.9,0.6-1.5,1.6-1.5c0.3,0,0.6,0.1,0.7,0.2
			l-0.1,0.4c-0.1-0.1-0.3-0.1-0.6-0.1c-0.7,0-1,0.5-1,1.1c0,0.7,0.4,1.1,1,1.1c0.3,0,0.5-0.1,0.6-0.1L263.7,227.9z"/>
		<path class="st16" d="M266.9,226.5c0,1.1-0.7,1.5-1.4,1.5c-0.8,0-1.4-0.6-1.4-1.5c0-1,0.6-1.5,1.4-1.5
			C266.4,225,266.9,225.6,266.9,226.5z M264.6,226.5c0,0.6,0.4,1.1,0.9,1.1c0.5,0,0.9-0.5,0.9-1.1c0-0.5-0.2-1.1-0.9-1.1
			C264.9,225.4,264.6,226,264.6,226.5z"/>
		<path class="st16" d="M267.6,225.9c0-0.3,0-0.5,0-0.8h0.5l0,0.5h0c0.2-0.3,0.4-0.5,0.9-0.5c0.4,0,0.7,0.2,0.8,0.6h0
			c0.1-0.2,0.2-0.3,0.3-0.4c0.2-0.1,0.4-0.2,0.6-0.2c0.4,0,1,0.2,1,1.3v1.7h-0.5v-1.6c0-0.6-0.2-0.9-0.6-0.9c-0.3,0-0.5,0.2-0.6,0.5
			c0,0.1,0,0.2,0,0.3v1.8h-0.5v-1.7c0-0.5-0.2-0.8-0.6-0.8c-0.3,0-0.6,0.3-0.7,0.5c0,0.1,0,0.2,0,0.3v1.7h-0.5V225.9z"/>
		<path class="st16" d="M272.6,225.9c0-0.3,0-0.5,0-0.8h0.5l0,0.5h0c0.2-0.3,0.4-0.5,0.9-0.5c0.4,0,0.7,0.2,0.8,0.6h0
			c0.1-0.2,0.2-0.3,0.3-0.4c0.2-0.1,0.4-0.2,0.6-0.2c0.4,0,1,0.2,1,1.3v1.7h-0.5v-1.6c0-0.6-0.2-0.9-0.6-0.9c-0.3,0-0.5,0.2-0.6,0.5
			c0,0.1,0,0.2,0,0.3v1.8h-0.5v-1.7c0-0.5-0.2-0.8-0.6-0.8c-0.3,0-0.6,0.3-0.7,0.5c0,0.1,0,0.2,0,0.3v1.7h-0.5V225.9z"/>
		<path class="st16" d="M280.2,226.5c0,1.1-0.7,1.5-1.4,1.5c-0.8,0-1.4-0.6-1.4-1.5c0-1,0.6-1.5,1.4-1.5
			C279.7,225,280.2,225.6,280.2,226.5z M277.9,226.5c0,0.6,0.4,1.1,0.9,1.1c0.5,0,0.9-0.5,0.9-1.1c0-0.5-0.2-1.1-0.9-1.1
			C278.2,225.4,277.9,226,277.9,226.5z"/>
		<path class="st16" d="M280.9,225.9c0-0.3,0-0.5,0-0.8h0.5l0,0.5h0c0.1-0.3,0.5-0.5,1-0.5c0.4,0,1,0.2,1,1.2v1.7h-0.5v-1.7
			c0-0.5-0.2-0.9-0.7-0.9c-0.3,0-0.6,0.2-0.7,0.5c0,0.1,0,0.2,0,0.2v1.7h-0.5V225.9z"/>
		<path class="st16" d="M283.9,228.7c0.4-0.6,0.8-1.4,0.8-2.4c0-1.1-0.3-1.8-0.8-2.4h0.4c0.4,0.5,0.8,1.3,0.8,2.4
			c0,1.2-0.4,1.9-0.8,2.4H283.9z"/>
	</g>
</g>
<g>
	<g>
	</g>
</g>
<line class="st3" x1="201.5" y1="73.2" x2="213.4" y2="73.2"/>
<line class="st4" x1="201.4" y1="62.3" x2="213.2" y2="62.3"/>
<g>
	<g>
		<path d="M217.3,64.4c0.3,0.2,0.8,0.3,1.2,0.3c0.7,0,1.1-0.4,1.1-0.9c0-0.5-0.3-0.8-1-1.1c-0.9-0.3-1.4-0.8-1.4-1.5
			c0-0.8,0.7-1.5,1.7-1.5c0.5,0,1,0.1,1.2,0.3l-0.2,0.6c-0.2-0.1-0.5-0.3-1-0.3c-0.7,0-1,0.4-1,0.8c0,0.5,0.3,0.7,1.1,1
			c0.9,0.4,1.4,0.8,1.4,1.6c0,0.8-0.6,1.6-1.9,1.6c-0.5,0-1.1-0.2-1.4-0.4L217.3,64.4z"/>
		<path d="M221.3,59.6h0.7V62h0c0.1-0.2,0.3-0.4,0.5-0.5c0.2-0.1,0.5-0.2,0.7-0.2c0.5,0,1.3,0.3,1.3,1.7v2.3h-0.7V63
			c0-0.6-0.2-1.1-0.9-1.1c-0.5,0-0.8,0.3-0.9,0.7c0,0.1,0,0.2,0,0.3v2.3h-0.7V59.6z"/>
		<path d="M227.9,65.3l-0.1-0.5h0c-0.2,0.3-0.6,0.6-1.2,0.6c-0.8,0-1.2-0.6-1.2-1.1c0-0.9,0.8-1.5,2.3-1.4v-0.1
			c0-0.3-0.1-0.9-0.9-0.9c-0.4,0-0.7,0.1-1,0.3l-0.2-0.5c0.3-0.2,0.8-0.3,1.3-0.3c1.2,0,1.5,0.8,1.5,1.6v1.4c0,0.3,0,0.7,0.1,0.9
			H227.9z M227.8,63.3c-0.8,0-1.6,0.1-1.6,0.9c0,0.5,0.3,0.7,0.7,0.7c0.5,0,0.8-0.3,0.9-0.6c0-0.1,0-0.2,0-0.2V63.3z"/>
		<path d="M229.6,62.6c0-0.5,0-0.8,0-1.2h0.6l0,0.8h0c0.2-0.5,0.6-0.8,1.1-0.8c0.1,0,0.1,0,0.2,0V62c-0.1,0-0.1,0-0.2,0
			c-0.5,0-0.8,0.4-0.9,0.9c0,0.1,0,0.2,0,0.3v2.1h-0.7V62.6z"/>
		<path d="M232.6,63.4c0,1,0.6,1.3,1.3,1.3c0.5,0,0.8-0.1,1.1-0.2l0.1,0.5c-0.2,0.1-0.7,0.2-1.3,0.2c-1.2,0-1.9-0.8-1.9-2
			c0-1.2,0.7-2.1,1.8-2.1c1.3,0,1.6,1.1,1.6,1.8c0,0.1,0,0.3,0,0.3H232.6z M234.6,62.9c0-0.4-0.2-1.1-1-1.1c-0.7,0-1,0.6-1.1,1.1
			H234.6z"/>
		<path d="M241.4,63.3c0,1.4-1,2.1-1.9,2.1c-1,0-1.9-0.8-1.9-2c0-1.3,0.9-2.1,1.9-2.1C240.7,61.3,241.4,62.1,241.4,63.3z
			 M238.3,63.3c0,0.8,0.5,1.5,1.2,1.5c0.7,0,1.2-0.6,1.2-1.5c0-0.7-0.3-1.5-1.2-1.5C238.7,61.8,238.3,62.6,238.3,63.3z"/>
		<path d="M242.4,65.3v-3.3h-0.5v-0.5h0.5v-0.2c0-0.5,0.1-1,0.4-1.4c0.3-0.3,0.6-0.4,0.9-0.4c0.3,0,0.5,0.1,0.6,0.1l-0.1,0.5
			c-0.1,0-0.2-0.1-0.5-0.1c-0.6,0-0.8,0.5-0.8,1.1v0.2h0.9v0.5h-0.9v3.3H242.4z"/>
		<path d="M249.1,65.1c-0.2,0.1-0.6,0.2-1.1,0.2c-1.2,0-1.9-0.8-1.9-2c0-1.2,0.8-2.1,2.1-2.1c0.4,0,0.8,0.1,1,0.2l-0.2,0.5
			c-0.2-0.1-0.4-0.2-0.8-0.2c-0.9,0-1.4,0.7-1.4,1.5c0,0.9,0.6,1.4,1.3,1.4c0.4,0,0.7-0.1,0.9-0.2L249.1,65.1z"/>
		<path d="M253.4,63.3c0,1.4-1,2.1-1.9,2.1c-1,0-1.9-0.8-1.9-2c0-1.3,0.9-2.1,1.9-2.1C252.7,61.3,253.4,62.1,253.4,63.3z
			 M250.3,63.3c0,0.8,0.5,1.5,1.2,1.5c0.7,0,1.2-0.6,1.2-1.5c0-0.7-0.3-1.5-1.2-1.5C250.7,61.8,250.3,62.6,250.3,63.3z"/>
		<path d="M257.5,64.2c0,0.4,0,0.8,0,1.1h-0.6l0-0.6h0c-0.2,0.3-0.6,0.7-1.3,0.7c-0.6,0-1.3-0.3-1.3-1.7v-2.3h0.7v2.1
			c0,0.7,0.2,1.2,0.9,1.2c0.5,0,0.8-0.3,0.9-0.6c0-0.1,0.1-0.2,0.1-0.4v-2.4h0.7V64.2z"/>
		<path d="M258.7,62.4c0-0.4,0-0.7,0-1h0.6l0,0.6h0c0.2-0.4,0.6-0.7,1.3-0.7c0.5,0,1.4,0.3,1.4,1.6v2.3h-0.7V63
			c0-0.6-0.2-1.1-0.9-1.1c-0.5,0-0.8,0.3-0.9,0.7c0,0.1,0,0.2,0,0.3v2.3h-0.7V62.4z"/>
		<path d="M264,60.3v1.1h1v0.5h-1V64c0,0.5,0.1,0.8,0.5,0.8c0.2,0,0.3,0,0.4-0.1l0,0.5c-0.1,0.1-0.4,0.1-0.6,0.1
			c-0.3,0-0.6-0.1-0.8-0.3c-0.2-0.2-0.3-0.6-0.3-1v-2.1h-0.6v-0.5h0.6v-0.9L264,60.3z"/>
	</g>
</g>
<g>
	<g>
		<path d="M217.2,74.6c0.3,0.2,0.8,0.3,1.2,0.3c0.7,0,1.1-0.4,1.1-0.9c0-0.5-0.3-0.8-1-1.1c-0.9-0.3-1.4-0.8-1.4-1.5
			c0-0.8,0.7-1.5,1.7-1.5c0.5,0,1,0.1,1.2,0.3l-0.2,0.6c-0.2-0.1-0.5-0.3-1-0.3c-0.7,0-1,0.4-1,0.8c0,0.5,0.3,0.7,1.1,1
			c0.9,0.4,1.4,0.8,1.4,1.6c0,0.8-0.6,1.6-1.9,1.6c-0.5,0-1.1-0.2-1.4-0.4L217.2,74.6z"/>
		<path d="M221.3,69.8h0.7v2.4h0c0.1-0.2,0.3-0.4,0.5-0.5c0.2-0.1,0.5-0.2,0.7-0.2c0.5,0,1.3,0.3,1.3,1.7v2.3h-0.7v-2.2
			c0-0.6-0.2-1.1-0.9-1.1c-0.5,0-0.8,0.3-0.9,0.7c0,0.1,0,0.2,0,0.3v2.3h-0.7V69.8z"/>
		<path d="M227.8,75.4l-0.1-0.5h0c-0.2,0.3-0.6,0.6-1.2,0.6c-0.8,0-1.2-0.6-1.2-1.1c0-0.9,0.8-1.5,2.3-1.4v-0.1
			c0-0.3-0.1-0.9-0.9-0.9c-0.4,0-0.7,0.1-1,0.3l-0.2-0.5c0.3-0.2,0.8-0.3,1.3-0.3c1.2,0,1.5,0.8,1.5,1.6v1.4c0,0.3,0,0.7,0.1,0.9
			H227.8z M227.7,73.5c-0.8,0-1.6,0.1-1.6,0.9c0,0.5,0.3,0.7,0.7,0.7c0.5,0,0.8-0.3,0.9-0.6c0-0.1,0-0.2,0-0.2V73.5z"/>
		<path d="M229.5,72.8c0-0.5,0-0.8,0-1.2h0.6l0,0.8h0c0.2-0.5,0.6-0.8,1.1-0.8c0.1,0,0.1,0,0.2,0v0.7c-0.1,0-0.1,0-0.2,0
			c-0.5,0-0.8,0.4-0.9,0.9c0,0.1,0,0.2,0,0.3v2.1h-0.7V72.8z"/>
		<path d="M232.6,73.6c0,1,0.6,1.3,1.3,1.3c0.5,0,0.8-0.1,1.1-0.2l0.1,0.5c-0.2,0.1-0.7,0.2-1.3,0.2c-1.2,0-1.9-0.8-1.9-2
			c0-1.2,0.7-2.1,1.8-2.1c1.3,0,1.6,1.1,1.6,1.8c0,0.1,0,0.3,0,0.3H232.6z M234.6,73.1c0-0.4-0.2-1.1-1-1.1c-0.7,0-1,0.6-1.1,1.1
			H234.6z"/>
		<path d="M241.4,73.5c0,1.4-1,2.1-1.9,2.1c-1,0-1.9-0.8-1.9-2c0-1.3,0.9-2.1,1.9-2.1C240.6,71.5,241.4,72.3,241.4,73.5z
			 M238.3,73.5c0,0.8,0.5,1.5,1.2,1.5c0.7,0,1.2-0.6,1.2-1.5c0-0.7-0.3-1.5-1.2-1.5C238.7,72,238.3,72.8,238.3,73.5z"/>
		<path d="M242.3,75.4v-3.3h-0.5v-0.5h0.5v-0.2c0-0.5,0.1-1,0.4-1.4c0.3-0.3,0.6-0.4,0.9-0.4c0.3,0,0.5,0.1,0.6,0.1l-0.1,0.5
			c-0.1,0-0.2-0.1-0.5-0.1c-0.6,0-0.8,0.5-0.8,1.1v0.2h0.9v0.5H243v3.3H242.3z"/>
		<path d="M246.3,72.8c0-0.5,0-0.9,0-1.3h0.6l0,0.7h0c0.3-0.5,0.7-0.7,1.4-0.7c0.9,0,1.6,0.8,1.6,2c0,1.4-0.9,2.1-1.8,2.1
			c-0.5,0-1-0.2-1.2-0.6h0V77h-0.7V72.8z M247,73.9c0,0.1,0,0.2,0,0.3c0.1,0.5,0.6,0.8,1.1,0.8c0.7,0,1.2-0.6,1.2-1.5
			c0-0.8-0.4-1.4-1.1-1.4c-0.5,0-0.9,0.3-1.1,0.9c0,0.1,0,0.2,0,0.3V73.9z"/>
		<path d="M250.8,69.8h0.7v5.7h-0.7V69.8z"/>
		<path d="M254.9,75.4l-0.1-0.5h0c-0.2,0.3-0.6,0.6-1.2,0.6c-0.8,0-1.2-0.6-1.2-1.1c0-0.9,0.8-1.5,2.3-1.4v-0.1
			c0-0.3-0.1-0.9-0.9-0.9c-0.4,0-0.7,0.1-1,0.3l-0.2-0.5c0.3-0.2,0.8-0.3,1.3-0.3c1.2,0,1.5,0.8,1.5,1.6v1.4c0,0.3,0,0.7,0.1,0.9
			H254.9z M254.8,73.5c-0.8,0-1.6,0.1-1.6,0.9c0,0.5,0.3,0.7,0.7,0.7c0.5,0,0.8-0.3,0.9-0.6c0-0.1,0-0.2,0-0.2V73.5z"/>
		<path d="M256.6,72.6c0-0.4,0-0.7,0-1h0.6l0,0.6h0c0.2-0.4,0.6-0.7,1.3-0.7c0.5,0,1.4,0.3,1.4,1.6v2.3h-0.7v-2.2
			c0-0.6-0.2-1.1-0.9-1.1c-0.5,0-0.8,0.3-0.9,0.7c0,0.1,0,0.2,0,0.3v2.3h-0.7V72.6z"/>
		<path d="M261.9,70.5v1.1h1v0.5h-1v2.1c0,0.5,0.1,0.8,0.5,0.8c0.2,0,0.3,0,0.4-0.1l0,0.5c-0.1,0.1-0.4,0.1-0.6,0.1
			c-0.3,0-0.6-0.1-0.8-0.3c-0.2-0.2-0.3-0.6-0.3-1v-2.1h-0.6v-0.5h0.6v-0.9L261.9,70.5z"/>
		<path d="M267.5,75.4l-0.1-0.5h0c-0.2,0.3-0.6,0.6-1.2,0.6c-0.8,0-1.2-0.6-1.2-1.1c0-0.9,0.8-1.5,2.3-1.4v-0.1
			c0-0.3-0.1-0.9-0.9-0.9c-0.4,0-0.7,0.1-1,0.3l-0.2-0.5c0.3-0.2,0.8-0.3,1.3-0.3c1.2,0,1.5,0.8,1.5,1.6v1.4c0,0.3,0,0.7,0.1,0.9
			H267.5z M267.4,73.5c-0.8,0-1.6,0.1-1.6,0.9c0,0.5,0.3,0.7,0.7,0.7c0.5,0,0.8-0.3,0.9-0.6c0-0.1,0-0.2,0-0.2V73.5z"/>
		<path d="M269.2,72.8c0-0.5,0-0.8,0-1.2h0.6l0,0.8h0c0.2-0.5,0.6-0.8,1.1-0.8c0.1,0,0.1,0,0.2,0v0.7c-0.1,0-0.1,0-0.2,0
			c-0.5,0-0.8,0.4-0.9,0.9c0,0.1,0,0.2,0,0.3v2.1h-0.7V72.8z"/>
		<path d="M272.2,73.6c0,1,0.6,1.3,1.3,1.3c0.5,0,0.8-0.1,1.1-0.2l0.1,0.5c-0.2,0.1-0.7,0.2-1.3,0.2c-1.2,0-1.9-0.8-1.9-2
			c0-1.2,0.7-2.1,1.8-2.1c1.3,0,1.6,1.1,1.6,1.8c0,0.1,0,0.3,0,0.3H272.2z M274.3,73.1c0-0.4-0.2-1.1-1-1.1c-0.7,0-1,0.6-1.1,1.1
			H274.3z"/>
		<path d="M278,75.4l-0.1-0.5h0c-0.2,0.3-0.6,0.6-1.2,0.6c-0.8,0-1.2-0.6-1.2-1.1c0-0.9,0.8-1.5,2.3-1.4v-0.1c0-0.3-0.1-0.9-0.9-0.9
			c-0.4,0-0.7,0.1-1,0.3l-0.2-0.5c0.3-0.2,0.8-0.3,1.3-0.3c1.2,0,1.5,0.8,1.5,1.6v1.4c0,0.3,0,0.7,0.1,0.9H278z M277.9,73.5
			c-0.8,0-1.6,0.1-1.6,0.9c0,0.5,0.3,0.7,0.7,0.7c0.5,0,0.8-0.3,0.9-0.6c0-0.1,0-0.2,0-0.2V73.5z"/>
	</g>
</g>
<g>
	<g>
		<path class="st10" d="M38.7,141.6h-2.1v1.9H39v0.6h-3v-5.4h2.9v0.6h-2.2v1.7h2.1V141.6z"/>
		<path class="st10" d="M42,144.1l-0.1-0.5h0c-0.2,0.3-0.6,0.6-1.2,0.6c-0.8,0-1.2-0.6-1.2-1.1c0-0.9,0.8-1.5,2.3-1.4v-0.1
			c0-0.3-0.1-0.9-0.9-0.9c-0.4,0-0.7,0.1-1,0.3l-0.2-0.5c0.3-0.2,0.8-0.3,1.3-0.3c1.2,0,1.5,0.8,1.5,1.6v1.4c0,0.3,0,0.7,0.1,0.9H42
			z M41.9,142.1c-0.8,0-1.6,0.1-1.6,0.9c0,0.5,0.3,0.7,0.7,0.7c0.5,0,0.8-0.3,0.9-0.6c0-0.1,0-0.2,0-0.2V142.1z"/>
		<path class="st10" d="M43.6,143.4c0.2,0.1,0.6,0.3,0.9,0.3c0.5,0,0.8-0.3,0.8-0.6c0-0.3-0.2-0.5-0.7-0.7c-0.7-0.3-1-0.6-1-1.1
			c0-0.6,0.5-1.1,1.3-1.1c0.4,0,0.7,0.1,0.9,0.2l-0.2,0.5c-0.1-0.1-0.4-0.2-0.8-0.2c-0.4,0-0.6,0.2-0.6,0.5c0,0.3,0.2,0.5,0.7,0.7
			c0.7,0.2,1,0.6,1,1.2c0,0.7-0.5,1.2-1.4,1.2c-0.4,0-0.8-0.1-1.1-0.3L43.6,143.4z"/>
		<path class="st10" d="M47.7,139.1v1.1h1v0.5h-1v2.1c0,0.5,0.1,0.8,0.5,0.8c0.2,0,0.3,0,0.4-0.1l0,0.5c-0.1,0.1-0.4,0.1-0.6,0.1
			c-0.3,0-0.6-0.1-0.8-0.3c-0.2-0.2-0.3-0.6-0.3-1v-2.1h-0.6v-0.5H47v-0.9L47.7,139.1z"/>
		<path class="st10" d="M49.9,142.3c0,1,0.6,1.3,1.3,1.3c0.5,0,0.8-0.1,1.1-0.2l0.1,0.5c-0.2,0.1-0.7,0.2-1.3,0.2
			c-1.2,0-1.9-0.8-1.9-2c0-1.2,0.7-2.1,1.8-2.1c1.3,0,1.6,1.1,1.6,1.8c0,0.1,0,0.3,0,0.3H49.9z M52,141.8c0-0.4-0.2-1.1-1-1.1
			c-0.7,0-1,0.6-1.1,1.1H52z"/>
		<path class="st10" d="M53.5,141.4c0-0.5,0-0.8,0-1.2h0.6l0,0.8h0c0.2-0.5,0.6-0.8,1.1-0.8c0.1,0,0.1,0,0.2,0v0.7
			c-0.1,0-0.1,0-0.2,0c-0.5,0-0.8,0.4-0.9,0.9c0,0.1,0,0.2,0,0.3v2.1h-0.7V141.4z"/>
		<path class="st10" d="M56.1,141.3c0-0.4,0-0.7,0-1h0.6l0,0.6h0c0.2-0.4,0.6-0.7,1.3-0.7c0.5,0,1.4,0.3,1.4,1.6v2.3h-0.7v-2.2
			c0-0.6-0.2-1.1-0.9-1.1c-0.5,0-0.8,0.3-0.9,0.7c0,0.1,0,0.2,0,0.3v2.3h-0.7V141.3z"/>
		<path class="st10" d="M62.3,138.4H63v2.4h0c0.1-0.2,0.3-0.4,0.5-0.5c0.2-0.1,0.5-0.2,0.7-0.2c0.5,0,1.3,0.3,1.3,1.7v2.3h-0.7v-2.2
			c0-0.6-0.2-1.1-0.9-1.1c-0.5,0-0.8,0.3-0.9,0.7c0,0.1,0,0.2,0,0.3v2.3h-0.7V138.4z"/>
		<path class="st10" d="M67.1,142.3c0,1,0.6,1.3,1.3,1.3c0.5,0,0.8-0.1,1.1-0.2l0.1,0.5c-0.2,0.1-0.7,0.2-1.3,0.2
			c-1.2,0-1.9-0.8-1.9-2c0-1.2,0.7-2.1,1.8-2.1c1.3,0,1.6,1.1,1.6,1.8c0,0.1,0,0.3,0,0.3H67.1z M69.2,141.8c0-0.4-0.2-1.1-1-1.1
			c-0.7,0-1,0.6-1.1,1.1H69.2z"/>
		<path class="st10" d="M70.7,141.3c0-0.4,0-0.7,0-1h0.6l0,0.6h0c0.2-0.4,0.6-0.7,1.2-0.7c0.5,0,0.9,0.3,1.1,0.8h0
			c0.1-0.2,0.3-0.4,0.4-0.5c0.2-0.2,0.5-0.3,0.9-0.3c0.5,0,1.3,0.3,1.3,1.7v2.3h-0.7v-2.2c0-0.7-0.3-1.2-0.8-1.2
			c-0.4,0-0.7,0.3-0.8,0.6c0,0.1-0.1,0.2-0.1,0.4v2.4h-0.7v-2.3c0-0.6-0.3-1.1-0.8-1.1c-0.4,0-0.8,0.4-0.9,0.7
			c0,0.1-0.1,0.2-0.1,0.3v2.3h-0.7V141.3z"/>
		<path class="st10" d="M77.4,138.4h0.7v5.7h-0.7V138.4z"/>
		<path class="st10" d="M82.8,142.1c0,1.4-1,2.1-1.9,2.1c-1,0-1.9-0.8-1.9-2c0-1.3,0.9-2.1,1.9-2.1C82,140.2,82.8,141,82.8,142.1z
			 M79.7,142.2c0,0.8,0.5,1.5,1.2,1.5c0.7,0,1.2-0.6,1.2-1.5c0-0.7-0.3-1.5-1.2-1.5C80.1,140.7,79.7,141.5,79.7,142.2z"/>
		<path class="st10" d="M86.4,144c-0.2,0.1-0.6,0.2-1.1,0.2c-1.2,0-1.9-0.8-1.9-2c0-1.2,0.8-2.1,2.1-2.1c0.4,0,0.8,0.1,1,0.2
			l-0.2,0.5c-0.2-0.1-0.4-0.2-0.8-0.2c-0.9,0-1.4,0.7-1.4,1.5c0,0.9,0.6,1.4,1.3,1.4c0.4,0,0.7-0.1,0.9-0.2L86.4,144z"/>
		<path class="st10" d="M88,142L88,142c0.1-0.1,0.2-0.3,0.4-0.4l1.1-1.3h0.8l-1.5,1.6l1.7,2.3h-0.9l-1.3-1.9l-0.4,0.4v1.5h-0.7v-5.7
			H88V142z"/>
	</g>
</g>
<line class="st17" x1="44.5" y1="100.5" x2="45.3" y2="134.6"/>
<line class="st17" x1="63.1" y1="129" x2="45.3" y2="134.6"/>
</svg>
