<?xml version="1.0" encoding="utf-8"?>
<!-- Generator: Adobe Illustrator 28.2.0, SVG Export Plug-In . SVG Version: 6.00 Build 0)  -->
<svg version="1.1" id="Layer_1" xmlns="http://www.w3.org/2000/svg" xmlns:xlink="http://www.w3.org/1999/xlink" x="0px" y="0px"
	 viewBox="0 0 288 240.1" style="enable-background:new 0 0 288 240.1;" xml:space="preserve">
<style type="text/css">
	.st0{fill:none;}
	.st1{clip-path:url(#SVGID_00000127024466119629869130000016643725814151378346_);}
	.st2{fill:none;stroke:#BEBEBE;stroke-width:1.07;stroke-linejoin:round;stroke-miterlimit:10;}
	.st3{fill:none;stroke:#ADD8E6;stroke-width:2.13;stroke-linejoin:round;stroke-miterlimit:10;}
	.st4{fill:none;stroke:#90EE90;stroke-width:2.13;stroke-linejoin:round;stroke-miterlimit:10;}
	.st5{fill:#ADD8E6;stroke:#ADD8E6;stroke-width:0.71;stroke-linecap:round;stroke-linejoin:round;stroke-miterlimit:10;}
	.st6{fill:#90EE90;stroke:#90EE90;stroke-width:0.71;stroke-linecap:round;stroke-linejoin:round;stroke-miterlimit:10;}
	.st7{fill:none;stroke:#0000FF;stroke-width:1.07;stroke-linecap:round;stroke-linejoin:round;stroke-miterlimit:10;}
	.st8{fill:#0000FF;}
	.st9{font-family:'ArialMT';}
	.st10{font-size:11.04px;}
	.st11{clip-path:url(#SVGID_00000126287397036412938370000006072696440973810094_);}
	.st12{fill:#4D4D4D;}
	.st13{font-size:8.8px;}
	.st14{fill:none;stroke:#6091A0;stroke-width:2.13;stroke-linejoin:round;stroke-miterlimit:10;}
	.st15{fill:none;stroke:#65AA81;stroke-width:2.13;stroke-linejoin:round;stroke-miterlimit:10;}
	.st16{fill:#414242;}
</style>
<rect y="-47.9" class="st0" width="288" height="288"/>
<g>
	<defs>
		<rect id="SVGID_1_" y="-47.9" width="288" height="288"/>
	</defs>
	<clipPath id="SVGID_00000170241301416218025820000007491125254349873330_">
		<use xlink:href="#SVGID_1_"  style="overflow:visible;"/>
	</clipPath>
</g>
<g>
	<defs>
		<rect id="SVGID_00000048478353264369083660000007544585671148157590_" x="32.2" y="-16.2" width="250.3" height="224.6"/>
	</defs>
	<clipPath id="SVGID_00000070077513803986010180000013794561149089778364_">
		<use xlink:href="#SVGID_00000048478353264369083660000007544585671148157590_"  style="overflow:visible;"/>
	</clipPath>
	<g style="clip-path:url(#SVGID_00000070077513803986010180000013794561149089778364_);">
		<line class="st2" x1="32.2" y1="207.4" x2="282.5" y2="207.4"/>
		<line class="st2" x1="32.2" y1="146.4" x2="282.5" y2="146.4"/>
		<line class="st2" x1="32.2" y1="85.5" x2="282.5" y2="85.5"/>
		<line class="st2" x1="32.2" y1="24.5" x2="282.5" y2="24.5"/>
		<polyline class="st3" points="44.5,67.2 65,128.2 85.5,128.8 106.1,131.2 126.6,146.4 147.1,152.5 167.6,158.6 188.1,167.8 
			208.6,176.9 229.2,183 249.7,189.1 270.2,195.2 		"/>
		<polyline class="st4" points="44.5,97.7 65,122.1 85.5,119 106.1,120.2 126.6,152.5 147.1,155.6 167.6,176.9 188.1,180 208.6,183 
			229.2,184.2 249.7,195.2 270.2,198.3 		"/>
		<circle class="st5" cx="44.5" cy="67.2" r="1.9"/>
		<circle class="st5" cx="65" cy="128.2" r="1.9"/>
		<circle class="st5" cx="85.5" cy="128.8" r="1.9"/>
		<circle class="st5" cx="106.1" cy="131.2" r="1.9"/>
		<circle class="st5" cx="126.6" cy="146.4" r="1.9"/>
		<circle class="st5" cx="147.1" cy="152.5" r="1.9"/>
		<circle class="st5" cx="167.6" cy="158.6" r="1.9"/>
		<circle class="st5" cx="188.1" cy="167.8" r="1.9"/>
		<circle class="st5" cx="208.6" cy="176.9" r="1.9"/>
		<circle class="st5" cx="229.2" cy="183" r="1.9"/>
		<circle class="st5" cx="249.7" cy="189.1" r="1.9"/>
		<circle class="st5" cx="270.2" cy="195.2" r="2"/>
		<circle class="st6" cx="44.5" cy="97.7" r="1.9"/>
		<circle class="st6" cx="65" cy="122.1" r="1.9"/>
		<circle class="st6" cx="85.5" cy="119" r="1.9"/>
		<circle class="st6" cx="106.1" cy="120.2" r="1.9"/>
		<circle class="st6" cx="126.6" cy="152.5" r="1.9"/>
		<circle class="st6" cx="147.1" cy="155.6" r="1.9"/>
		<circle class="st6" cx="167.6" cy="176.9" r="1.9"/>
		<circle class="st6" cx="188.1" cy="180" r="1.9"/>
		<circle class="st6" cx="208.6" cy="183" r="1.9"/>
		<circle class="st6" cx="229.2" cy="184.2" r="1.9"/>
		<circle class="st6" cx="249.7" cy="195.2" r="2"/>
		<circle class="st6" cx="270.2" cy="198.3" r="2"/>
		<path class="st7" d="M86.2,129.6"/>
		<path class="st7" d="M99.5,146.1"/>
		<path class="st7" d="M86.1,118"/>
		<path class="st7" d="M97.7,96.5"/>
		<text transform="matrix(1 0 0 1 41.2364 62.5157)" class="st8 st9 st10">Oaks</text>
	</g>
</g>
<g>
	<defs>
		<rect id="SVGID_00000083080705010729831590000010408751667005297840_" y="-47.9" width="288" height="288"/>
	</defs>
	<clipPath id="SVGID_00000079467175248784821560000016871530002303942022_">
		<use xlink:href="#SVGID_00000083080705010729831590000010408751667005297840_"  style="overflow:visible;"/>
	</clipPath>
	<g style="clip-path:url(#SVGID_00000079467175248784821560000016871530002303942022_);">
		<rect x="10.4" y="203" class="st0" width="4.9" height="10.4"/>
		<text transform="matrix(1 0 0 1 10.376 210.5656)" class="st12 st9 st13">0</text>
		<rect x="5.5" y="142" class="st0" width="9.8" height="10.4"/>
		<text transform="matrix(1 0 0 1 5.4819 149.5959)" class="st12 st9 st13">10</text>
		<rect x="5.5" y="81.1" class="st0" width="9.8" height="10.4"/>
		<text transform="matrix(1 0 0 1 5.4819 88.636)" class="st12 st9 st13">20</text>
		<rect x="5.5" y="20.1" class="st0" width="9.8" height="10.4"/>
		<text transform="matrix(1 0 0 1 5.4819 27.6657)" class="st12 st9 st13">30 </text>
		<rect x="42.1" y="212.2" class="st0" width="4.9" height="10.4"/>
		<text transform="matrix(1 0 0 1 42.0527 219.7155)" class="st12 st9 st13">1</text>
		<rect x="62.6" y="212.2" class="st0" width="4.9" height="10.4"/>
		<text transform="matrix(1 0 0 1 62.5728 219.7155)" class="st12 st9 st13">2</text>
		<rect x="83.1" y="212.2" class="st0" width="4.9" height="10.4"/>
		<text transform="matrix(1 0 0 1 83.083 219.7155)" class="st12 st9 st13">3</text>
		<rect x="103.6" y="212.2" class="st0" width="4.9" height="10.4"/>
		<text transform="matrix(1 0 0 1 103.603 219.7155)" class="st12 st9 st13">4</text>
		<rect x="124.1" y="212.2" class="st0" width="4.9" height="10.4"/>
		<text transform="matrix(1 0 0 1 124.123 219.7155)" class="st12 st9 st13">5</text>
		<rect x="144.6" y="212.2" class="st0" width="4.9" height="10.4"/>
		<text transform="matrix(1 0 0 1 144.6431 219.7155)" class="st12 st9 st13">6</text>
		<rect x="165.2" y="212.2" class="st0" width="4.9" height="10.4"/>
		<text transform="matrix(1 0 0 1 165.1631 219.7155)" class="st12 st9 st13">7</text>
		<rect x="185.7" y="212.2" class="st0" width="4.9" height="10.4"/>
		<text transform="matrix(1 0 0 1 185.6831 219.7155)" class="st12 st9 st13">8</text>
		<rect x="206.2" y="212.2" class="st0" width="4.9" height="10.4"/>
		<text transform="matrix(1 0 0 1 206.2031 219.7155)" class="st12 st9 st13">9</text>
		<rect x="224.3" y="212.2" class="st0" width="9.8" height="10.4"/>
		<text transform="matrix(1 0 0 1 224.2759 219.7155)" class="st12 st9 st13">10</text>
		<rect x="245.1" y="212.2" class="st0" width="9.8" height="10.4"/>
		<text transform="matrix(1 0 0 1 245.1226 219.7155)" class="st12 st9 st13">11</text>
		<rect x="265.3" y="212.2" class="st0" width="9.8" height="10.4"/>
		<text transform="matrix(1 0 0 1 265.3159 219.7155)" class="st12 st9 st13">12</text>
	</g>
</g>
<g>
	<g>
	</g>
</g>
<line class="st14" x1="206.1" y1="69.2" x2="218" y2="69.2"/>
<line class="st15" x1="206.6" y1="59" x2="218.4" y2="59"/>
<g>
	<g>
		<path d="M222.4,61.1c0.3,0.2,0.8,0.3,1.2,0.3c0.7,0,1.1-0.4,1.1-0.9c0-0.5-0.3-0.8-1-1.1c-0.9-0.3-1.4-0.8-1.4-1.5
			c0-0.8,0.7-1.5,1.7-1.5c0.5,0,1,0.1,1.2,0.3l-0.2,0.6c-0.2-0.1-0.5-0.3-1-0.3c-0.7,0-1,0.4-1,0.8c0,0.5,0.3,0.7,1.1,1
			c0.9,0.4,1.4,0.8,1.4,1.6c0,0.8-0.6,1.6-1.9,1.6c-0.5,0-1.1-0.2-1.4-0.4L222.4,61.1z"/>
		<path d="M226.4,56.3h0.7v2.4h0c0.1-0.2,0.3-0.4,0.5-0.5c0.2-0.1,0.5-0.2,0.7-0.2c0.5,0,1.3,0.3,1.3,1.7V62H229v-2.2
			c0-0.6-0.2-1.1-0.9-1.1c-0.5,0-0.8,0.3-0.9,0.7c0,0.1,0,0.2,0,0.3V62h-0.7V56.3z"/>
		<path d="M233,62l-0.1-0.5h0c-0.2,0.3-0.6,0.6-1.2,0.6c-0.8,0-1.2-0.6-1.2-1.1c0-0.9,0.8-1.5,2.3-1.4v-0.1c0-0.3-0.1-0.9-0.9-0.9
			c-0.4,0-0.7,0.1-1,0.3l-0.2-0.5c0.3-0.2,0.8-0.3,1.3-0.3c1.2,0,1.5,0.8,1.5,1.6V61c0,0.3,0,0.7,0.1,0.9H233z M232.9,60
			c-0.8,0-1.6,0.1-1.6,0.9c0,0.5,0.3,0.7,0.7,0.7c0.5,0,0.8-0.3,0.9-0.6c0-0.1,0-0.2,0-0.2V60z"/>
		<path d="M234.7,59.3c0-0.5,0-0.8,0-1.2h0.6l0,0.8h0c0.2-0.5,0.6-0.8,1.1-0.8c0.1,0,0.1,0,0.2,0v0.7c-0.1,0-0.1,0-0.2,0
			c-0.5,0-0.8,0.4-0.9,0.9c0,0.1,0,0.2,0,0.3V62h-0.7V59.3z"/>
		<path d="M237.7,60.2c0,1,0.6,1.3,1.3,1.3c0.5,0,0.8-0.1,1.1-0.2l0.1,0.5c-0.2,0.1-0.7,0.2-1.3,0.2c-1.2,0-1.9-0.8-1.9-2
			c0-1.2,0.7-2.1,1.8-2.1c1.3,0,1.6,1.1,1.6,1.8c0,0.1,0,0.3,0,0.3H237.7z M239.8,59.7c0-0.4-0.2-1.1-1-1.1c-0.7,0-1,0.6-1.1,1.1
			H239.8z"/>
		<path d="M246.5,60c0,1.4-1,2.1-1.9,2.1c-1,0-1.9-0.8-1.9-2c0-1.3,0.9-2.1,1.9-2.1C245.8,58,246.5,58.8,246.5,60z M243.5,60
			c0,0.8,0.5,1.5,1.2,1.5c0.7,0,1.2-0.6,1.2-1.5c0-0.7-0.3-1.5-1.2-1.5C243.8,58.5,243.5,59.3,243.5,60z"/>
		<path d="M247.5,62v-3.3H247v-0.5h0.5v-0.2c0-0.5,0.1-1,0.4-1.4c0.3-0.3,0.6-0.4,0.9-0.4c0.3,0,0.5,0.1,0.6,0.1l-0.1,0.5
			c-0.1,0-0.2-0.1-0.5-0.1c-0.6,0-0.8,0.5-0.8,1.1v0.2h0.9v0.5h-0.9V62H247.5z"/>
		<path d="M254.2,61.8c-0.2,0.1-0.6,0.2-1.1,0.2c-1.2,0-1.9-0.8-1.9-2c0-1.2,0.8-2.1,2.1-2.1c0.4,0,0.8,0.1,1,0.2l-0.2,0.5
			c-0.2-0.1-0.4-0.2-0.8-0.2c-0.9,0-1.4,0.7-1.4,1.5c0,0.9,0.6,1.4,1.3,1.4c0.4,0,0.7-0.1,0.9-0.2L254.2,61.8z"/>
		<path d="M258.6,60c0,1.4-1,2.1-1.9,2.1c-1,0-1.9-0.8-1.9-2c0-1.3,0.9-2.1,1.9-2.1C257.8,58,258.6,58.8,258.6,60z M255.5,60
			c0,0.8,0.5,1.5,1.2,1.5c0.7,0,1.2-0.6,1.2-1.5c0-0.7-0.3-1.5-1.2-1.5C255.8,58.5,255.5,59.3,255.5,60z"/>
		<path d="M262.7,60.9c0,0.4,0,0.8,0,1.1h-0.6l0-0.6h0c-0.2,0.3-0.6,0.7-1.3,0.7c-0.6,0-1.3-0.3-1.3-1.7v-2.3h0.7v2.1
			c0,0.7,0.2,1.2,0.9,1.2c0.5,0,0.8-0.3,0.9-0.6c0-0.1,0.1-0.2,0.1-0.4v-2.4h0.7V60.9z"/>
		<path d="M263.9,59.1c0-0.4,0-0.7,0-1h0.6l0,0.6h0c0.2-0.4,0.6-0.7,1.3-0.7c0.5,0,1.4,0.3,1.4,1.6V62h-0.7v-2.2
			c0-0.6-0.2-1.1-0.9-1.1c-0.5,0-0.8,0.3-0.9,0.7c0,0.1,0,0.2,0,0.3V62h-0.7V59.1z"/>
		<path d="M269.1,57v1.1h1v0.5h-1v2.1c0,0.5,0.1,0.8,0.5,0.8c0.2,0,0.3,0,0.4-0.1l0,0.5c-0.1,0.1-0.4,0.1-0.6,0.1
			c-0.3,0-0.6-0.1-0.8-0.3c-0.2-0.2-0.3-0.6-0.3-1v-2.1h-0.6v-0.5h0.6v-0.9L269.1,57z"/>
	</g>
</g>
<g>
	<g>
		<path d="M222.4,71.3c0.3,0.2,0.8,0.3,1.2,0.3c0.7,0,1.1-0.4,1.1-0.9c0-0.5-0.3-0.8-1-1.1c-0.9-0.3-1.4-0.8-1.4-1.5
			c0-0.8,0.7-1.5,1.7-1.5c0.5,0,1,0.1,1.2,0.3l-0.2,0.6c-0.2-0.1-0.5-0.3-1-0.3c-0.7,0-1,0.4-1,0.8c0,0.5,0.3,0.7,1.1,1
			c0.9,0.4,1.4,0.8,1.4,1.6c0,0.8-0.6,1.6-1.9,1.6c-0.5,0-1.1-0.2-1.4-0.4L222.4,71.3z"/>
		<path d="M226.4,66.5h0.7v2.4h0c0.1-0.2,0.3-0.4,0.5-0.5c0.2-0.1,0.5-0.2,0.7-0.2c0.5,0,1.3,0.3,1.3,1.7v2.3H229v-2.2
			c0-0.6-0.2-1.1-0.9-1.1c-0.5,0-0.8,0.3-0.9,0.7c0,0.1,0,0.2,0,0.3v2.3h-0.7V66.5z"/>
		<path d="M233,72.2l-0.1-0.5h0c-0.2,0.3-0.6,0.6-1.2,0.6c-0.8,0-1.2-0.6-1.2-1.1c0-0.9,0.8-1.5,2.3-1.4v-0.1c0-0.3-0.1-0.9-0.9-0.9
			c-0.4,0-0.7,0.1-1,0.3l-0.2-0.5c0.3-0.2,0.8-0.3,1.3-0.3c1.2,0,1.5,0.8,1.5,1.6v1.4c0,0.3,0,0.7,0.1,0.9H233z M232.9,70.2
			c-0.8,0-1.6,0.1-1.6,0.9c0,0.5,0.3,0.7,0.7,0.7c0.5,0,0.8-0.3,0.9-0.6c0-0.1,0-0.2,0-0.2V70.2z"/>
		<path d="M234.7,69.5c0-0.5,0-0.8,0-1.2h0.6l0,0.8h0c0.2-0.5,0.6-0.8,1.1-0.8c0.1,0,0.1,0,0.2,0v0.7c-0.1,0-0.1,0-0.2,0
			c-0.5,0-0.8,0.4-0.9,0.9c0,0.1,0,0.2,0,0.3v2.1h-0.7V69.5z"/>
		<path d="M237.7,70.4c0,1,0.6,1.3,1.3,1.3c0.5,0,0.8-0.1,1.1-0.2l0.1,0.5c-0.2,0.1-0.7,0.2-1.3,0.2c-1.2,0-1.9-0.8-1.9-2
			c0-1.2,0.7-2.1,1.8-2.1c1.3,0,1.6,1.1,1.6,1.8c0,0.1,0,0.3,0,0.3H237.7z M239.8,69.8c0-0.4-0.2-1.1-1-1.1c-0.7,0-1,0.6-1.1,1.1
			H239.8z"/>
		<path d="M246.5,70.2c0,1.4-1,2.1-1.9,2.1c-1,0-1.9-0.8-1.9-2c0-1.3,0.9-2.1,1.9-2.1C245.8,68.2,246.5,69,246.5,70.2z M243.4,70.2
			c0,0.8,0.5,1.5,1.2,1.5c0.7,0,1.2-0.6,1.2-1.5c0-0.7-0.3-1.5-1.2-1.5C243.8,68.7,243.4,69.5,243.4,70.2z"/>
		<path d="M247.5,72.2v-3.3h-0.5v-0.5h0.5v-0.2c0-0.5,0.1-1,0.4-1.4c0.3-0.3,0.6-0.4,0.9-0.4c0.3,0,0.5,0.1,0.6,0.1l-0.1,0.5
			c-0.1,0-0.2-0.1-0.5-0.1c-0.6,0-0.8,0.5-0.8,1.1v0.2h0.9v0.5h-0.9v3.3H247.5z"/>
		<path d="M251.4,69.6c0-0.5,0-0.9,0-1.3h0.6l0,0.7h0c0.3-0.5,0.7-0.7,1.4-0.7c0.9,0,1.6,0.8,1.6,2c0,1.4-0.9,2.1-1.8,2.1
			c-0.5,0-1-0.2-1.2-0.6h0v2.1h-0.7V69.6z M252.1,70.6c0,0.1,0,0.2,0,0.3c0.1,0.5,0.6,0.8,1.1,0.8c0.7,0,1.2-0.6,1.2-1.5
			c0-0.8-0.4-1.4-1.1-1.4c-0.5,0-0.9,0.3-1.1,0.9c0,0.1,0,0.2,0,0.3V70.6z"/>
		<path d="M256,66.5h0.7v5.7H256V66.5z"/>
		<path d="M260,72.2l-0.1-0.5h0c-0.2,0.3-0.6,0.6-1.2,0.6c-0.8,0-1.2-0.6-1.2-1.1c0-0.9,0.8-1.5,2.3-1.4v-0.1c0-0.3-0.1-0.9-0.9-0.9
			c-0.4,0-0.7,0.1-1,0.3l-0.2-0.5c0.3-0.2,0.8-0.3,1.3-0.3c1.2,0,1.5,0.8,1.5,1.6v1.4c0,0.3,0,0.7,0.1,0.9H260z M259.9,70.2
			c-0.8,0-1.6,0.1-1.6,0.9c0,0.5,0.3,0.7,0.7,0.7c0.5,0,0.8-0.3,0.9-0.6c0-0.1,0-0.2,0-0.2V70.2z"/>
		<path d="M261.7,69.3c0-0.4,0-0.7,0-1h0.6l0,0.6h0c0.2-0.4,0.6-0.7,1.3-0.7c0.5,0,1.4,0.3,1.4,1.6v2.3h-0.7v-2.2
			c0-0.6-0.2-1.1-0.9-1.1c-0.5,0-0.8,0.3-0.9,0.7c0,0.1,0,0.2,0,0.3v2.3h-0.7V69.3z"/>
		<path d="M267,67.2v1.1h1v0.5h-1v2.1c0,0.5,0.1,0.8,0.5,0.8c0.2,0,0.3,0,0.4-0.1l0,0.5c-0.1,0.1-0.4,0.1-0.6,0.1
			c-0.3,0-0.6-0.1-0.8-0.3c-0.2-0.2-0.3-0.6-0.3-1v-2.1h-0.6v-0.5h0.6v-0.9L267,67.2z"/>
		<path d="M272.7,72.2l-0.1-0.5h0c-0.2,0.3-0.6,0.6-1.2,0.6c-0.8,0-1.2-0.6-1.2-1.1c0-0.9,0.8-1.5,2.3-1.4v-0.1
			c0-0.3-0.1-0.9-0.9-0.9c-0.4,0-0.7,0.1-1,0.3l-0.2-0.5c0.3-0.2,0.8-0.3,1.3-0.3c1.2,0,1.5,0.8,1.5,1.6v1.4c0,0.3,0,0.7,0.1,0.9
			H272.7z M272.5,70.2c-0.8,0-1.6,0.1-1.6,0.9c0,0.5,0.3,0.7,0.7,0.7c0.5,0,0.8-0.3,0.9-0.6c0-0.1,0-0.2,0-0.2V70.2z"/>
		<path d="M274.4,69.5c0-0.5,0-0.8,0-1.2h0.6l0,0.8h0c0.2-0.5,0.6-0.8,1.1-0.8c0.1,0,0.1,0,0.2,0v0.7c-0.1,0-0.1,0-0.2,0
			c-0.5,0-0.8,0.4-0.9,0.9c0,0.1,0,0.2,0,0.3v2.1h-0.7V69.5z"/>
		<path d="M277.4,70.4c0,1,0.6,1.3,1.3,1.3c0.5,0,0.8-0.1,1.1-0.2l0.1,0.5c-0.2,0.1-0.7,0.2-1.3,0.2c-1.2,0-1.9-0.8-1.9-2
			c0-1.2,0.7-2.1,1.8-2.1c1.3,0,1.6,1.1,1.6,1.8c0,0.1,0,0.3,0,0.3H277.4z M279.4,69.8c0-0.4-0.2-1.1-1-1.1c-0.7,0-1,0.6-1.1,1.1
			H279.4z"/>
		<path d="M283.1,72.2l-0.1-0.5h0c-0.2,0.3-0.6,0.6-1.2,0.6c-0.8,0-1.2-0.6-1.2-1.1c0-0.9,0.8-1.5,2.3-1.4v-0.1
			c0-0.3-0.1-0.9-0.9-0.9c-0.4,0-0.7,0.1-1,0.3l-0.2-0.5c0.3-0.2,0.8-0.3,1.3-0.3c1.2,0,1.5,0.8,1.5,1.6v1.4c0,0.3,0,0.7,0.1,0.9
			H283.1z M283,70.2c-0.8,0-1.6,0.1-1.6,0.9c0,0.5,0.3,0.7,0.7,0.7c0.5,0,0.8-0.3,0.9-0.6c0-0.1,0-0.2,0-0.2V70.2z"/>
	</g>
</g>
<rect x="16.1" y="21.2" class="st0" width="9.8" height="10.4"/>
<text transform="matrix(1 0 0 1 16.1016 27.5359)" class="st12 st9 st13">%</text>
<g>
	<g>
		<path class="st16" d="M195.1,225.2c0.3-0.1,0.6-0.1,1-0.1c0.6,0,0.9,0.1,1.2,0.3c0.2,0.2,0.3,0.5,0.3,0.8c0,0.5-0.3,0.9-0.8,1v0
			c0.3,0.1,0.5,0.4,0.6,0.8c0.1,0.6,0.2,1,0.3,1.1h-0.5c-0.1-0.1-0.2-0.5-0.3-1c-0.1-0.6-0.3-0.8-0.8-0.8h-0.5v1.8h-0.5V225.2z
			 M195.7,227h0.5c0.6,0,0.9-0.3,0.9-0.8c0-0.5-0.4-0.8-0.9-0.8c-0.3,0-0.4,0-0.5,0V227z"/>
		<path class="st16" d="M199.9,229.2l0-0.4h0c-0.2,0.2-0.5,0.4-0.9,0.4c-0.6,0-0.9-0.4-0.9-0.8c0-0.7,0.6-1.1,1.7-1.1v-0.1
			c0-0.2-0.1-0.7-0.7-0.7c-0.3,0-0.6,0.1-0.8,0.2l-0.1-0.4c0.2-0.2,0.6-0.3,1-0.3c0.9,0,1.1,0.6,1.1,1.2v1.1c0,0.2,0,0.5,0,0.7
			H199.9z M199.9,227.7c-0.6,0-1.2,0.1-1.2,0.7c0,0.3,0.2,0.5,0.5,0.5c0.4,0,0.6-0.2,0.7-0.5c0-0.1,0-0.1,0-0.2V227.7z"/>
		<path class="st16" d="M201.2,227c0-0.3,0-0.5,0-0.8h0.5l0,0.5h0c0.1-0.3,0.5-0.5,1-0.5c0.4,0,1,0.2,1,1.2v1.7h-0.5v-1.7
			c0-0.5-0.2-0.9-0.7-0.9c-0.3,0-0.6,0.2-0.7,0.5c0,0.1,0,0.2,0,0.2v1.7h-0.5V227z"/>
		<path class="st16" d="M205.1,227.6L205.1,227.6c0.1-0.1,0.2-0.2,0.3-0.3l0.9-1h0.6l-1.1,1.2l1.3,1.7h-0.6l-1-1.4l-0.3,0.3v1.1
			h-0.5v-4.3h0.5V227.6z"/>
		<path class="st16" d="M209.8,225c-0.4,0.6-0.8,1.4-0.8,2.5c0,1.1,0.3,1.8,0.8,2.4h-0.4c-0.4-0.5-0.8-1.3-0.8-2.4
			c0-1.2,0.4-2,0.8-2.5H209.8z"/>
		<path class="st16" d="M210.3,228.6c0.2,0.1,0.4,0.2,0.7,0.2c0.4,0,0.6-0.2,0.6-0.4c0-0.3-0.2-0.4-0.5-0.5
			c-0.5-0.2-0.8-0.5-0.8-0.8c0-0.5,0.4-0.9,1-0.9c0.3,0,0.5,0.1,0.7,0.2l-0.1,0.4c-0.1-0.1-0.3-0.2-0.6-0.2c-0.3,0-0.5,0.2-0.5,0.4
			c0,0.2,0.2,0.3,0.6,0.5c0.5,0.2,0.8,0.4,0.8,0.9c0,0.5-0.4,0.9-1.1,0.9c-0.3,0-0.6-0.1-0.8-0.2L210.3,228.6z"/>
		<path class="st16" d="M213.4,225.4v0.8h0.8v0.4h-0.8v1.6c0,0.4,0.1,0.6,0.4,0.6c0.1,0,0.2,0,0.3,0l0,0.4c-0.1,0-0.3,0.1-0.5,0.1
			c-0.2,0-0.4-0.1-0.6-0.2c-0.1-0.2-0.2-0.4-0.2-0.8v-1.6h-0.4v-0.4h0.4v-0.7L213.4,225.4z"/>
		<path class="st16" d="M216.3,229.2l0-0.4h0c-0.2,0.2-0.5,0.4-0.9,0.4c-0.6,0-0.9-0.4-0.9-0.8c0-0.7,0.6-1.1,1.7-1.1v-0.1
			c0-0.2-0.1-0.7-0.7-0.7c-0.3,0-0.6,0.1-0.8,0.2l-0.1-0.4c0.2-0.2,0.6-0.3,1-0.3c0.9,0,1.1,0.6,1.1,1.2v1.1c0,0.2,0,0.5,0,0.7
			H216.3z M216.2,227.7c-0.6,0-1.2,0.1-1.2,0.7c0,0.3,0.2,0.5,0.5,0.5c0.4,0,0.6-0.2,0.7-0.5c0-0.1,0-0.1,0-0.2V227.7z"/>
		<path class="st16" d="M217.6,227.2c0-0.3,0-0.6,0-0.9h0.5l0,0.6h0c0.1-0.4,0.5-0.6,0.8-0.6c0.1,0,0.1,0,0.1,0v0.5
			c-0.1,0-0.1,0-0.2,0c-0.4,0-0.6,0.3-0.7,0.7c0,0.1,0,0.2,0,0.2v1.5h-0.5V227.2z"/>
		<path class="st16" d="M220.2,225.4v0.8h0.8v0.4h-0.8v1.6c0,0.4,0.1,0.6,0.4,0.6c0.1,0,0.2,0,0.3,0l0,0.4c-0.1,0-0.3,0.1-0.5,0.1
			c-0.2,0-0.4-0.1-0.6-0.2c-0.1-0.2-0.2-0.4-0.2-0.8v-1.6h-0.4v-0.4h0.4v-0.7L220.2,225.4z"/>
		<path class="st16" d="M222.1,225.4c0,0.2-0.1,0.3-0.3,0.3c-0.2,0-0.3-0.1-0.3-0.3c0-0.2,0.1-0.3,0.3-0.3
			C222,225.1,222.1,225.3,222.1,225.4z M221.6,229.2v-2.9h0.5v2.9H221.6z"/>
		<path class="st16" d="M223,227c0-0.3,0-0.5,0-0.8h0.5l0,0.5h0c0.1-0.3,0.5-0.5,1-0.5c0.4,0,1,0.2,1,1.2v1.7h-0.5v-1.7
			c0-0.5-0.2-0.9-0.7-0.9c-0.3,0-0.6,0.2-0.7,0.5c0,0.1,0,0.2,0,0.2v1.7H223V227z"/>
		<path class="st16" d="M228.8,226.3c0,0.2,0,0.4,0,0.8v1.7c0,0.7-0.1,1.1-0.4,1.3c-0.3,0.3-0.7,0.3-1.1,0.3c-0.4,0-0.7-0.1-1-0.2
			l0.1-0.4c0.2,0.1,0.5,0.2,0.9,0.2c0.5,0,0.9-0.3,0.9-1v-0.3h0c-0.2,0.3-0.5,0.5-0.9,0.5c-0.7,0-1.2-0.6-1.2-1.4
			c0-1,0.6-1.5,1.3-1.5c0.5,0,0.8,0.3,0.9,0.5h0l0-0.4H228.8z M228.2,227.4c0-0.1,0-0.2,0-0.2c-0.1-0.3-0.4-0.6-0.7-0.6
			c-0.5,0-0.9,0.4-0.9,1.1c0,0.6,0.3,1,0.9,1c0.3,0,0.6-0.2,0.7-0.5c0-0.1,0-0.2,0-0.3V227.4z"/>
		<path class="st16" d="M231,229.2v-2.5h-0.4v-0.4h0.4v-0.1c0-0.4,0.1-0.8,0.3-1c0.2-0.2,0.5-0.3,0.7-0.3c0.2,0,0.3,0,0.5,0.1
			l-0.1,0.4c-0.1,0-0.2-0.1-0.3-0.1c-0.4,0-0.6,0.4-0.6,0.8v0.2h0.7v0.4h-0.7v2.5H231z"/>
		<path class="st16" d="M232.7,227.2c0-0.3,0-0.6,0-0.9h0.5l0,0.6h0c0.1-0.4,0.5-0.6,0.8-0.6c0.1,0,0.1,0,0.1,0v0.5
			c-0.1,0-0.1,0-0.2,0c-0.4,0-0.6,0.3-0.7,0.7c0,0.1,0,0.2,0,0.2v1.5h-0.5V227.2z"/>
		<path class="st16" d="M237.3,227.7c0,1.1-0.7,1.5-1.4,1.5c-0.8,0-1.4-0.6-1.4-1.5c0-1,0.6-1.5,1.4-1.5
			C236.7,226.2,237.3,226.8,237.3,227.7z M235,227.7c0,0.6,0.4,1.1,0.9,1.1c0.5,0,0.9-0.5,0.9-1.1c0-0.5-0.2-1.1-0.9-1.1
			C235.2,226.6,235,227.2,235,227.7z"/>
		<path class="st16" d="M237.9,227c0-0.3,0-0.5,0-0.8h0.5l0,0.5h0c0.2-0.3,0.4-0.5,0.9-0.5c0.4,0,0.7,0.2,0.8,0.6h0
			c0.1-0.2,0.2-0.3,0.3-0.4c0.2-0.1,0.4-0.2,0.6-0.2c0.4,0,1,0.2,1,1.3v1.7h-0.5v-1.6c0-0.6-0.2-0.9-0.6-0.9c-0.3,0-0.5,0.2-0.6,0.5
			c0,0.1,0,0.2,0,0.3v1.8h-0.5v-1.7c0-0.5-0.2-0.8-0.6-0.8c-0.3,0-0.6,0.3-0.7,0.5c0,0.1,0,0.2,0,0.3v1.7h-0.5V227z"/>
		<path class="st16" d="M244.2,227c0-0.3,0-0.5,0-0.8h0.5l0,0.5h0c0.2-0.3,0.4-0.5,0.9-0.5c0.4,0,0.7,0.2,0.8,0.6h0
			c0.1-0.2,0.2-0.3,0.3-0.4c0.2-0.1,0.4-0.2,0.6-0.2c0.4,0,1,0.2,1,1.3v1.7h-0.5v-1.6c0-0.6-0.2-0.9-0.6-0.9c-0.3,0-0.5,0.2-0.6,0.5
			c0,0.1,0,0.2,0,0.3v1.8H246v-1.7c0-0.5-0.2-0.8-0.6-0.8c-0.3,0-0.6,0.3-0.7,0.5c0,0.1,0,0.2,0,0.3v1.7h-0.5V227z"/>
		<path class="st16" d="M251.8,227.7c0,1.1-0.7,1.5-1.4,1.5c-0.8,0-1.4-0.6-1.4-1.5c0-1,0.6-1.5,1.4-1.5
			C251.3,226.2,251.8,226.8,251.8,227.7z M249.5,227.7c0,0.6,0.4,1.1,0.9,1.1c0.5,0,0.9-0.5,0.9-1.1c0-0.5-0.2-1.1-0.9-1.1
			C249.8,226.6,249.5,227.2,249.5,227.7z"/>
		<path class="st16" d="M252.4,228.6c0.2,0.1,0.4,0.2,0.7,0.2c0.4,0,0.6-0.2,0.6-0.4c0-0.3-0.2-0.4-0.5-0.5
			c-0.5-0.2-0.8-0.5-0.8-0.8c0-0.5,0.4-0.9,1-0.9c0.3,0,0.5,0.1,0.7,0.2l-0.1,0.4c-0.1-0.1-0.3-0.2-0.6-0.2c-0.3,0-0.5,0.2-0.5,0.4
			c0,0.2,0.2,0.3,0.6,0.5c0.5,0.2,0.8,0.4,0.8,0.9c0,0.5-0.4,0.9-1.1,0.9c-0.3,0-0.6-0.1-0.8-0.2L252.4,228.6z"/>
		<path class="st16" d="M255.5,225.4v0.8h0.8v0.4h-0.8v1.6c0,0.4,0.1,0.6,0.4,0.6c0.1,0,0.2,0,0.3,0l0,0.4c-0.1,0-0.3,0.1-0.5,0.1
			c-0.2,0-0.4-0.1-0.6-0.2c-0.1-0.2-0.2-0.4-0.2-0.8v-1.6h-0.4v-0.4h0.4v-0.7L255.5,225.4z"/>
		<path class="st16" d="M260.2,229.1c-0.1,0.1-0.4,0.2-0.8,0.2c-0.9,0-1.4-0.6-1.4-1.5c0-0.9,0.6-1.5,1.6-1.5c0.3,0,0.6,0.1,0.7,0.2
			l-0.1,0.4c-0.1-0.1-0.3-0.1-0.6-0.1c-0.7,0-1,0.5-1,1.1c0,0.7,0.4,1.1,1,1.1c0.3,0,0.5-0.1,0.6-0.1L260.2,229.1z"/>
		<path class="st16" d="M263.4,227.7c0,1.1-0.7,1.5-1.4,1.5c-0.8,0-1.4-0.6-1.4-1.5c0-1,0.6-1.5,1.4-1.5
			C262.9,226.2,263.4,226.8,263.4,227.7z M261.1,227.7c0,0.6,0.4,1.1,0.9,1.1c0.5,0,0.9-0.5,0.9-1.1c0-0.5-0.2-1.1-0.9-1.1
			C261.4,226.6,261.1,227.2,261.1,227.7z"/>
		<path class="st16" d="M264.1,227c0-0.3,0-0.5,0-0.8h0.5l0,0.5h0c0.2-0.3,0.4-0.5,0.9-0.5c0.4,0,0.7,0.2,0.8,0.6h0
			c0.1-0.2,0.2-0.3,0.3-0.4c0.2-0.1,0.4-0.2,0.6-0.2c0.4,0,1,0.2,1,1.3v1.7h-0.5v-1.6c0-0.6-0.2-0.9-0.6-0.9c-0.3,0-0.5,0.2-0.6,0.5
			c0,0.1,0,0.2,0,0.3v1.8h-0.5v-1.7c0-0.5-0.2-0.8-0.6-0.8c-0.3,0-0.6,0.3-0.7,0.5c0,0.1,0,0.2,0,0.3v1.7h-0.5V227z"/>
		<path class="st16" d="M269.1,227c0-0.3,0-0.5,0-0.8h0.5l0,0.5h0c0.2-0.3,0.4-0.5,0.9-0.5c0.4,0,0.7,0.2,0.8,0.6h0
			c0.1-0.2,0.2-0.3,0.3-0.4c0.2-0.1,0.4-0.2,0.6-0.2c0.4,0,1,0.2,1,1.3v1.7h-0.5v-1.6c0-0.6-0.2-0.9-0.6-0.9c-0.3,0-0.5,0.2-0.6,0.5
			c0,0.1,0,0.2,0,0.3v1.8h-0.5v-1.7c0-0.5-0.2-0.8-0.6-0.8c-0.3,0-0.6,0.3-0.7,0.5c0,0.1,0,0.2,0,0.3v1.7h-0.5V227z"/>
		<path class="st16" d="M276.7,227.7c0,1.1-0.7,1.5-1.4,1.5c-0.8,0-1.4-0.6-1.4-1.5c0-1,0.6-1.5,1.4-1.5
			C276.2,226.2,276.7,226.8,276.7,227.7z M274.4,227.7c0,0.6,0.4,1.1,0.9,1.1c0.5,0,0.9-0.5,0.9-1.1c0-0.5-0.2-1.1-0.9-1.1
			C274.7,226.6,274.4,227.2,274.4,227.7z"/>
		<path class="st16" d="M277.4,227c0-0.3,0-0.5,0-0.8h0.5l0,0.5h0c0.1-0.3,0.5-0.5,1-0.5c0.4,0,1,0.2,1,1.2v1.7h-0.5v-1.7
			c0-0.5-0.2-0.9-0.7-0.9c-0.3,0-0.6,0.2-0.7,0.5c0,0.1,0,0.2,0,0.2v1.7h-0.5V227z"/>
		<path class="st16" d="M280.4,229.9c0.4-0.6,0.8-1.4,0.8-2.4c0-1.1-0.3-1.8-0.8-2.4h0.4c0.4,0.5,0.8,1.3,0.8,2.4
			c0,1.2-0.4,1.9-0.8,2.4H280.4z"/>
	</g>
</g>
</svg>
