<?xml version="1.0" encoding="utf-8"?>
<!-- Generator: Adobe Illustrator 28.2.0, SVG Export Plug-In . SVG Version: 6.00 Build 0)  -->
<svg version="1.1" id="Layer_1" xmlns="http://www.w3.org/2000/svg" xmlns:xlink="http://www.w3.org/1999/xlink" x="0px" y="0px"
	 viewBox="0 0 288 251" style="enable-background:new 0 0 288 251;" xml:space="preserve">
<style type="text/css">
	.st0{fill:none;}
	.st1{clip-path:url(#SVGID_00000054986639219213837340000011081000569783265973_);}
	.st2{fill:none;stroke:#BEBEBE;stroke-width:1.07;stroke-linejoin:round;stroke-miterlimit:10;}
	.st3{fill:none;stroke:#6091A0;stroke-width:2.13;stroke-linejoin:round;stroke-miterlimit:10;}
	.st4{fill:none;stroke:#65AA81;stroke-width:2.13;stroke-linejoin:round;stroke-miterlimit:10;}
	.st5{fill:#6091A0;stroke:#6091A0;stroke-width:0.71;stroke-linecap:round;stroke-linejoin:round;stroke-miterlimit:10;}
	.st6{fill:#6091A0;stroke:#ADD8E6;stroke-width:0.71;stroke-linecap:round;stroke-linejoin:round;stroke-miterlimit:10;}
	.st7{fill:#65AA81;stroke:#65AA81;stroke-width:0.71;stroke-linecap:round;stroke-linejoin:round;stroke-miterlimit:10;}
	.st8{enable-background:new    ;}
	.st9{fill:#65AA81;}
	.st10{fill:#6091A0;}
	.st11{clip-path:url(#SVGID_00000137841727557228238500000012518906674067353016_);}
	.st12{fill:#4D4D4D;}
	.st13{font-family:'ArialMT';}
	.st14{font-size:8.8px;}
	.st15{clip-path:url(#SVGID_00000050645926896194086360000011701809390655874718_);enable-background:new    ;}
	.st16{fill:#414242;}
	.st17{fill:none;stroke:#6091A0;stroke-width:0.5;stroke-miterlimit:10;}
</style>
<rect y="-37" class="st0" width="288" height="273"/>
<g>
	<g>
		<defs>
			<rect id="SVGID_1_" x="32.2" y="7.7" width="250.3" height="209.6"/>
		</defs>
		<clipPath id="SVGID_00000087398096351737807140000016353079620964184503_">
			<use xlink:href="#SVGID_1_"  style="overflow:visible;"/>
		</clipPath>
		<g style="clip-path:url(#SVGID_00000087398096351737807140000016353079620964184503_);">
			<line class="st2" x1="32.2" y1="216.3" x2="282.5" y2="216.3"/>
			<line class="st2" x1="32.2" y1="155.3" x2="282.5" y2="155.3"/>
			<line class="st2" x1="32.2" y1="94.3" x2="282.5" y2="94.3"/>
			<line class="st2" x1="32.2" y1="33.4" x2="282.5" y2="33.4"/>
			<polyline class="st3" points="44.5,76.1 65,137 85.5,137 106.1,140.1 126.6,155.3 147.1,161.4 167.6,167.5 188.1,173.6 
				208.6,179.7 229.2,185.8 249.7,191.9 270.2,198 			"/>
			<polyline class="st4" points="44.5,106.5 65,130.9 85.5,130.9 106.1,130.9 126.6,161.4 147.1,167.5 167.6,182.7 188.1,182.7 
				208.6,191.9 229.2,191.9 249.7,204.1 270.2,207.1 			"/>
			<circle class="st5" cx="44.5" cy="76.1" r="1.9"/>
			<circle class="st5" cx="65" cy="137" r="1.9"/>
			<circle class="st5" cx="85.5" cy="137" r="1.9"/>
			<circle class="st5" cx="106.1" cy="140.1" r="1.9"/>
			<circle class="st5" cx="126.6" cy="155.3" r="1.9"/>
			<circle class="st5" cx="147.1" cy="161.4" r="1.9"/>
			<circle class="st5" cx="167.6" cy="167.5" r="1.9"/>
			<circle class="st5" cx="188.1" cy="173.6" r="1.9"/>
			<circle class="st5" cx="208.6" cy="179.7" r="1.9"/>
			<circle class="st5" cx="229.2" cy="185.8" r="1.9"/>
			<circle class="st5" cx="249.7" cy="191.9" r="1.9"/>
			<circle class="st6" cx="270.2" cy="198" r="2"/>
			<circle class="st7" cx="44.5" cy="106.5" r="1.9"/>
			<circle class="st7" cx="65" cy="130.9" r="1.9"/>
			<circle class="st7" cx="85.5" cy="130.9" r="1.9"/>
			<circle class="st7" cx="106.1" cy="130.9" r="1.9"/>
			<circle class="st7" cx="126.6" cy="161.4" r="1.9"/>
			<circle class="st7" cx="147.1" cy="167.5" r="1.9"/>
			<circle class="st7" cx="167.6" cy="182.7" r="1.9"/>
			<circle class="st7" cx="188.1" cy="182.7" r="1.9"/>
			<circle class="st7" cx="208.6" cy="191.9" r="1.9"/>
			<circle class="st7" cx="229.2" cy="191.9" r="1.9"/>
			<circle class="st7" cx="249.7" cy="204.1" r="2"/>
			<circle class="st7" cx="270.2" cy="207.1" r="2"/>
			<g>
				<g class="st8">
					<path class="st9" d="M108.9,123.5c0,1.8-1.1,2.8-2.5,2.8s-2.4-1.1-2.4-2.7c0-1.7,1.1-2.8,2.5-2.8
						C107.9,120.7,108.9,121.9,108.9,123.5z M104.7,123.6c0,1.2,0.6,2.2,1.7,2.2s1.7-1,1.7-2.2c0-1.1-0.6-2.2-1.7-2.2
						C105.2,121.3,104.7,122.4,104.7,123.6z"/>
					<path class="st9" d="M111.9,126.2l-0.1-0.5l0,0c-0.2,0.3-0.6,0.6-1.2,0.6c-0.8,0-1.2-0.6-1.2-1.1c0-0.9,0.8-1.5,2.3-1.4v-0.1
						c0-0.3-0.1-0.9-0.9-0.9c-0.4,0-0.7,0.1-1,0.3l-0.2-0.5c0.3-0.2,0.8-0.3,1.3-0.3c1.2,0,1.5,0.8,1.5,1.6v1.4c0,0.3,0,0.7,0.1,0.9
						H111.9z M111.8,124.2c-0.8,0-1.6,0.1-1.6,0.9c0,0.5,0.3,0.7,0.7,0.7c0.5,0,0.8-0.3,0.9-0.6c0-0.1,0-0.2,0-0.2V124.2z"/>
					<path class="st9" d="M114.3,124.1L114.3,124.1c0.1-0.1,0.2-0.3,0.4-0.4l1.1-1.3h0.8l-1.5,1.6l1.7,2.3H116l-1.3-1.9l-0.4,0.4
						v1.5h-0.7v-5.7h0.7C114.3,120.6,114.3,124.1,114.3,124.1z"/>
					<path class="st9" d="M117.2,125.5c0.2,0.1,0.6,0.3,0.9,0.3c0.5,0,0.8-0.3,0.8-0.6s-0.2-0.5-0.7-0.7c-0.7-0.3-1-0.6-1-1.1
						c0-0.6,0.5-1.1,1.3-1.1c0.4,0,0.7,0.1,0.9,0.2l-0.2,0.5c-0.1-0.1-0.4-0.2-0.8-0.2s-0.6,0.2-0.6,0.5s0.2,0.5,0.7,0.7
						c0.7,0.2,1,0.6,1,1.2c0,0.7-0.5,1.2-1.4,1.2c-0.4,0-0.8-0.1-1.1-0.3L117.2,125.5z"/>
				</g>
			</g>
			<g>
				<g>
					<path class="st10" d="M38.1,65.8c0,2.1-1.3,3.2-2.8,3.2c-1.6,0-2.7-1.2-2.7-3.1s1.2-3.2,2.8-3.2C37,62.7,38.1,64,38.1,65.8z
						 M33.3,65.9c0,1.3,0.7,2.5,1.9,2.5s1.9-1.1,1.9-2.5c0-1.2-0.6-2.5-1.9-2.5C34,63.4,33.3,64.6,33.3,65.9z"/>
					<path class="st10" d="M41.5,68.9l-0.1-0.5l0,0c-0.2,0.3-0.7,0.6-1.3,0.6c-0.9,0-1.3-0.6-1.3-1.2c0-1.1,0.9-1.6,2.6-1.6V66
						c0-0.4-0.1-1-1-1c-0.4,0-0.8,0.1-1.1,0.3l-0.2-0.5c0.4-0.2,0.9-0.4,1.4-0.4c1.3,0,1.7,0.9,1.7,1.8v1.6c0,0.4,0,0.7,0.1,1
						L41.5,68.9L41.5,68.9z M41.3,66.7c-0.9,0-1.8,0.1-1.8,1c0,0.5,0.3,0.8,0.7,0.8c0.6,0,0.9-0.4,1.1-0.7c0-0.1,0-0.2,0-0.2V66.7z"
						/>
					<path class="st10" d="M44.2,66.6L44.2,66.6c0.1-0.2,0.3-0.3,0.4-0.5l1.3-1.5h1l-1.7,1.8l1.9,2.6h-1l-1.5-2.1l-0.4,0.5V69h-0.8
						v-6.4h0.8V66.6z"/>
					<path class="st10" d="M47.5,68.1c0.2,0.1,0.7,0.3,1,0.3c0.6,0,0.8-0.3,0.8-0.6c0-0.4-0.2-0.6-0.8-0.8c-0.8-0.3-1.2-0.7-1.2-1.2
						c0-0.7,0.6-1.3,1.5-1.3c0.4,0,0.8,0.1,1.1,0.3l-0.2,0.6c-0.2-0.1-0.5-0.3-0.9-0.3c-0.5,0-0.7,0.3-0.7,0.6
						c0,0.4,0.3,0.5,0.8,0.7c0.8,0.3,1.1,0.7,1.1,1.3c0,0.8-0.6,1.3-1.6,1.3c-0.5,0-0.9-0.1-1.2-0.3L47.5,68.1z"/>
				</g>
			</g>
		</g>
	</g>
</g>
<g>
	<g>
		<defs>
			<rect id="SVGID_00000008142090141681974860000007731612700143764915_" y="-37" width="288" height="273"/>
		</defs>
		<clipPath id="SVGID_00000021832317670752543820000003526985102750310562_">
			<use xlink:href="#SVGID_00000008142090141681974860000007731612700143764915_"  style="overflow:visible;"/>
		</clipPath>
		<g style="clip-path:url(#SVGID_00000021832317670752543820000003526985102750310562_);">
			<rect x="10.4" y="211.9" class="st0" width="4.9" height="10.4"/>
			<text transform="matrix(1 0 0 1 10.376 219.4199)" class="st12 st13 st14">0</text>
			<rect x="5.5" y="150.9" class="st0" width="9.8" height="10.4"/>
			<text transform="matrix(1 0 0 1 5.4819 158.4502)" class="st12 st13 st14">10</text>
			<rect x="5.5" y="89.9" class="st0" width="9.8" height="10.4"/>
			<text transform="matrix(1 0 0 1 5.4819 97.4902)" class="st12 st13 st14">20</text>
			<rect x="5.5" y="29" class="st0" width="9.8" height="10.4"/>
			<text transform="matrix(1 0 0 1 5.4819 36.52)" class="st12 st13 st14">30 </text>
			<rect x="42.1" y="221" class="st0" width="4.9" height="10.4"/>
			<text transform="matrix(1 0 0 1 42.0527 228.5698)" class="st12 st13 st14">1</text>
			<rect x="62.6" y="221" class="st0" width="4.9" height="10.4"/>
			<text transform="matrix(1 0 0 1 62.5728 228.5698)" class="st12 st13 st14">2</text>
			<rect x="83.1" y="221" class="st0" width="4.9" height="10.4"/>
			<text transform="matrix(1 0 0 1 83.083 228.5698)" class="st12 st13 st14">3</text>
			<rect x="103.6" y="221" class="st0" width="4.9" height="10.4"/>
			<text transform="matrix(1 0 0 1 103.603 228.5698)" class="st12 st13 st14">4</text>
			<rect x="124.1" y="221" class="st0" width="4.9" height="10.4"/>
			<text transform="matrix(1 0 0 1 124.123 228.5698)" class="st12 st13 st14">5</text>
			<rect x="144.6" y="221" class="st0" width="4.9" height="10.4"/>
			<text transform="matrix(1 0 0 1 144.6431 228.5698)" class="st12 st13 st14">6</text>
			<rect x="165.2" y="221" class="st0" width="4.9" height="10.4"/>
			<text transform="matrix(1 0 0 1 165.1631 228.5698)" class="st12 st13 st14">7</text>
			<rect x="185.7" y="221" class="st0" width="4.9" height="10.4"/>
			<text transform="matrix(1 0 0 1 185.6831 228.5698)" class="st12 st13 st14">8</text>
			<rect x="206.2" y="221" class="st0" width="4.9" height="10.4"/>
			<text transform="matrix(1 0 0 1 206.2031 228.5698)" class="st12 st13 st14">9</text>
			<rect x="224.3" y="221" class="st0" width="9.8" height="10.4"/>
			<text transform="matrix(1 0 0 1 224.2759 228.5698)" class="st12 st13 st14">10</text>
			<rect x="245.1" y="221" class="st0" width="9.8" height="10.4"/>
			<text transform="matrix(1 0 0 1 245.1226 228.5698)" class="st12 st13 st14">11</text>
			<rect x="265.3" y="221" class="st0" width="9.8" height="10.4"/>
			<text transform="matrix(1 0 0 1 265.3159 228.5698)" class="st12 st13 st14">12</text>
		</g>
	</g>
	<g>
		<defs>
			<rect id="SVGID_00000114786219300675774950000012546142362933556622_" y="-37" width="288" height="273"/>
		</defs>
		<clipPath id="SVGID_00000000203542920816353260000001813665207078476181_">
			<use xlink:href="#SVGID_00000114786219300675774950000012546142362933556622_"  style="overflow:visible;"/>
		</clipPath>
		<g style="clip-path:url(#SVGID_00000000203542920816353260000001813665207078476181_);enable-background:new    ;">
			<rect x="17.2" y="30.2" class="st0" width="9.8" height="10.4"/>
			<text transform="matrix(1 0 0 1 17.2285 36.4937)" class="st12 st13 st14">%</text>
		</g>
	</g>
</g>
<g>
	<g>
		<path class="st16" d="M198.6,232c0.3-0.1,0.6-0.1,1-0.1c0.6,0,0.9,0.1,1.2,0.3c0.2,0.2,0.3,0.5,0.3,0.8c0,0.5-0.3,0.9-0.8,1l0,0
			c0.3,0.1,0.5,0.4,0.6,0.8c0.1,0.6,0.2,1,0.3,1.1h-0.5c-0.1-0.1-0.2-0.5-0.3-1c-0.1-0.6-0.3-0.8-0.8-0.8h-0.5v1.8h-0.5V232z
			 M199.1,233.9h0.5c0.6,0,0.9-0.3,0.9-0.8s-0.4-0.8-0.9-0.8c-0.3,0-0.4,0-0.5,0V233.9z"/>
		<path class="st16" d="M203.4,236v-0.4l0,0c-0.2,0.2-0.5,0.4-0.9,0.4c-0.6,0-0.9-0.4-0.9-0.8c0-0.7,0.6-1.1,1.7-1.1V234
			c0-0.2-0.1-0.7-0.7-0.7c-0.3,0-0.6,0.1-0.8,0.2l-0.1-0.4c0.2-0.2,0.6-0.3,1-0.3c0.9,0,1.1,0.6,1.1,1.2v1.1c0,0.2,0,0.5,0,0.7h-0.4
			V236z M203.4,234.5c-0.6,0-1.2,0.1-1.2,0.7c0,0.3,0.2,0.5,0.5,0.5c0.4,0,0.6-0.2,0.7-0.5c0-0.1,0-0.1,0-0.2V234.5z"/>
		<path class="st16" d="M204.7,233.9c0-0.3,0-0.5,0-0.8h0.5v0.5l0,0c0.1-0.3,0.5-0.5,1-0.5c0.4,0,1,0.2,1,1.2v1.7h-0.5v-1.7
			c0-0.5-0.2-0.9-0.7-0.9c-0.3,0-0.6,0.2-0.7,0.5c0,0.1,0,0.2,0,0.2v1.7h-0.5v-1.9H204.7z"/>
		<path class="st16" d="M208.6,234.4L208.6,234.4c0.1-0.1,0.2-0.2,0.3-0.3l0.9-1h0.6l-1.1,1.2l1.3,1.7H210l-1-1.4l-0.3,0.3v1.1h-0.5
			v-4.3h0.5L208.6,234.4L208.6,234.4z"/>
		<path class="st16" d="M213.3,231.8c-0.4,0.6-0.8,1.4-0.8,2.5s0.3,1.8,0.8,2.4h-0.4c-0.4-0.5-0.8-1.3-0.8-2.4c0-1.2,0.4-2,0.8-2.5
			H213.3z"/>
		<path class="st16" d="M213.8,235.5c0.2,0.1,0.4,0.2,0.7,0.2c0.4,0,0.6-0.2,0.6-0.4c0-0.3-0.2-0.4-0.5-0.5
			c-0.5-0.2-0.8-0.5-0.8-0.8c0-0.5,0.4-0.9,1-0.9c0.3,0,0.5,0.1,0.7,0.2l-0.1,0.4c-0.1-0.1-0.3-0.2-0.6-0.2s-0.5,0.2-0.5,0.4
			c0,0.2,0.2,0.3,0.6,0.5c0.5,0.2,0.8,0.4,0.8,0.9s-0.4,0.9-1.1,0.9c-0.3,0-0.6-0.1-0.8-0.2L213.8,235.5z"/>
		<path class="st16" d="M216.9,232.3v0.8h0.8v0.4h-0.8v1.6c0,0.4,0.1,0.6,0.4,0.6c0.1,0,0.2,0,0.3,0v0.4c-0.1,0-0.3,0.1-0.5,0.1
			s-0.4-0.1-0.6-0.2c-0.1-0.2-0.2-0.4-0.2-0.8v-1.6h-0.4v-0.4h0.4v-0.7L216.9,232.3z"/>
		<path class="st16" d="M219.8,236v-0.4l0,0c-0.2,0.2-0.5,0.4-0.9,0.4c-0.6,0-0.9-0.4-0.9-0.8c0-0.7,0.6-1.1,1.7-1.1V234
			c0-0.2-0.1-0.7-0.7-0.7c-0.3,0-0.6,0.1-0.8,0.2l-0.1-0.4c0.2-0.2,0.6-0.3,1-0.3c0.9,0,1.1,0.6,1.1,1.2v1.1c0,0.2,0,0.5,0,0.7h-0.4
			V236z M219.7,234.5c-0.6,0-1.2,0.1-1.2,0.7c0,0.3,0.2,0.5,0.5,0.5c0.4,0,0.6-0.2,0.7-0.5c0-0.1,0-0.1,0-0.2V234.5z"/>
		<path class="st16" d="M221.1,234c0-0.3,0-0.6,0-0.9h0.5v0.6l0,0c0.1-0.4,0.5-0.6,0.8-0.6c0.1,0,0.1,0,0.1,0v0.5
			c-0.1,0-0.1,0-0.2,0c-0.4,0-0.6,0.3-0.7,0.7c0,0.1,0,0.2,0,0.2v1.5h-0.5L221.1,234L221.1,234z"/>
		<path class="st16" d="M223.7,232.3v0.8h0.8v0.4h-0.8v1.6c0,0.4,0.1,0.6,0.4,0.6c0.1,0,0.2,0,0.3,0v0.4c-0.1,0-0.3,0.1-0.5,0.1
			s-0.4-0.1-0.6-0.2c-0.1-0.2-0.2-0.4-0.2-0.8v-1.6h-0.4v-0.4h0.4v-0.7L223.7,232.3z"/>
		<path class="st16" d="M225.6,232.3c0,0.2-0.1,0.3-0.3,0.3s-0.3-0.1-0.3-0.3c0-0.2,0.1-0.3,0.3-0.3S225.6,232.1,225.6,232.3z
			 M225,236v-2.9h0.5v2.9H225z"/>
		<path class="st16" d="M226.4,233.9c0-0.3,0-0.5,0-0.8h0.5v0.5l0,0c0.1-0.3,0.5-0.5,1-0.5c0.4,0,1,0.2,1,1.2v1.7h-0.5v-1.7
			c0-0.5-0.2-0.9-0.7-0.9c-0.3,0-0.6,0.2-0.7,0.5c0,0.1,0,0.2,0,0.2v1.7h-0.5v-1.9H226.4z"/>
		<path class="st16" d="M232.3,233.1c0,0.2,0,0.4,0,0.8v1.7c0,0.7-0.1,1.1-0.4,1.3c-0.3,0.3-0.7,0.3-1.1,0.3c-0.4,0-0.7-0.1-1-0.2
			l0.1-0.4c0.2,0.1,0.5,0.2,0.9,0.2c0.5,0,0.9-0.3,0.9-1v-0.3l0,0c-0.2,0.3-0.5,0.5-0.9,0.5c-0.7,0-1.2-0.6-1.2-1.4
			c0-1,0.6-1.5,1.3-1.5c0.5,0,0.8,0.3,0.9,0.5l0,0v-0.4h0.5V233.1z M231.7,234.2c0-0.1,0-0.2,0-0.2c-0.1-0.3-0.4-0.6-0.7-0.6
			c-0.5,0-0.9,0.4-0.9,1.1c0,0.6,0.3,1,0.9,1c0.3,0,0.6-0.2,0.7-0.5c0-0.1,0-0.2,0-0.3V234.2z"/>
		<path class="st16" d="M234.5,236v-2.5H234v-0.4h0.4V233c0-0.4,0.1-0.8,0.3-1s0.5-0.3,0.7-0.3s0.3,0,0.5,0.1l-0.1,0.4
			c-0.1,0-0.2-0.1-0.3-0.1c-0.4,0-0.6,0.4-0.6,0.8v0.2h0.7v0.4H235v2.5H234.5z"/>
		<path class="st16" d="M236.2,234c0-0.3,0-0.6,0-0.9h0.5v0.6l0,0c0.1-0.4,0.5-0.6,0.8-0.6c0.1,0,0.1,0,0.1,0v0.5
			c-0.1,0-0.1,0-0.2,0c-0.4,0-0.6,0.3-0.7,0.7c0,0.1,0,0.2,0,0.2v1.5h-0.5L236.2,234L236.2,234z"/>
		<path class="st16" d="M240.7,234.5c0,1.1-0.7,1.5-1.4,1.5c-0.8,0-1.4-0.6-1.4-1.5c0-1,0.6-1.5,1.4-1.5
			C240.2,233,240.7,233.6,240.7,234.5z M238.4,234.6c0,0.6,0.4,1.1,0.9,1.1s0.9-0.5,0.9-1.1c0-0.5-0.2-1.1-0.9-1.1
			C238.7,233.4,238.4,234,238.4,234.6z"/>
		<path class="st16" d="M241.4,233.9c0-0.3,0-0.5,0-0.8h0.5v0.5l0,0c0.2-0.3,0.4-0.5,0.9-0.5c0.4,0,0.7,0.2,0.8,0.6l0,0
			c0.1-0.2,0.2-0.3,0.3-0.4c0.2-0.1,0.4-0.2,0.6-0.2c0.4,0,1,0.2,1,1.3v1.7H245v-1.6c0-0.6-0.2-0.9-0.6-0.9c-0.3,0-0.5,0.2-0.6,0.5
			c0,0.1,0,0.2,0,0.3v1.8h-0.5v-1.7c0-0.5-0.2-0.8-0.6-0.8c-0.3,0-0.6,0.3-0.7,0.5c0,0.1,0,0.2,0,0.3v1.7h-0.5L241.4,233.9
			L241.4,233.9z"/>
		<path class="st16" d="M247.7,233.9c0-0.3,0-0.5,0-0.8h0.5v0.5l0,0c0.2-0.3,0.4-0.5,0.9-0.5c0.4,0,0.7,0.2,0.8,0.6l0,0
			c0.1-0.2,0.2-0.3,0.3-0.4c0.2-0.1,0.4-0.2,0.6-0.2c0.4,0,1,0.2,1,1.3v1.7h-0.5v-1.6c0-0.6-0.2-0.9-0.6-0.9c-0.3,0-0.5,0.2-0.6,0.5
			c0,0.1,0,0.2,0,0.3v1.8h-0.5v-1.7c0-0.5-0.2-0.8-0.6-0.8c-0.3,0-0.6,0.3-0.7,0.5c0,0.1,0,0.2,0,0.3v1.7h-0.5L247.7,233.9
			L247.7,233.9z"/>
		<path class="st16" d="M255.3,234.5c0,1.1-0.7,1.5-1.4,1.5c-0.8,0-1.4-0.6-1.4-1.5c0-1,0.6-1.5,1.4-1.5
			C254.8,233,255.3,233.6,255.3,234.5z M253,234.6c0,0.6,0.4,1.1,0.9,1.1s0.9-0.5,0.9-1.1c0-0.5-0.2-1.1-0.9-1.1
			C253.3,233.4,253,234,253,234.6z"/>
		<path class="st16" d="M255.9,235.5c0.2,0.1,0.4,0.2,0.7,0.2c0.4,0,0.6-0.2,0.6-0.4c0-0.3-0.2-0.4-0.5-0.5
			c-0.5-0.2-0.8-0.5-0.8-0.8c0-0.5,0.4-0.9,1-0.9c0.3,0,0.5,0.1,0.7,0.2l-0.1,0.4c-0.1-0.1-0.3-0.2-0.6-0.2c-0.3,0-0.5,0.2-0.5,0.4
			c0,0.2,0.2,0.3,0.6,0.5c0.5,0.2,0.8,0.4,0.8,0.9s-0.4,0.9-1.1,0.9c-0.3,0-0.6-0.1-0.8-0.2L255.9,235.5z"/>
		<path class="st16" d="M259,232.3v0.8h0.8v0.4H259v1.6c0,0.4,0.1,0.6,0.4,0.6c0.1,0,0.2,0,0.3,0v0.4c-0.1,0-0.3,0.1-0.5,0.1
			s-0.4-0.1-0.6-0.2c-0.1-0.2-0.2-0.4-0.2-0.8v-1.6H258v-0.4h0.4v-0.7L259,232.3z"/>
		<path class="st16" d="M263.7,235.9c-0.1,0.1-0.4,0.2-0.8,0.2c-0.9,0-1.4-0.6-1.4-1.5s0.6-1.5,1.6-1.5c0.3,0,0.6,0.1,0.7,0.2
			l-0.1,0.4c-0.1-0.1-0.3-0.1-0.6-0.1c-0.7,0-1,0.5-1,1.1c0,0.7,0.4,1.1,1,1.1c0.3,0,0.5-0.1,0.6-0.1L263.7,235.9z"/>
		<path class="st16" d="M266.9,234.5c0,1.1-0.7,1.5-1.4,1.5c-0.8,0-1.4-0.6-1.4-1.5c0-1,0.6-1.5,1.4-1.5
			C266.4,233,266.9,233.6,266.9,234.5z M264.6,234.6c0,0.6,0.4,1.1,0.9,1.1s0.9-0.5,0.9-1.1c0-0.5-0.2-1.1-0.9-1.1
			C264.9,233.4,264.6,234,264.6,234.6z"/>
		<path class="st16" d="M267.6,233.9c0-0.3,0-0.5,0-0.8h0.5v0.5l0,0c0.2-0.3,0.4-0.5,0.9-0.5c0.4,0,0.7,0.2,0.8,0.6l0,0
			c0.1-0.2,0.2-0.3,0.3-0.4c0.2-0.1,0.4-0.2,0.6-0.2c0.4,0,1,0.2,1,1.3v1.7h-0.5v-1.6c0-0.6-0.2-0.9-0.6-0.9c-0.3,0-0.5,0.2-0.6,0.5
			c0,0.1,0,0.2,0,0.3v1.8h-0.5v-1.7c0-0.5-0.2-0.8-0.6-0.8c-0.3,0-0.6,0.3-0.7,0.5c0,0.1,0,0.2,0,0.3v1.7h-0.5L267.6,233.9
			L267.6,233.9z"/>
		<path class="st16" d="M272.6,233.9c0-0.3,0-0.5,0-0.8h0.5v0.5l0,0c0.2-0.3,0.4-0.5,0.9-0.5c0.4,0,0.7,0.2,0.8,0.6l0,0
			c0.1-0.2,0.2-0.3,0.3-0.4c0.2-0.1,0.4-0.2,0.6-0.2c0.4,0,1,0.2,1,1.3v1.7h-0.5v-1.6c0-0.6-0.2-0.9-0.6-0.9c-0.3,0-0.5,0.2-0.6,0.5
			c0,0.1,0,0.2,0,0.3v1.8h-0.5v-1.7c0-0.5-0.2-0.8-0.6-0.8c-0.3,0-0.6,0.3-0.7,0.5c0,0.1,0,0.2,0,0.3v1.7h-0.5L272.6,233.9
			L272.6,233.9z"/>
		<path class="st16" d="M280.2,234.5c0,1.1-0.7,1.5-1.4,1.5c-0.8,0-1.4-0.6-1.4-1.5c0-1,0.6-1.5,1.4-1.5
			C279.7,233,280.2,233.6,280.2,234.5z M277.9,234.6c0,0.6,0.4,1.1,0.9,1.1s0.9-0.5,0.9-1.1c0-0.5-0.2-1.1-0.9-1.1
			C278.2,233.4,277.9,234,277.9,234.6z"/>
		<path class="st16" d="M280.9,233.9c0-0.3,0-0.5,0-0.8h0.5v0.5l0,0c0.1-0.3,0.5-0.5,1-0.5c0.4,0,1,0.2,1,1.2v1.7h-0.5v-1.7
			c0-0.5-0.2-0.9-0.7-0.9c-0.3,0-0.6,0.2-0.7,0.5c0,0.1,0,0.2,0,0.2v1.7H281L280.9,233.9L280.9,233.9z"/>
		<path class="st16" d="M283.9,236.7c0.4-0.6,0.8-1.4,0.8-2.4c0-1.1-0.3-1.8-0.8-2.4h0.4c0.4,0.5,0.8,1.3,0.8,2.4
			c0,1.2-0.4,1.9-0.8,2.4H283.9z"/>
	</g>
</g>
<line class="st3" x1="201.5" y1="81.2" x2="213.4" y2="81.2"/>
<line class="st4" x1="201.4" y1="70.3" x2="213.2" y2="70.3"/>
<g>
	<g>
		<path d="M217.3,72.4c0.3,0.2,0.8,0.3,1.2,0.3c0.7,0,1.1-0.4,1.1-0.9s-0.3-0.8-1-1.1c-0.9-0.3-1.4-0.8-1.4-1.5
			c0-0.8,0.7-1.5,1.7-1.5c0.5,0,1,0.1,1.2,0.3l-0.2,0.6c-0.2-0.1-0.5-0.3-1-0.3c-0.7,0-1,0.4-1,0.8c0,0.5,0.3,0.7,1.1,1
			c0.9,0.4,1.4,0.8,1.4,1.6c0,0.8-0.6,1.6-1.9,1.6c-0.5,0-1.1-0.2-1.4-0.4L217.3,72.4z"/>
		<path d="M221.3,67.6h0.7V70l0,0c0.1-0.2,0.3-0.4,0.5-0.5s0.5-0.2,0.7-0.2c0.5,0,1.3,0.3,1.3,1.7v2.3h-0.7V71
			c0-0.6-0.2-1.1-0.9-1.1c-0.5,0-0.8,0.3-0.9,0.7c0,0.1,0,0.2,0,0.3v2.3h-0.7L221.3,67.6L221.3,67.6z"/>
		<path d="M227.9,73.3l-0.1-0.5l0,0c-0.2,0.3-0.6,0.6-1.2,0.6c-0.8,0-1.2-0.6-1.2-1.1c0-0.9,0.8-1.5,2.3-1.4v-0.1
			c0-0.3-0.1-0.9-0.9-0.9c-0.4,0-0.7,0.1-1,0.3l-0.2-0.5c0.3-0.2,0.8-0.3,1.3-0.3c1.2,0,1.5,0.8,1.5,1.6v1.4c0,0.3,0,0.7,0.1,0.9
			H227.9z M227.8,71.3c-0.8,0-1.6,0.1-1.6,0.9c0,0.5,0.3,0.7,0.7,0.7c0.5,0,0.8-0.3,0.9-0.6c0-0.1,0-0.2,0-0.2L227.8,71.3
			L227.8,71.3z"/>
		<path d="M229.6,70.6c0-0.5,0-0.8,0-1.2h0.6v0.8l0,0c0.2-0.5,0.6-0.8,1.1-0.8c0.1,0,0.1,0,0.2,0v0.7c-0.1,0-0.1,0-0.2,0
			c-0.5,0-0.8,0.4-0.9,0.9c0,0.1,0,0.2,0,0.3v2.1h-0.7v-2.8H229.6z"/>
		<path d="M232.6,71.5c0,1,0.6,1.3,1.3,1.3c0.5,0,0.8-0.1,1.1-0.2l0.1,0.5c-0.2,0.1-0.7,0.2-1.3,0.2c-1.2,0-1.9-0.8-1.9-2
			s0.7-2.1,1.8-2.1c1.3,0,1.6,1.1,1.6,1.8c0,0.1,0,0.3,0,0.3h-2.7V71.5z M234.6,71c0-0.4-0.2-1.1-1-1.1c-0.7,0-1,0.6-1.1,1.1H234.6z
			"/>
		<path d="M241.4,71.3c0,1.4-1,2.1-1.9,2.1c-1,0-1.9-0.8-1.9-2c0-1.3,0.9-2.1,1.9-2.1C240.7,69.3,241.4,70.1,241.4,71.3z
			 M238.3,71.3c0,0.8,0.5,1.5,1.2,1.5s1.2-0.6,1.2-1.5c0-0.7-0.3-1.5-1.2-1.5C238.7,69.8,238.3,70.6,238.3,71.3z"/>
		<path d="M242.4,73.3V70h-0.5v-0.5h0.5v-0.2c0-0.5,0.1-1,0.4-1.4c0.3-0.3,0.6-0.4,0.9-0.4c0.3,0,0.5,0.1,0.6,0.1l-0.1,0.5
			c-0.1,0-0.2-0.1-0.5-0.1c-0.6,0-0.8,0.5-0.8,1.1v0.2h0.9v0.5h-0.9v3.3h-0.5V73.3z"/>
		<path d="M249.1,73.1c-0.2,0.1-0.6,0.2-1.1,0.2c-1.2,0-1.9-0.8-1.9-2s0.8-2.1,2.1-2.1c0.4,0,0.8,0.1,1,0.2l-0.2,0.5
			c-0.2-0.1-0.4-0.2-0.8-0.2c-0.9,0-1.4,0.7-1.4,1.5c0,0.9,0.6,1.4,1.3,1.4c0.4,0,0.7-0.1,0.9-0.2L249.1,73.1z"/>
		<path d="M253.4,71.3c0,1.4-1,2.1-1.9,2.1c-1,0-1.9-0.8-1.9-2c0-1.3,0.9-2.1,1.9-2.1C252.7,69.3,253.4,70.1,253.4,71.3z
			 M250.3,71.3c0,0.8,0.5,1.5,1.2,1.5s1.2-0.6,1.2-1.5c0-0.7-0.3-1.5-1.2-1.5C250.7,69.8,250.3,70.6,250.3,71.3z"/>
		<path d="M257.5,72.2c0,0.4,0,0.8,0,1.1h-0.6v-0.6l0,0c-0.2,0.3-0.6,0.7-1.3,0.7c-0.6,0-1.3-0.3-1.3-1.7v-2.3h0.7v2.1
			c0,0.7,0.2,1.2,0.9,1.2c0.5,0,0.8-0.3,0.9-0.6c0-0.1,0.1-0.2,0.1-0.4v-2.4h0.7v2.9H257.5z"/>
		<path d="M258.7,70.4c0-0.4,0-0.7,0-1h0.6V70l0,0c0.2-0.4,0.6-0.7,1.3-0.7c0.5,0,1.4,0.3,1.4,1.6v2.3h-0.7V71
			c0-0.6-0.2-1.1-0.9-1.1c-0.5,0-0.8,0.3-0.9,0.7c0,0.1,0,0.2,0,0.3v2.3h-0.7L258.7,70.4L258.7,70.4z"/>
		<path d="M264,68.3v1.1h1v0.5h-1V72c0,0.5,0.1,0.8,0.5,0.8c0.2,0,0.3,0,0.4-0.1v0.5c-0.1,0.1-0.4,0.1-0.6,0.1
			c-0.3,0-0.6-0.1-0.8-0.3c-0.2-0.2-0.3-0.6-0.3-1v-2.1h-0.6v-0.5h0.6v-0.9L264,68.3z"/>
	</g>
</g>
<g>
	<g>
		<path d="M217.2,82.6c0.3,0.2,0.8,0.3,1.2,0.3c0.7,0,1.1-0.4,1.1-0.9s-0.3-0.8-1-1.1c-0.9-0.3-1.4-0.8-1.4-1.5
			c0-0.8,0.7-1.5,1.7-1.5c0.5,0,1,0.1,1.2,0.3l-0.2,0.6c-0.2-0.1-0.5-0.3-1-0.3c-0.7,0-1,0.4-1,0.8c0,0.5,0.3,0.7,1.1,1
			c0.9,0.4,1.4,0.8,1.4,1.6c0,0.8-0.6,1.6-1.9,1.6c-0.5,0-1.1-0.2-1.4-0.4L217.2,82.6z"/>
		<path d="M221.3,77.8h0.7v2.4l0,0c0.1-0.2,0.3-0.4,0.5-0.5s0.5-0.2,0.7-0.2c0.5,0,1.3,0.3,1.3,1.7v2.3h-0.7v-2.2
			c0-0.6-0.2-1.1-0.9-1.1c-0.5,0-0.8,0.3-0.9,0.7c0,0.1,0,0.2,0,0.3v2.3h-0.7L221.3,77.8L221.3,77.8z"/>
		<path d="M227.8,83.5l-0.1-0.5l0,0c-0.2,0.3-0.6,0.6-1.2,0.6c-0.8,0-1.2-0.6-1.2-1.1c0-0.9,0.8-1.5,2.3-1.4V81
			c0-0.3-0.1-0.9-0.9-0.9c-0.4,0-0.7,0.1-1,0.3l-0.2-0.5c0.3-0.2,0.8-0.3,1.3-0.3c1.2,0,1.5,0.8,1.5,1.6v1.4c0,0.3,0,0.7,0.1,0.9
			H227.8z M227.7,81.5c-0.8,0-1.6,0.1-1.6,0.9c0,0.5,0.3,0.7,0.7,0.7c0.5,0,0.8-0.3,0.9-0.6c0-0.1,0-0.2,0-0.2L227.7,81.5
			L227.7,81.5z"/>
		<path d="M229.5,80.8c0-0.5,0-0.8,0-1.2h0.6v0.8l0,0c0.2-0.5,0.6-0.8,1.1-0.8c0.1,0,0.1,0,0.2,0v0.7c-0.1,0-0.1,0-0.2,0
			c-0.5,0-0.8,0.4-0.9,0.9c0,0.1,0,0.2,0,0.3v2.1h-0.7v-2.8H229.5z"/>
		<path d="M232.6,81.6c0,1,0.6,1.3,1.3,1.3c0.5,0,0.8-0.1,1.1-0.2l0.1,0.5c-0.2,0.1-0.7,0.2-1.3,0.2c-1.2,0-1.9-0.8-1.9-2
			s0.7-2.1,1.8-2.1c1.3,0,1.6,1.1,1.6,1.8c0,0.1,0,0.3,0,0.3h-2.7V81.6z M234.6,81.1c0-0.4-0.2-1.1-1-1.1c-0.7,0-1,0.6-1.1,1.1
			H234.6z"/>
		<path d="M241.4,81.5c0,1.4-1,2.1-1.9,2.1c-1,0-1.9-0.8-1.9-2c0-1.3,0.9-2.1,1.9-2.1C240.6,79.5,241.4,80.3,241.4,81.5z
			 M238.3,81.5c0,0.8,0.5,1.5,1.2,1.5s1.2-0.6,1.2-1.5c0-0.7-0.3-1.5-1.2-1.5C238.7,80,238.3,80.8,238.3,81.5z"/>
		<path d="M242.3,83.5v-3.3h-0.5v-0.5h0.5v-0.2c0-0.5,0.1-1,0.4-1.4c0.3-0.3,0.6-0.4,0.9-0.4c0.3,0,0.5,0.1,0.6,0.1l-0.1,0.5
			c-0.1,0-0.2-0.1-0.5-0.1c-0.6,0-0.8,0.5-0.8,1.1v0.2h0.9V80H243v3.3h-0.7V83.5z"/>
		<path d="M246.3,80.8c0-0.5,0-0.9,0-1.3h0.6v0.7l0,0c0.3-0.5,0.7-0.7,1.4-0.7c0.9,0,1.6,0.8,1.6,2c0,1.4-0.9,2.1-1.8,2.1
			c-0.5,0-1-0.2-1.2-0.6l0,0v2.1h-0.7L246.3,80.8L246.3,80.8z M247,81.9c0,0.1,0,0.2,0,0.3c0.1,0.5,0.6,0.8,1.1,0.8
			c0.7,0,1.2-0.6,1.2-1.5c0-0.8-0.4-1.4-1.1-1.4c-0.5,0-0.9,0.3-1.1,0.9c0,0.1,0,0.2,0,0.3L247,81.9L247,81.9z"/>
		<path d="M250.8,77.8h0.7v5.7h-0.7V77.8z"/>
		<path d="M254.9,83.5l-0.1-0.5l0,0c-0.2,0.3-0.6,0.6-1.2,0.6c-0.8,0-1.2-0.6-1.2-1.1c0-0.9,0.8-1.5,2.3-1.4V81
			c0-0.3-0.1-0.9-0.9-0.9c-0.4,0-0.7,0.1-1,0.3l-0.2-0.5c0.3-0.2,0.8-0.3,1.3-0.3c1.2,0,1.5,0.8,1.5,1.6v1.4c0,0.3,0,0.7,0.1,0.9
			H254.9z M254.8,81.5c-0.8,0-1.6,0.1-1.6,0.9c0,0.5,0.3,0.7,0.7,0.7c0.5,0,0.8-0.3,0.9-0.6c0-0.1,0-0.2,0-0.2L254.8,81.5
			L254.8,81.5z"/>
		<path d="M256.6,80.6c0-0.4,0-0.7,0-1h0.6v0.6l0,0c0.2-0.4,0.6-0.7,1.3-0.7c0.5,0,1.4,0.3,1.4,1.6v2.3h-0.7v-2.2
			c0-0.6-0.2-1.1-0.9-1.1c-0.5,0-0.8,0.3-0.9,0.7c0,0.1,0,0.2,0,0.3v2.3h-0.7L256.6,80.6L256.6,80.6z"/>
		<path d="M261.9,78.5v1.1h1v0.5h-1v2.1c0,0.5,0.1,0.8,0.5,0.8c0.2,0,0.3,0,0.4-0.1v0.5c-0.1,0.1-0.4,0.1-0.6,0.1
			c-0.3,0-0.6-0.1-0.8-0.3c-0.2-0.2-0.3-0.6-0.3-1v-2.1h-0.6v-0.5h0.6v-0.9L261.9,78.5z"/>
		<path d="M267.5,83.5l-0.1-0.5l0,0c-0.2,0.3-0.6,0.6-1.2,0.6c-0.8,0-1.2-0.6-1.2-1.1c0-0.9,0.8-1.5,2.3-1.4V81
			c0-0.3-0.1-0.9-0.9-0.9c-0.4,0-0.7,0.1-1,0.3l-0.2-0.5c0.3-0.2,0.8-0.3,1.3-0.3c1.2,0,1.5,0.8,1.5,1.6v1.4c0,0.3,0,0.7,0.1,0.9
			H267.5z M267.4,81.5c-0.8,0-1.6,0.1-1.6,0.9c0,0.5,0.3,0.7,0.7,0.7c0.5,0,0.8-0.3,0.9-0.6c0-0.1,0-0.2,0-0.2V81.5z"/>
		<path d="M269.2,80.8c0-0.5,0-0.8,0-1.2h0.6v0.8l0,0c0.2-0.5,0.6-0.8,1.1-0.8c0.1,0,0.1,0,0.2,0v0.7c-0.1,0-0.1,0-0.2,0
			c-0.5,0-0.8,0.4-0.9,0.9c0,0.1,0,0.2,0,0.3v2.1h-0.7v-2.8H269.2z"/>
		<path d="M272.2,81.6c0,1,0.6,1.3,1.3,1.3c0.5,0,0.8-0.1,1.1-0.2l0.1,0.5c-0.2,0.1-0.7,0.2-1.3,0.2c-1.2,0-1.9-0.8-1.9-2
			s0.7-2.1,1.8-2.1c1.3,0,1.6,1.1,1.6,1.8c0,0.1,0,0.3,0,0.3h-2.7V81.6z M274.3,81.1c0-0.4-0.2-1.1-1-1.1c-0.7,0-1,0.6-1.1,1.1
			H274.3z"/>
		<path d="M278,83.5l-0.1-0.5l0,0c-0.2,0.3-0.6,0.6-1.2,0.6c-0.8,0-1.2-0.6-1.2-1.1c0-0.9,0.8-1.5,2.3-1.4V81c0-0.3-0.1-0.9-0.9-0.9
			c-0.4,0-0.7,0.1-1,0.3l-0.2-0.5c0.3-0.2,0.8-0.3,1.3-0.3c1.2,0,1.5,0.8,1.5,1.6v1.4c0,0.3,0,0.7,0.1,0.9H278z M277.9,81.5
			c-0.8,0-1.6,0.1-1.6,0.9c0,0.5,0.3,0.7,0.7,0.7c0.5,0,0.8-0.3,0.9-0.6c0-0.1,0-0.2,0-0.2V81.5z"/>
	</g>
</g>
<g>
	<g>
		<path class="st10" d="M38.7,149.6h-2.1v1.9H39v0.6h-3v-5.4h2.9v0.6h-2.2v1.7h2.1L38.7,149.6L38.7,149.6z"/>
		<path class="st10" d="M42,152.1l-0.1-0.5l0,0c-0.2,0.3-0.6,0.6-1.2,0.6c-0.8,0-1.2-0.6-1.2-1.1c0-0.9,0.8-1.5,2.3-1.4v-0.1
			c0-0.3-0.1-0.9-0.9-0.9c-0.4,0-0.7,0.1-1,0.3l-0.2-0.5c0.3-0.2,0.8-0.3,1.3-0.3c1.2,0,1.5,0.8,1.5,1.6v1.4c0,0.3,0,0.7,0.1,0.9H42
			z M41.9,150.1c-0.8,0-1.6,0.1-1.6,0.9c0,0.5,0.3,0.7,0.7,0.7c0.5,0,0.8-0.3,0.9-0.6c0-0.1,0-0.2,0-0.2S41.9,150.1,41.9,150.1z"/>
		<path class="st10" d="M43.6,151.4c0.2,0.1,0.6,0.3,0.9,0.3c0.5,0,0.8-0.3,0.8-0.6s-0.2-0.5-0.7-0.7c-0.7-0.3-1-0.6-1-1.1
			c0-0.6,0.5-1.1,1.3-1.1c0.4,0,0.7,0.1,0.9,0.2l-0.2,0.5c-0.1-0.1-0.4-0.2-0.8-0.2c-0.4,0-0.6,0.2-0.6,0.5s0.2,0.5,0.7,0.7
			c0.7,0.2,1,0.6,1,1.2c0,0.7-0.5,1.2-1.4,1.2c-0.4,0-0.8-0.1-1.1-0.3L43.6,151.4z"/>
		<path class="st10" d="M47.7,147.1v1.1h1v0.5h-1v2.1c0,0.5,0.1,0.8,0.5,0.8c0.2,0,0.3,0,0.4-0.1v0.5c-0.1,0.1-0.4,0.1-0.6,0.1
			c-0.3,0-0.6-0.1-0.8-0.3s-0.3-0.6-0.3-1v-2.1h-0.6v-0.5H47v-0.9L47.7,147.1z"/>
		<path class="st10" d="M49.9,150.3c0,1,0.6,1.3,1.3,1.3c0.5,0,0.8-0.1,1.1-0.2l0.1,0.5c-0.2,0.1-0.7,0.2-1.3,0.2
			c-1.2,0-1.9-0.8-1.9-2s0.7-2.1,1.8-2.1c1.3,0,1.6,1.1,1.6,1.8c0,0.1,0,0.3,0,0.3h-2.7V150.3z M52,149.8c0-0.4-0.2-1.1-1-1.1
			c-0.7,0-1,0.6-1.1,1.1H52z"/>
		<path class="st10" d="M53.5,149.5c0-0.5,0-0.8,0-1.2h0.6v0.8l0,0c0.2-0.5,0.6-0.8,1.1-0.8c0.1,0,0.1,0,0.2,0v0.7
			c-0.1,0-0.1,0-0.2,0c-0.5,0-0.8,0.4-0.9,0.9c0,0.1,0,0.2,0,0.3v2.1h-0.7L53.5,149.5L53.5,149.5z"/>
		<path class="st10" d="M56.1,149.3c0-0.4,0-0.7,0-1h0.6v0.6l0,0c0.2-0.4,0.6-0.7,1.3-0.7c0.5,0,1.4,0.3,1.4,1.6v2.3h-0.7v-2.2
			c0-0.6-0.2-1.1-0.9-1.1c-0.5,0-0.8,0.3-0.9,0.7c0,0.1,0,0.2,0,0.3v2.3h-0.7L56.1,149.3L56.1,149.3z"/>
		<path class="st10" d="M62.3,146.4H63v2.4l0,0c0.1-0.2,0.3-0.4,0.5-0.5s0.5-0.2,0.7-0.2c0.5,0,1.3,0.3,1.3,1.7v2.3h-0.7v-2.2
			c0-0.6-0.2-1.1-0.9-1.1c-0.5,0-0.8,0.3-0.9,0.7c0,0.1,0,0.2,0,0.3v2.3h-0.7V146.4z"/>
		<path class="st10" d="M67.1,150.3c0,1,0.6,1.3,1.3,1.3c0.5,0,0.8-0.1,1.1-0.2l0.1,0.5c-0.2,0.1-0.7,0.2-1.3,0.2
			c-1.2,0-1.9-0.8-1.9-2s0.7-2.1,1.8-2.1c1.3,0,1.6,1.1,1.6,1.8c0,0.1,0,0.3,0,0.3h-2.7V150.3z M69.2,149.8c0-0.4-0.2-1.1-1-1.1
			c-0.7,0-1,0.6-1.1,1.1H69.2z"/>
		<path class="st10" d="M70.7,149.3c0-0.4,0-0.7,0-1h0.6v0.6l0,0c0.2-0.4,0.6-0.7,1.2-0.7c0.5,0,0.9,0.3,1.1,0.8l0,0
			c0.1-0.2,0.3-0.4,0.4-0.5c0.2-0.2,0.5-0.3,0.9-0.3c0.5,0,1.3,0.3,1.3,1.7v2.3h-0.7V150c0-0.7-0.3-1.2-0.8-1.2
			c-0.4,0-0.7,0.3-0.8,0.6c0,0.1-0.1,0.2-0.1,0.4v2.4h-0.7v-2.3c0-0.6-0.3-1.1-0.8-1.1c-0.4,0-0.8,0.4-0.9,0.7
			c0,0.1-0.1,0.2-0.1,0.3v2.3h-0.7L70.7,149.3L70.7,149.3z"/>
		<path class="st10" d="M77.4,146.4h0.7v5.7h-0.7V146.4z"/>
		<path class="st10" d="M82.8,150.2c0,1.4-1,2.1-1.9,2.1c-1,0-1.9-0.8-1.9-2c0-1.3,0.9-2.1,1.9-2.1C82,148.2,82.8,149,82.8,150.2z
			 M79.7,150.2c0,0.8,0.5,1.5,1.2,1.5s1.2-0.6,1.2-1.5c0-0.7-0.3-1.5-1.2-1.5C80.1,148.7,79.7,149.5,79.7,150.2z"/>
		<path class="st10" d="M86.4,152c-0.2,0.1-0.6,0.2-1.1,0.2c-1.2,0-1.9-0.8-1.9-2s0.8-2.1,2.1-2.1c0.4,0,0.8,0.1,1,0.2l-0.2,0.5
			c-0.2-0.1-0.4-0.2-0.8-0.2c-0.9,0-1.4,0.7-1.4,1.5c0,0.9,0.6,1.4,1.3,1.4c0.4,0,0.7-0.1,0.9-0.2L86.4,152z"/>
		<path class="st10" d="M88,150L88,150c0.1-0.1,0.2-0.3,0.4-0.4l1.1-1.3h0.8l-1.5,1.6l1.7,2.3h-0.9l-1.3-1.9l-0.4,0.4v1.5h-0.7v-5.7
			H88V150z"/>
	</g>
</g>
<line class="st17" x1="44.5" y1="108.5" x2="45.3" y2="142.6"/>
<line class="st17" x1="63.1" y1="137" x2="45.3" y2="142.6"/>
</svg>
