<?xml version="1.0" encoding="utf-8"?>
<!-- Generator: Adobe Illustrator 28.2.0, SVG Export Plug-In . SVG Version: 6.00 Build 0)  -->
<svg version="1.1" id="Layer_1" xmlns="http://www.w3.org/2000/svg" xmlns:xlink="http://www.w3.org/1999/xlink" x="0px" y="0px"
	 viewBox="0 0 287.5 232.7" style="enable-background:new 0 0 287.5 232.7;" xml:space="preserve">
<style type="text/css">
	.st0{fill:#FAFCFC;}
	.st1{fill:none;}
	.st2{clip-path:url(#SVGID_00000004506769111032000560000009395157517080904849_);}
	.st3{fill:none;stroke:#BEBEBE;stroke-width:0.5;stroke-linejoin:round;stroke-miterlimit:10;}
	.st4{fill:none;stroke:#CECECE;stroke-width:0.5;stroke-linejoin:round;stroke-miterlimit:10;}
	.st5{fill:none;stroke:#6091A0;stroke-width:2.13;stroke-linejoin:round;stroke-miterlimit:10;}
	.st6{fill:none;stroke:#65AA81;stroke-width:2.13;stroke-linejoin:round;stroke-miterlimit:10;}
	.st7{fill:#ADD8E6;stroke:#ADD8E6;stroke-width:0.71;stroke-linecap:round;stroke-linejoin:round;stroke-miterlimit:10;}
	.st8{fill:#6091A0;stroke:#6091A0;stroke-width:0.71;stroke-linecap:round;stroke-linejoin:round;stroke-miterlimit:10;}
	.st9{fill:#65AA81;stroke:#65AA81;stroke-width:0.71;stroke-linecap:round;stroke-linejoin:round;stroke-miterlimit:10;}
	.st10{fill:none;stroke:#65AA81;stroke-width:1.07;stroke-linecap:round;stroke-linejoin:round;stroke-miterlimit:10;}
	.st11{fill:#65AA81;}
	.st12{fill:#6091A0;}
	.st13{fill:#6091A0;stroke:#6091A0;stroke-width:0.75;stroke-miterlimit:10;}
	.st14{clip-path:url(#SVGID_00000143582278192605606570000005231222190907376297_);}
	.st15{enable-background:new    ;}
	.st16{fill:#4D4D4D;}
	.st17{font-family:'ArialMT';}
	.st18{font-size:8.8px;}
	.st19{fill:#414242;}
</style>
<rect x="169.7" y="204.1" class="st0" width="117.8" height="28.5"/>
<rect y="-65.2" class="st1" width="288" height="288"/>
<g>
	<g>
		<defs>
			<rect id="SVGID_1_" x="32.2" y="-2.7" width="250.3" height="206.8"/>
		</defs>
		<clipPath id="SVGID_00000026859578707887166960000013061451953597018811_">
			<use xlink:href="#SVGID_1_"  style="overflow:visible;"/>
		</clipPath>
		<g style="clip-path:url(#SVGID_00000026859578707887166960000013061451953597018811_);">
			<line class="st3" x1="32.2" y1="198.6" x2="282.5" y2="198.6"/>
			<line class="st3" x1="32.2" y1="143.8" x2="282.5" y2="143.8"/>
			<line class="st4" x1="32.2" y1="88.9" x2="282.5" y2="88.9"/>
			<line class="st3" x1="32.2" y1="34.1" x2="282.5" y2="34.1"/>
			<polyline class="st5" points="44.5,23.2 65,25.9 85.5,121.8 106.1,160.2 126.6,173.9 147.1,175 167.6,182.1 188.1,187.6 
				208.6,193.1 229.2,193.6 249.7,194.2 270.2,194.7 			"/>
			<polyline class="st6" points="44.5,23.2 65,88.9 85.5,94.4 106.1,171.2 126.6,176.6 147.1,187.6 167.6,189.8 188.1,190.9 
				208.6,191.4 229.2,192 249.7,192.5 270.2,193.1 			"/>
			<circle class="st7" cx="44.5" cy="23.2" r="1.9"/>
			<circle class="st8" cx="65" cy="25.9" r="1.9"/>
			<circle class="st8" cx="85.5" cy="121.8" r="1.9"/>
			<circle class="st8" cx="106.1" cy="160.2" r="1.9"/>
			<circle class="st8" cx="126.6" cy="173.9" r="1.9"/>
			<circle class="st8" cx="147.1" cy="175" r="1.9"/>
			<circle class="st8" cx="167.6" cy="182.1" r="1.9"/>
			<circle class="st8" cx="188.1" cy="187.6" r="1.9"/>
			<circle class="st8" cx="208.6" cy="193.1" r="2"/>
			<circle class="st8" cx="229.2" cy="193.6" r="2"/>
			<circle class="st8" cx="249.7" cy="194.2" r="2"/>
			<circle class="st8" cx="270.2" cy="194.7" r="2"/>
			<circle class="st9" cx="44.5" cy="23.2" r="1.9"/>
			<circle class="st9" cx="65" cy="88.9" r="1.9"/>
			<g>
				<g>
				</g>
			</g>
			<circle class="st9" cx="85.5" cy="94.4" r="1.9"/>
			<circle class="st9" cx="106.1" cy="171.2" r="1.9"/>
			<circle class="st9" cx="126.6" cy="176.6" r="1.9"/>
			<circle class="st9" cx="147.1" cy="187.6" r="1.9"/>
			<circle class="st9" cx="167.6" cy="189.8" r="2"/>
			<circle class="st9" cx="188.1" cy="190.9" r="2"/>
			<circle class="st9" cx="208.6" cy="191.4" r="2"/>
			<circle class="st9" cx="229.2" cy="192" r="2"/>
			<circle class="st9" cx="249.7" cy="192.5" r="2"/>
			<circle class="st9" cx="270.2" cy="193.1" r="2"/>
			<path class="st10" d="M45.7,22.9"/>
			<g>
				<g>
					<path class="st11" d="M44.6,84.3c0,1.8-1.1,2.8-2.5,2.8c-1.4,0-2.4-1.1-2.4-2.7c0-1.7,1.1-2.8,2.5-2.8
						C43.7,81.6,44.6,82.7,44.6,84.3z M40.4,84.4c0,1.2,0.6,2.2,1.7,2.2c1.1,0,1.7-1,1.7-2.2c0-1.1-0.6-2.2-1.7-2.2
						C41,82.1,40.4,83.2,40.4,84.4z"/>
					<path class="st11" d="M47.6,87l-0.1-0.5h0c-0.2,0.3-0.6,0.6-1.2,0.6c-0.8,0-1.2-0.6-1.2-1.1c0-0.9,0.8-1.5,2.3-1.4v-0.1
						c0-0.3-0.1-0.9-0.9-0.9c-0.4,0-0.7,0.1-1,0.3l-0.2-0.5c0.3-0.2,0.8-0.3,1.3-0.3c1.2,0,1.5,0.8,1.5,1.6v1.4c0,0.3,0,0.7,0.1,0.9
						H47.6z M47.5,85.1c-0.8,0-1.6,0.1-1.6,0.9c0,0.5,0.3,0.7,0.7,0.7c0.5,0,0.8-0.3,0.9-0.6c0-0.1,0-0.2,0-0.2V85.1z"/>
					<path class="st11" d="M50.1,84.9L50.1,84.9c0.1-0.1,0.2-0.3,0.4-0.4l1.1-1.3h0.8l-1.5,1.6l1.7,2.3h-0.9l-1.3-1.9l-0.4,0.4V87
						h-0.7v-5.7h0.7V84.9z"/>
					<path class="st11" d="M53,86.3c0.2,0.1,0.6,0.3,0.9,0.3c0.5,0,0.8-0.3,0.8-0.6c0-0.3-0.2-0.5-0.7-0.7c-0.7-0.3-1-0.6-1-1.1
						c0-0.6,0.5-1.1,1.3-1.1c0.4,0,0.7,0.1,0.9,0.2l-0.2,0.5c-0.1-0.1-0.4-0.2-0.8-0.2c-0.4,0-0.6,0.2-0.6,0.5
						c0,0.3,0.2,0.5,0.7,0.7c0.7,0.2,1,0.6,1,1.2c0,0.7-0.5,1.2-1.4,1.2c-0.4,0-0.8-0.1-1.1-0.3L53,86.3z"/>
				</g>
			</g>
		</g>
	</g>
	<g>
		<g>
			<path class="st12" d="M38.1,8c0,2.1-1.3,3.2-2.8,3.2c-1.6,0-2.7-1.2-2.7-3.1c0-1.9,1.2-3.2,2.8-3.2C37,4.9,38.1,6.2,38.1,8z
				 M33.4,8.1c0,1.3,0.7,2.5,1.9,2.5c1.2,0,1.9-1.1,1.9-2.5c0-1.2-0.6-2.5-1.9-2.5C34,5.5,33.4,6.7,33.4,8.1z"/>
			<path class="st12" d="M41.5,11.1l-0.1-0.5h0c-0.2,0.3-0.7,0.6-1.3,0.6c-0.9,0-1.3-0.6-1.3-1.2c0-1.1,0.9-1.6,2.6-1.6V8.2
				c0-0.4-0.1-1-1-1c-0.4,0-0.8,0.1-1.1,0.3L39,7c0.4-0.2,0.9-0.4,1.4-0.4c1.3,0,1.7,0.9,1.7,1.8V10c0,0.4,0,0.7,0.1,1H41.5z
				 M41.4,8.8c-0.9,0-1.8,0.1-1.8,1c0,0.5,0.3,0.8,0.7,0.8c0.6,0,0.9-0.4,1.1-0.7c0-0.1,0-0.2,0-0.2V8.8z"/>
			<path class="st12" d="M44.2,8.7L44.2,8.7c0.1-0.2,0.3-0.3,0.4-0.5l1.3-1.5h1l-1.7,1.8l1.9,2.6h-1L44.6,9l-0.4,0.5v1.6h-0.8V4.7
				h0.8V8.7z"/>
			<path class="st12" d="M47.5,10.2c0.2,0.1,0.7,0.3,1,0.3c0.6,0,0.8-0.3,0.8-0.6c0-0.4-0.2-0.6-0.8-0.8c-0.8-0.3-1.2-0.7-1.2-1.2
				c0-0.7,0.6-1.3,1.5-1.3c0.4,0,0.8,0.1,1.1,0.3l-0.2,0.6c-0.2-0.1-0.5-0.3-0.9-0.3c-0.5,0-0.7,0.3-0.7,0.6c0,0.4,0.3,0.5,0.8,0.7
				c0.8,0.3,1.1,0.7,1.1,1.3c0,0.8-0.6,1.3-1.6,1.3c-0.5,0-0.9-0.1-1.2-0.3L47.5,10.2z"/>
		</g>
	</g>
	<g>
		<g>
			<path class="st11" d="M36,16h-2.4v2.2h2.6v0.7h-3.4v-6.1h3.3v0.7h-2.5v1.9H36V16z"/>
			<path class="st11" d="M39.7,18.8l-0.1-0.5h0c-0.2,0.3-0.7,0.6-1.3,0.6c-0.9,0-1.3-0.6-1.3-1.2c0-1.1,0.9-1.6,2.6-1.6V16
				c0-0.4-0.1-1-1-1c-0.4,0-0.8,0.1-1.1,0.3l-0.2-0.5c0.4-0.2,0.9-0.4,1.4-0.4c1.3,0,1.7,0.9,1.7,1.8v1.6c0,0.4,0,0.7,0.1,1H39.7z
				 M39.6,16.6c-0.9,0-1.8,0.1-1.8,1c0,0.5,0.3,0.8,0.7,0.8c0.6,0,0.9-0.4,1.1-0.7c0-0.1,0-0.2,0-0.2V16.6z"/>
			<path class="st11" d="M41.5,18c0.2,0.1,0.7,0.3,1,0.3c0.6,0,0.8-0.3,0.8-0.6c0-0.4-0.2-0.6-0.8-0.8c-0.8-0.3-1.2-0.7-1.2-1.2
				c0-0.7,0.6-1.3,1.5-1.3c0.4,0,0.8,0.1,1.1,0.3l-0.2,0.6c-0.2-0.1-0.5-0.3-0.9-0.3c-0.5,0-0.7,0.3-0.7,0.6c0,0.4,0.3,0.5,0.8,0.7
				c0.8,0.3,1.1,0.7,1.1,1.3c0,0.8-0.6,1.3-1.6,1.3c-0.5,0-0.9-0.1-1.2-0.3L41.5,18z"/>
			<path class="st11" d="M46.1,13.2v1.3h1.1v0.6h-1.1v2.3c0,0.5,0.2,0.8,0.6,0.8c0.2,0,0.4,0,0.5-0.1l0,0.6
				c-0.2,0.1-0.4,0.1-0.7,0.1c-0.4,0-0.7-0.1-0.9-0.3c-0.2-0.2-0.3-0.6-0.3-1.1v-2.4h-0.7v-0.6h0.7v-1L46.1,13.2z"/>
			<path class="st11" d="M48.6,16.8c0,1.1,0.7,1.5,1.5,1.5c0.6,0,0.9-0.1,1.2-0.2l0.1,0.6c-0.3,0.1-0.8,0.3-1.5,0.3
				c-1.3,0-2.1-0.9-2.1-2.2c0-1.3,0.8-2.3,2-2.3c1.4,0,1.8,1.2,1.8,2c0,0.2,0,0.3,0,0.4H48.6z M50.9,16.2c0-0.5-0.2-1.3-1.1-1.3
				c-0.8,0-1.2,0.7-1.2,1.3H50.9z"/>
			<path class="st11" d="M52.7,15.8c0-0.5,0-1,0-1.4h0.7l0,0.9h0c0.2-0.6,0.7-1,1.2-1c0.1,0,0.1,0,0.2,0v0.7c-0.1,0-0.2,0-0.3,0
				c-0.6,0-1,0.4-1.1,1c0,0.1,0,0.2,0,0.4v2.3h-0.8V15.8z"/>
			<path class="st11" d="M55.6,15.7c0-0.5,0-0.8,0-1.2h0.7l0,0.7h0c0.2-0.4,0.7-0.8,1.4-0.8c0.6,0,1.5,0.4,1.5,1.9v2.6h-0.8v-2.5
				c0-0.7-0.3-1.3-1-1.3c-0.5,0-0.9,0.4-1.1,0.8c0,0.1-0.1,0.2-0.1,0.4v2.6h-0.8V15.7z"/>
			<path class="st11" d="M62.5,12.4h0.8v2.7h0c0.1-0.2,0.3-0.4,0.6-0.6c0.2-0.1,0.5-0.2,0.8-0.2c0.6,0,1.5,0.4,1.5,1.9v2.6h-0.8
				v-2.5c0-0.7-0.3-1.3-1-1.3c-0.5,0-0.9,0.4-1.1,0.8c0,0.1-0.1,0.2-0.1,0.4v2.6h-0.8V12.4z"/>
			<path class="st11" d="M68,16.8c0,1.1,0.7,1.5,1.5,1.5c0.6,0,0.9-0.1,1.2-0.2l0.1,0.6c-0.3,0.1-0.8,0.3-1.5,0.3
				c-1.3,0-2.1-0.9-2.1-2.2c0-1.3,0.8-2.3,2-2.3c1.4,0,1.8,1.2,1.8,2c0,0.2,0,0.3,0,0.4H68z M70.3,16.2c0-0.5-0.2-1.3-1.1-1.3
				c-0.8,0-1.2,0.7-1.2,1.3H70.3z"/>
			<path class="st11" d="M72,15.7c0-0.5,0-0.8,0-1.2h0.7l0,0.7h0c0.2-0.4,0.6-0.8,1.4-0.8c0.6,0,1,0.4,1.2,0.9h0
				c0.1-0.2,0.3-0.4,0.5-0.6c0.3-0.2,0.5-0.3,1-0.3c0.6,0,1.4,0.4,1.4,1.9v2.6h-0.8v-2.5c0-0.8-0.3-1.3-0.9-1.3
				c-0.5,0-0.8,0.3-0.9,0.7c0,0.1-0.1,0.3-0.1,0.4v2.7h-0.8v-2.6c0-0.7-0.3-1.2-0.9-1.2c-0.5,0-0.9,0.4-1,0.8c0,0.1-0.1,0.3-0.1,0.4
				v2.6H72V15.7z"/>
			<path class="st11" d="M79.5,12.4h0.8v6.4h-0.8V12.4z"/>
			<path class="st11" d="M85.6,16.6c0,1.6-1.1,2.3-2.2,2.3c-1.2,0-2.1-0.9-2.1-2.2c0-1.5,1-2.3,2.2-2.3
				C84.8,14.4,85.6,15.3,85.6,16.6z M82.1,16.7c0,1,0.5,1.7,1.3,1.7c0.8,0,1.3-0.7,1.3-1.7c0-0.7-0.4-1.7-1.3-1.7
				C82.5,15,82.1,15.8,82.1,16.7z"/>
			<path class="st11" d="M89.7,18.7c-0.2,0.1-0.7,0.3-1.2,0.3c-1.3,0-2.2-0.9-2.2-2.2c0-1.3,0.9-2.3,2.3-2.3c0.5,0,0.9,0.1,1.1,0.2
				l-0.2,0.6c-0.2-0.1-0.5-0.2-0.9-0.2c-1,0-1.5,0.7-1.5,1.6c0,1,0.6,1.6,1.5,1.6c0.4,0,0.7-0.1,1-0.2L89.7,18.7z"/>
			<path class="st11" d="M91.4,16.5L91.4,16.5c0.1-0.2,0.3-0.3,0.4-0.5l1.3-1.5h1l-1.7,1.8l1.9,2.6h-1l-1.5-2.1l-0.4,0.5v1.6h-0.8
				v-6.4h0.8V16.5z"/>
		</g>
	</g>
	<g>
		<g>
			<path class="st12" d="M83.9,44.6h-2.1v1.9h2.3v0.6h-3v-5.4H84v0.6h-2.2V44h2.1V44.6z"/>
			<path class="st12" d="M87.1,47.1l-0.1-0.5h0c-0.2,0.3-0.6,0.6-1.2,0.6c-0.8,0-1.2-0.6-1.2-1.1c0-0.9,0.8-1.5,2.3-1.4v-0.1
				c0-0.3-0.1-0.9-0.9-0.9c-0.4,0-0.7,0.1-1,0.3L85,43.5c0.3-0.2,0.8-0.3,1.3-0.3c1.2,0,1.5,0.8,1.5,1.6v1.4c0,0.3,0,0.7,0.1,0.9
				H87.1z M87,45.1c-0.8,0-1.6,0.1-1.6,0.9c0,0.5,0.3,0.7,0.7,0.7c0.5,0,0.8-0.3,0.9-0.6c0-0.1,0-0.2,0-0.2V45.1z"/>
			<path class="st12" d="M88.7,46.4c0.2,0.1,0.6,0.3,0.9,0.3c0.5,0,0.8-0.3,0.8-0.6c0-0.3-0.2-0.5-0.7-0.7c-0.7-0.3-1-0.6-1-1.1
				c0-0.6,0.5-1.1,1.3-1.1c0.4,0,0.7,0.1,0.9,0.2l-0.2,0.5c-0.1-0.1-0.4-0.2-0.8-0.2c-0.4,0-0.6,0.2-0.6,0.5c0,0.3,0.2,0.5,0.7,0.7
				c0.7,0.2,1,0.6,1,1.2c0,0.7-0.5,1.2-1.4,1.2c-0.4,0-0.8-0.1-1.1-0.3L88.7,46.4z"/>
			<path class="st12" d="M92.8,42.1v1.1h1v0.5h-1v2.1c0,0.5,0.1,0.8,0.5,0.8c0.2,0,0.3,0,0.4-0.1l0,0.5c-0.1,0.1-0.4,0.1-0.6,0.1
				c-0.3,0-0.6-0.1-0.8-0.3c-0.2-0.2-0.3-0.6-0.3-1v-2.1h-0.6v-0.5h0.6v-0.9L92.8,42.1z"/>
			<path class="st12" d="M95,45.3c0,1,0.6,1.3,1.3,1.3c0.5,0,0.8-0.1,1.1-0.2l0.1,0.5c-0.2,0.1-0.7,0.2-1.3,0.2
				c-1.2,0-1.9-0.8-1.9-2c0-1.2,0.7-2.1,1.8-2.1c1.3,0,1.6,1.1,1.6,1.8c0,0.1,0,0.3,0,0.3H95z M97.1,44.8c0-0.4-0.2-1.1-1-1.1
				c-0.7,0-1,0.6-1.1,1.1H97.1z"/>
			<path class="st12" d="M98.7,44.5c0-0.5,0-0.8,0-1.2h0.6l0,0.8h0c0.2-0.5,0.6-0.8,1.1-0.8c0.1,0,0.1,0,0.2,0v0.7
				c-0.1,0-0.1,0-0.2,0c-0.5,0-0.8,0.4-0.9,0.9c0,0.1,0,0.2,0,0.3v2.1h-0.7V44.5z"/>
			<path class="st12" d="M101.3,44.3c0-0.4,0-0.7,0-1h0.6l0,0.6h0c0.2-0.4,0.6-0.7,1.3-0.7c0.5,0,1.4,0.3,1.4,1.6v2.3h-0.7v-2.2
				c0-0.6-0.2-1.1-0.9-1.1c-0.5,0-0.8,0.3-0.9,0.7c0,0.1,0,0.2,0,0.3v2.3h-0.7V44.3z"/>
			<path class="st12" d="M107.4,41.4h0.7v2.4h0c0.1-0.2,0.3-0.4,0.5-0.5c0.2-0.1,0.5-0.2,0.7-0.2c0.5,0,1.3,0.3,1.3,1.7v2.3H110
				v-2.2c0-0.6-0.2-1.1-0.9-1.1c-0.5,0-0.8,0.3-0.9,0.7c0,0.1,0,0.2,0,0.3v2.3h-0.7V41.4z"/>
			<path class="st12" d="M112.2,45.3c0,1,0.6,1.3,1.3,1.3c0.5,0,0.8-0.1,1.1-0.2l0.1,0.5c-0.2,0.1-0.7,0.2-1.3,0.2
				c-1.2,0-1.9-0.8-1.9-2c0-1.2,0.7-2.1,1.8-2.1c1.3,0,1.6,1.1,1.6,1.8c0,0.1,0,0.3,0,0.3H112.2z M114.3,44.8c0-0.4-0.2-1.1-1-1.1
				c-0.7,0-1,0.6-1.1,1.1H114.3z"/>
			<path class="st12" d="M115.9,44.3c0-0.4,0-0.7,0-1h0.6l0,0.6h0c0.2-0.4,0.6-0.7,1.2-0.7c0.5,0,0.9,0.3,1.1,0.8h0
				c0.1-0.2,0.3-0.4,0.4-0.5c0.2-0.2,0.5-0.3,0.9-0.3c0.5,0,1.3,0.3,1.3,1.7v2.3h-0.7v-2.2c0-0.7-0.3-1.2-0.8-1.2
				c-0.4,0-0.7,0.3-0.8,0.6c0,0.1-0.1,0.2-0.1,0.4v2.4h-0.7v-2.3c0-0.6-0.3-1.1-0.8-1.1c-0.4,0-0.8,0.4-0.9,0.7
				c0,0.1-0.1,0.2-0.1,0.3v2.3h-0.7V44.3z"/>
			<path class="st12" d="M122.5,41.4h0.7v5.7h-0.7V41.4z"/>
			<path class="st12" d="M127.9,45.1c0,1.4-1,2.1-1.9,2.1c-1,0-1.9-0.8-1.9-2c0-1.3,0.9-2.1,1.9-2.1C127.2,43.2,127.9,44,127.9,45.1
				z M124.9,45.2c0,0.8,0.5,1.5,1.2,1.5c0.7,0,1.2-0.6,1.2-1.5c0-0.7-0.3-1.5-1.2-1.5C125.2,43.7,124.9,44.5,124.9,45.2z"/>
			<path class="st12" d="M131.6,47c-0.2,0.1-0.6,0.2-1.1,0.2c-1.2,0-1.9-0.8-1.9-2c0-1.2,0.8-2.1,2.1-2.1c0.4,0,0.8,0.1,1,0.2
				l-0.2,0.5c-0.2-0.1-0.4-0.2-0.8-0.2c-0.9,0-1.4,0.7-1.4,1.5c0,0.9,0.6,1.4,1.3,1.4c0.4,0,0.7-0.1,0.9-0.2L131.6,47z"/>
			<path class="st12" d="M133.1,45L133.1,45c0.1-0.1,0.2-0.3,0.4-0.4l1.1-1.3h0.8l-1.5,1.6l1.7,2.3h-0.9l-1.3-1.9l-0.4,0.4v1.5h-0.7
				v-5.7h0.7V45z"/>
		</g>
	</g>
	<line class="st13" x1="78.7" y1="42.5" x2="65" y2="27.8"/>
	<g>
		<g>
		</g>
	</g>
</g>
<g>
	<g>
		<defs>
			<rect id="SVGID_00000070800376334192877780000006744895732771974814_" y="-65.2" width="288" height="288"/>
		</defs>
		<clipPath id="SVGID_00000065074764571702016170000015069494438896359599_">
			<use xlink:href="#SVGID_00000070800376334192877780000006744895732771974814_"  style="overflow:visible;"/>
		</clipPath>
		<g style="clip-path:url(#SVGID_00000065074764571702016170000015069494438896359599_);">
			<g>
				<g class="st15">
					<path class="st16" d="M14.6,198.6c0,1.9-0.7,3-2,3c-1.1,0-1.9-1-1.9-2.9s0.8-3,2-3S14.6,196.8,14.6,198.6z M11.5,198.7
						c0,1.5,0.5,2.3,1.2,2.3c0.8,0,1.2-0.9,1.2-2.4c0-1.4-0.4-2.3-1.2-2.3C12,196.3,11.5,197.1,11.5,198.7z"/>
				</g>
			</g>
			<g>
				<g class="st15">
					<path class="st16" d="M7.6,141.7L7.6,141.7l-1,0.5l-0.1-0.6l1.2-0.7h0.7v5.7H7.6V141.7z"/>
					<path class="st16" d="M15,143.8c0,1.9-0.7,3-2,3c-1.1,0-1.9-1-1.9-2.9s0.8-3,2-3S15,142,15,143.8z M11.9,143.9
						c0,1.5,0.5,2.3,1.2,2.3c0.8,0,1.2-0.9,1.2-2.4c0-1.4-0.4-2.3-1.2-2.3C12.3,141.5,11.9,142.3,11.9,143.9z"/>
				</g>
			</g>
			<g>
				<g class="st15">
					<path class="st16" d="M5.9,91.9v-0.5l0.6-0.6c1.5-1.4,2.1-2.1,2.1-3c0-0.6-0.3-1.1-1.1-1.1c-0.5,0-1,0.3-1.2,0.5L6,86.7
						c0.4-0.3,1-0.6,1.6-0.6c1.2,0,1.7,0.8,1.7,1.7c0,1.1-0.8,1.9-2,3.1L7,91.3l0,0h2.6v0.6H5.9z"/>
					<path class="st16" d="M15,89c0,1.9-0.7,3-2,3c-1.1,0-1.9-1-1.9-2.9s0.8-3,2-3S15,87.2,15,89z M11.9,89.1c0,1.5,0.5,2.3,1.2,2.3
						c0.8,0,1.2-0.9,1.2-2.4c0-1.4-0.4-2.3-1.2-2.3C12.3,86.7,11.9,87.5,11.9,89.1z"/>
				</g>
			</g>
			<rect x="42.1" y="207.8" class="st1" width="4.9" height="10.4"/>
			<text transform="matrix(1 0 0 1 42.0527 215.3984)" class="st16 st17 st18">1</text>
			<rect x="62.6" y="207.8" class="st1" width="4.9" height="10.4"/>
			<text transform="matrix(1 0 0 1 62.5728 215.3984)" class="st16 st17 st18">2</text>
			<rect x="83.1" y="207.8" class="st1" width="4.9" height="10.4"/>
			<text transform="matrix(1 0 0 1 83.083 215.3979)" class="st16 st17 st18">3</text>
			<rect x="103.6" y="207.8" class="st1" width="4.9" height="10.4"/>
			<text transform="matrix(1 0 0 1 103.603 215.3984)" class="st16 st17 st18">4</text>
			<rect x="124.1" y="207.8" class="st1" width="4.9" height="10.4"/>
			<text transform="matrix(1 0 0 1 124.123 215.3979)" class="st16 st17 st18">5</text>
			<rect x="144.6" y="207.8" class="st1" width="4.9" height="10.4"/>
			<text transform="matrix(1 0 0 1 144.6431 215.3979)" class="st16 st17 st18">6</text>
			<rect x="165.2" y="207.8" class="st1" width="4.9" height="10.4"/>
			<text transform="matrix(1 0 0 1 165.1631 215.3979)" class="st16 st17 st18">7</text>
			<rect x="185.7" y="207.8" class="st1" width="4.9" height="10.4"/>
			<text transform="matrix(1 0 0 1 185.6831 215.3979)" class="st16 st17 st18">8</text>
			<g>
				<g>
				</g>
			</g>
			<text transform="matrix(1 0 0 1 206.2031 215.3979)" class="st16 st17 st18">9</text>
			<rect x="224.3" y="207.8" class="st1" width="9.8" height="10.4"/>
			<text transform="matrix(1 0 0 1 224.2759 215.3979)" class="st16 st17 st18">10</text>
			<rect x="245.1" y="207.8" class="st1" width="9.8" height="10.4"/>
			<text transform="matrix(1 0 0 1 245.1221 215.3984)" class="st16 st17 st18">11</text>
			<rect x="265.3" y="207.8" class="st1" width="9.8" height="10.4"/>
			<text transform="matrix(1 0 0 1 265.3159 215.3979)" class="st16 st17 st18">12</text>
			<line class="st5" x1="200" y1="66.4" x2="211.9" y2="66.4"/>
			<line class="st6" x1="199.9" y1="55.5" x2="211.7" y2="55.5"/>
			<g>
				<g>
					<path d="M215.7,57.6c0.3,0.2,0.8,0.3,1.2,0.3c0.7,0,1.1-0.4,1.1-0.9c0-0.5-0.3-0.8-1-1.1c-0.9-0.3-1.4-0.8-1.4-1.5
						c0-0.8,0.7-1.5,1.7-1.5c0.5,0,1,0.1,1.2,0.3l-0.2,0.6c-0.2-0.1-0.5-0.3-1-0.3c-0.7,0-1,0.4-1,0.8c0,0.5,0.3,0.7,1.1,1
						c0.9,0.4,1.4,0.8,1.4,1.6c0,0.8-0.6,1.6-1.9,1.6c-0.5,0-1.1-0.2-1.4-0.4L215.7,57.6z"/>
					<path d="M219.8,52.8h0.7v2.4h0c0.1-0.2,0.3-0.4,0.5-0.5c0.2-0.1,0.5-0.2,0.7-0.2c0.5,0,1.3,0.3,1.3,1.7v2.3h-0.7v-2.2
						c0-0.6-0.2-1.1-0.9-1.1c-0.5,0-0.8,0.3-0.9,0.7c0,0.1,0,0.2,0,0.3v2.3h-0.7V52.8z"/>
					<path d="M226.3,58.5l-0.1-0.5h0c-0.2,0.3-0.6,0.6-1.2,0.6c-0.8,0-1.2-0.6-1.2-1.1c0-0.9,0.8-1.5,2.3-1.4v-0.1
						c0-0.3-0.1-0.9-0.9-0.9c-0.4,0-0.7,0.1-1,0.3l-0.2-0.5c0.3-0.2,0.8-0.3,1.3-0.3c1.2,0,1.5,0.8,1.5,1.6v1.4c0,0.3,0,0.7,0.1,0.9
						H226.3z M226.2,56.5c-0.8,0-1.6,0.1-1.6,0.9c0,0.5,0.3,0.7,0.7,0.7c0.5,0,0.8-0.3,0.9-0.6c0-0.1,0-0.2,0-0.2V56.5z"/>
					<path d="M228.1,55.8c0-0.5,0-0.8,0-1.2h0.6l0,0.8h0c0.2-0.5,0.6-0.8,1.1-0.8c0.1,0,0.1,0,0.2,0v0.7c-0.1,0-0.1,0-0.2,0
						c-0.5,0-0.8,0.4-0.9,0.9c0,0.1,0,0.2,0,0.3v2.1h-0.7V55.8z"/>
					<path d="M231.1,56.7c0,1,0.6,1.3,1.3,1.3c0.5,0,0.8-0.1,1.1-0.2l0.1,0.5c-0.2,0.1-0.7,0.2-1.3,0.2c-1.2,0-1.9-0.8-1.9-2
						c0-1.2,0.7-2.1,1.8-2.1c1.3,0,1.6,1.1,1.6,1.8c0,0.1,0,0.3,0,0.3H231.1z M233.1,56.2c0-0.4-0.2-1.1-1-1.1c-0.7,0-1,0.6-1.1,1.1
						H233.1z"/>
					<path d="M239.9,56.5c0,1.4-1,2.1-1.9,2.1c-1,0-1.9-0.8-1.9-2c0-1.3,0.9-2.1,1.9-2.1C239.1,54.5,239.9,55.3,239.9,56.5z
						 M236.8,56.5c0,0.8,0.5,1.5,1.2,1.5c0.7,0,1.2-0.6,1.2-1.5c0-0.7-0.3-1.5-1.2-1.5C237.2,55,236.8,55.8,236.8,56.5z"/>
					<path d="M240.8,58.5v-3.3h-0.5v-0.5h0.5v-0.2c0-0.5,0.1-1,0.4-1.4c0.3-0.3,0.6-0.4,0.9-0.4c0.3,0,0.5,0.1,0.6,0.1l-0.1,0.5
						c-0.1,0-0.2-0.1-0.5-0.1c-0.6,0-0.8,0.5-0.8,1.1v0.2h0.9v0.5h-0.9v3.3H240.8z"/>
					<path d="M247.6,58.3c-0.2,0.1-0.6,0.2-1.1,0.2c-1.2,0-1.9-0.8-1.9-2c0-1.2,0.8-2.1,2.1-2.1c0.4,0,0.8,0.1,1,0.2l-0.2,0.5
						c-0.2-0.1-0.4-0.2-0.8-0.2c-0.9,0-1.4,0.7-1.4,1.5c0,0.9,0.6,1.4,1.3,1.4c0.4,0,0.7-0.1,0.9-0.2L247.6,58.3z"/>
					<path d="M251.9,56.5c0,1.4-1,2.1-1.9,2.1c-1,0-1.9-0.8-1.9-2c0-1.3,0.9-2.1,1.9-2.1C251.1,54.5,251.9,55.3,251.9,56.5z
						 M248.8,56.5c0,0.8,0.5,1.5,1.2,1.5c0.7,0,1.2-0.6,1.2-1.5c0-0.7-0.3-1.5-1.2-1.5C249.2,55,248.8,55.8,248.8,56.5z"/>
					<path d="M256,57.4c0,0.4,0,0.8,0,1.1h-0.6l0-0.6h0c-0.2,0.3-0.6,0.7-1.3,0.7c-0.6,0-1.3-0.3-1.3-1.7v-2.3h0.7v2.1
						c0,0.7,0.2,1.2,0.9,1.2c0.5,0,0.8-0.3,0.9-0.6c0-0.1,0.1-0.2,0.1-0.4v-2.4h0.7V57.4z"/>
					<path d="M257.2,55.7c0-0.4,0-0.7,0-1h0.6l0,0.6h0c0.2-0.4,0.6-0.7,1.3-0.7c0.5,0,1.4,0.3,1.4,1.6v2.3h-0.7v-2.2
						c0-0.6-0.2-1.1-0.9-1.1c-0.5,0-0.8,0.3-0.9,0.7c0,0.1,0,0.2,0,0.3v2.3h-0.7V55.7z"/>
					<path d="M262.5,53.5v1.1h1v0.5h-1v2.1c0,0.5,0.1,0.8,0.5,0.8c0.2,0,0.3,0,0.4-0.1l0,0.5c-0.1,0.1-0.4,0.1-0.6,0.1
						c-0.3,0-0.6-0.1-0.8-0.3c-0.2-0.2-0.3-0.6-0.3-1v-2.1h-0.6v-0.5h0.6v-0.9L262.5,53.5z"/>
				</g>
			</g>
			<g>
				<g>
					<path d="M215.7,67.8c0.3,0.2,0.8,0.3,1.2,0.3c0.7,0,1.1-0.4,1.1-0.9c0-0.5-0.3-0.8-1-1.1c-0.9-0.3-1.4-0.8-1.4-1.5
						c0-0.8,0.7-1.5,1.7-1.5c0.5,0,1,0.1,1.2,0.3l-0.2,0.6c-0.2-0.1-0.5-0.3-1-0.3c-0.7,0-1,0.4-1,0.8c0,0.5,0.3,0.7,1.1,1
						c0.9,0.4,1.4,0.8,1.4,1.6c0,0.8-0.6,1.6-1.9,1.6c-0.5,0-1.1-0.2-1.4-0.4L215.7,67.8z"/>
					<path d="M219.7,63h0.7v2.4h0c0.1-0.2,0.3-0.4,0.5-0.5c0.2-0.1,0.5-0.2,0.7-0.2c0.5,0,1.3,0.3,1.3,1.7v2.3h-0.7v-2.2
						c0-0.6-0.2-1.1-0.9-1.1c-0.5,0-0.8,0.3-0.9,0.7c0,0.1,0,0.2,0,0.3v2.3h-0.7V63z"/>
					<path d="M226.3,68.7l-0.1-0.5h0c-0.2,0.3-0.6,0.6-1.2,0.6c-0.8,0-1.2-0.6-1.2-1.1c0-0.9,0.8-1.5,2.3-1.4v-0.1
						c0-0.3-0.1-0.9-0.9-0.9c-0.4,0-0.7,0.1-1,0.3l-0.2-0.5c0.3-0.2,0.8-0.3,1.3-0.3c1.2,0,1.5,0.8,1.5,1.6v1.4c0,0.3,0,0.7,0.1,0.9
						H226.3z M226.2,66.7c-0.8,0-1.6,0.1-1.6,0.9c0,0.5,0.3,0.7,0.7,0.7c0.5,0,0.8-0.3,0.9-0.6c0-0.1,0-0.2,0-0.2V66.7z"/>
					<path d="M228,66c0-0.5,0-0.8,0-1.2h0.6l0,0.8h0c0.2-0.5,0.6-0.8,1.1-0.8c0.1,0,0.1,0,0.2,0v0.7c-0.1,0-0.1,0-0.2,0
						c-0.5,0-0.8,0.4-0.9,0.9c0,0.1,0,0.2,0,0.3v2.1H228V66z"/>
					<path d="M231,66.9c0,1,0.6,1.3,1.3,1.3c0.5,0,0.8-0.1,1.1-0.2l0.1,0.5c-0.2,0.1-0.7,0.2-1.3,0.2c-1.2,0-1.9-0.8-1.9-2
						c0-1.2,0.7-2.1,1.8-2.1c1.3,0,1.6,1.1,1.6,1.8c0,0.1,0,0.3,0,0.3H231z M233.1,66.3c0-0.4-0.2-1.1-1-1.1c-0.7,0-1,0.6-1.1,1.1
						H233.1z"/>
					<path d="M239.8,66.7c0,1.4-1,2.1-1.9,2.1c-1,0-1.9-0.8-1.9-2c0-1.3,0.9-2.1,1.9-2.1C239.1,64.7,239.8,65.5,239.8,66.7z
						 M236.8,66.7c0,0.8,0.5,1.5,1.2,1.5c0.7,0,1.2-0.6,1.2-1.5c0-0.7-0.3-1.5-1.2-1.5C237.1,65.2,236.8,66,236.8,66.7z"/>
					<path d="M240.8,68.7v-3.3h-0.5v-0.5h0.5v-0.2c0-0.5,0.1-1,0.4-1.4c0.3-0.3,0.6-0.4,0.9-0.4c0.3,0,0.5,0.1,0.6,0.1l-0.1,0.5
						c-0.1,0-0.2-0.1-0.5-0.1c-0.6,0-0.8,0.5-0.8,1.1v0.2h0.9v0.5h-0.9v3.3H240.8z"/>
					<path d="M244.8,66.1c0-0.5,0-0.9,0-1.3h0.6l0,0.7h0c0.3-0.5,0.7-0.7,1.4-0.7c0.9,0,1.6,0.8,1.6,2c0,1.4-0.9,2.1-1.8,2.1
						c-0.5,0-1-0.2-1.2-0.6h0v2.1h-0.7V66.1z M245.5,67.1c0,0.1,0,0.2,0,0.3c0.1,0.5,0.6,0.8,1.1,0.8c0.7,0,1.2-0.6,1.2-1.5
						c0-0.8-0.4-1.4-1.1-1.4c-0.5,0-0.9,0.3-1.1,0.9c0,0.1,0,0.2,0,0.3V67.1z"/>
					<path d="M249.3,63h0.7v5.7h-0.7V63z"/>
					<path d="M253.3,68.7l-0.1-0.5h0c-0.2,0.3-0.6,0.6-1.2,0.6c-0.8,0-1.2-0.6-1.2-1.1c0-0.9,0.8-1.5,2.3-1.4v-0.1
						c0-0.3-0.1-0.9-0.9-0.9c-0.4,0-0.7,0.1-1,0.3l-0.2-0.5c0.3-0.2,0.8-0.3,1.3-0.3c1.2,0,1.5,0.8,1.5,1.6v1.4c0,0.3,0,0.7,0.1,0.9
						H253.3z M253.2,66.7c-0.8,0-1.6,0.1-1.6,0.9c0,0.5,0.3,0.7,0.7,0.7c0.5,0,0.8-0.3,0.9-0.6c0-0.1,0-0.2,0-0.2V66.7z"/>
					<path d="M255.1,65.8c0-0.4,0-0.7,0-1h0.6l0,0.6h0c0.2-0.4,0.6-0.7,1.3-0.7c0.5,0,1.4,0.3,1.4,1.6v2.3h-0.7v-2.2
						c0-0.6-0.2-1.1-0.9-1.1c-0.5,0-0.8,0.3-0.9,0.7c0,0.1,0,0.2,0,0.3v2.3h-0.7V65.8z"/>
					<path d="M260.3,63.7v1.1h1v0.5h-1v2.1c0,0.5,0.1,0.8,0.5,0.8c0.2,0,0.3,0,0.4-0.1l0,0.5c-0.1,0.1-0.4,0.1-0.6,0.1
						c-0.3,0-0.6-0.1-0.8-0.3c-0.2-0.2-0.3-0.6-0.3-1v-2.1h-0.6v-0.5h0.6v-0.9L260.3,63.7z"/>
					<path d="M266,68.7l-0.1-0.5h0c-0.2,0.3-0.6,0.6-1.2,0.6c-0.8,0-1.2-0.6-1.2-1.1c0-0.9,0.8-1.5,2.3-1.4v-0.1
						c0-0.3-0.1-0.9-0.9-0.9c-0.4,0-0.7,0.1-1,0.3l-0.2-0.5c0.3-0.2,0.8-0.3,1.3-0.3c1.2,0,1.5,0.8,1.5,1.6v1.4c0,0.3,0,0.7,0.1,0.9
						H266z M265.9,66.7c-0.8,0-1.6,0.1-1.6,0.9c0,0.5,0.3,0.7,0.7,0.7c0.5,0,0.8-0.3,0.9-0.6c0-0.1,0-0.2,0-0.2V66.7z"/>
					<path d="M267.7,66c0-0.5,0-0.8,0-1.2h0.6l0,0.8h0c0.2-0.5,0.6-0.8,1.1-0.8c0.1,0,0.1,0,0.2,0v0.7c-0.1,0-0.1,0-0.2,0
						c-0.5,0-0.8,0.4-0.9,0.9c0,0.1,0,0.2,0,0.3v2.1h-0.7V66z"/>
					<path d="M270.7,66.9c0,1,0.6,1.3,1.3,1.3c0.5,0,0.8-0.1,1.1-0.2l0.1,0.5c-0.2,0.1-0.7,0.2-1.3,0.2c-1.2,0-1.9-0.8-1.9-2
						c0-1.2,0.7-2.1,1.8-2.1c1.3,0,1.6,1.1,1.6,1.8c0,0.1,0,0.3,0,0.3H270.7z M272.8,66.3c0-0.4-0.2-1.1-1-1.1c-0.7,0-1,0.6-1.1,1.1
						H272.8z"/>
					<path d="M276.5,68.7l-0.1-0.5h0c-0.2,0.3-0.6,0.6-1.2,0.6c-0.8,0-1.2-0.6-1.2-1.1c0-0.9,0.8-1.5,2.3-1.4v-0.1
						c0-0.3-0.1-0.9-0.9-0.9c-0.4,0-0.7,0.1-1,0.3l-0.2-0.5c0.3-0.2,0.8-0.3,1.3-0.3c1.2,0,1.5,0.8,1.5,1.6v1.4c0,0.3,0,0.7,0.1,0.9
						H276.5z M276.4,66.7c-0.8,0-1.6,0.1-1.6,0.9c0,0.5,0.3,0.7,0.7,0.7c0.5,0,0.8-0.3,0.9-0.6c0-0.1,0-0.2,0-0.2V66.7z"/>
				</g>
			</g>
			<g>
				<g>
					<path class="st19" d="M198.2,217.8c0.3-0.1,0.6-0.1,1-0.1c0.6,0,0.9,0.1,1.2,0.3c0.2,0.2,0.3,0.5,0.3,0.8c0,0.5-0.3,0.9-0.8,1
						v0c0.3,0.1,0.5,0.4,0.6,0.8c0.1,0.6,0.2,1,0.3,1.1h-0.5c-0.1-0.1-0.2-0.5-0.3-1c-0.1-0.6-0.3-0.8-0.8-0.8h-0.5v1.8h-0.5V217.8z
						 M198.7,219.7h0.5c0.6,0,0.9-0.3,0.9-0.8c0-0.5-0.4-0.8-0.9-0.8c-0.3,0-0.4,0-0.5,0V219.7z"/>
					<path class="st19" d="M203,221.8l0-0.4h0c-0.2,0.2-0.5,0.4-0.9,0.4c-0.6,0-0.9-0.4-0.9-0.8c0-0.7,0.6-1.1,1.7-1.1v-0.1
						c0-0.2-0.1-0.7-0.7-0.7c-0.3,0-0.6,0.1-0.8,0.2l-0.1-0.4c0.2-0.2,0.6-0.3,1-0.3c0.9,0,1.1,0.6,1.1,1.2v1.1c0,0.2,0,0.5,0,0.7
						H203z M202.9,220.3c-0.6,0-1.2,0.1-1.2,0.7c0,0.3,0.2,0.5,0.5,0.5c0.4,0,0.6-0.2,0.7-0.5c0-0.1,0-0.1,0-0.2V220.3z"/>
					<path class="st19" d="M204.3,219.7c0-0.3,0-0.5,0-0.8h0.5l0,0.5h0c0.1-0.3,0.5-0.5,1-0.5c0.4,0,1,0.2,1,1.2v1.7h-0.5v-1.7
						c0-0.5-0.2-0.9-0.7-0.9c-0.3,0-0.6,0.2-0.7,0.5c0,0.1,0,0.2,0,0.2v1.7h-0.5V219.7z"/>
					<path class="st19" d="M208.1,220.3L208.1,220.3c0.1-0.1,0.2-0.2,0.3-0.3l0.9-1h0.6l-1.1,1.2l1.3,1.7h-0.6l-1-1.4l-0.3,0.3v1.1
						h-0.5v-4.3h0.5V220.3z"/>
					<path class="st19" d="M212.8,217.7c-0.4,0.6-0.8,1.4-0.8,2.5c0,1.1,0.3,1.8,0.8,2.4h-0.4c-0.4-0.5-0.8-1.3-0.8-2.4
						c0-1.2,0.4-2,0.8-2.5H212.8z"/>
					<path class="st19" d="M213.3,221.3c0.2,0.1,0.4,0.2,0.7,0.2c0.4,0,0.6-0.2,0.6-0.4c0-0.3-0.2-0.4-0.5-0.5
						c-0.5-0.2-0.8-0.5-0.8-0.8c0-0.5,0.4-0.9,1-0.9c0.3,0,0.5,0.1,0.7,0.2l-0.1,0.4c-0.1-0.1-0.3-0.2-0.6-0.2
						c-0.3,0-0.5,0.2-0.5,0.4c0,0.2,0.2,0.3,0.6,0.5c0.5,0.2,0.8,0.4,0.8,0.9c0,0.5-0.4,0.9-1.1,0.9c-0.3,0-0.6-0.1-0.8-0.2
						L213.3,221.3z"/>
					<path class="st19" d="M216.4,218.1v0.8h0.8v0.4h-0.8v1.6c0,0.4,0.1,0.6,0.4,0.6c0.1,0,0.2,0,0.3,0l0,0.4
						c-0.1,0-0.3,0.1-0.5,0.1c-0.2,0-0.4-0.1-0.6-0.2c-0.1-0.2-0.2-0.4-0.2-0.8v-1.6h-0.4v-0.4h0.4v-0.7L216.4,218.1z"/>
					<path class="st19" d="M219.4,221.8l0-0.4h0c-0.2,0.2-0.5,0.4-0.9,0.4c-0.6,0-0.9-0.4-0.9-0.8c0-0.7,0.6-1.1,1.7-1.1v-0.1
						c0-0.2-0.1-0.7-0.7-0.7c-0.3,0-0.6,0.1-0.8,0.2l-0.1-0.4c0.2-0.2,0.6-0.3,1-0.3c0.9,0,1.1,0.6,1.1,1.2v1.1c0,0.2,0,0.5,0,0.7
						H219.4z M219.3,220.3c-0.6,0-1.2,0.1-1.2,0.7c0,0.3,0.2,0.5,0.5,0.5c0.4,0,0.6-0.2,0.7-0.5c0-0.1,0-0.1,0-0.2V220.3z"/>
					<path class="st19" d="M220.7,219.8c0-0.3,0-0.6,0-0.9h0.5l0,0.6h0c0.1-0.4,0.5-0.6,0.8-0.6c0.1,0,0.1,0,0.1,0v0.5
						c-0.1,0-0.1,0-0.2,0c-0.4,0-0.6,0.3-0.7,0.7c0,0.1,0,0.2,0,0.2v1.5h-0.5V219.8z"/>
					<path class="st19" d="M223.3,218.1v0.8h0.8v0.4h-0.8v1.6c0,0.4,0.1,0.6,0.4,0.6c0.1,0,0.2,0,0.3,0l0,0.4
						c-0.1,0-0.3,0.1-0.5,0.1c-0.2,0-0.4-0.1-0.6-0.2c-0.1-0.2-0.2-0.4-0.2-0.8v-1.6h-0.4v-0.4h0.4v-0.7L223.3,218.1z"/>
					<path class="st19" d="M225.2,218.1c0,0.2-0.1,0.3-0.3,0.3c-0.2,0-0.3-0.1-0.3-0.3c0-0.2,0.1-0.3,0.3-0.3
						C225.1,217.8,225.2,217.9,225.2,218.1z M224.6,221.8v-2.9h0.5v2.9H224.6z"/>
					<path class="st19" d="M226,219.7c0-0.3,0-0.5,0-0.8h0.5l0,0.5h0c0.1-0.3,0.5-0.5,1-0.5c0.4,0,1,0.2,1,1.2v1.7H228v-1.7
						c0-0.5-0.2-0.9-0.7-0.9c-0.3,0-0.6,0.2-0.7,0.5c0,0.1,0,0.2,0,0.2v1.7H226V219.7z"/>
					<path class="st19" d="M231.8,218.9c0,0.2,0,0.4,0,0.8v1.7c0,0.7-0.1,1.1-0.4,1.3c-0.3,0.3-0.7,0.3-1.1,0.3
						c-0.4,0-0.7-0.1-1-0.2l0.1-0.4c0.2,0.1,0.5,0.2,0.9,0.2c0.5,0,0.9-0.3,0.9-1v-0.3h0c-0.2,0.3-0.5,0.5-0.9,0.5
						c-0.7,0-1.2-0.6-1.2-1.4c0-1,0.6-1.5,1.3-1.5c0.5,0,0.8,0.3,0.9,0.5h0l0-0.4H231.8z M231.3,220.1c0-0.1,0-0.2,0-0.2
						c-0.1-0.3-0.4-0.6-0.7-0.6c-0.5,0-0.9,0.4-0.9,1.1c0,0.6,0.3,1,0.9,1c0.3,0,0.6-0.2,0.7-0.5c0-0.1,0-0.2,0-0.3V220.1z"/>
					<path class="st19" d="M234,221.8v-2.5h-0.4v-0.4h0.4v-0.1c0-0.4,0.1-0.8,0.3-1c0.2-0.2,0.5-0.3,0.7-0.3c0.2,0,0.3,0,0.5,0.1
						l-0.1,0.4c-0.1,0-0.2-0.1-0.3-0.1c-0.4,0-0.6,0.4-0.6,0.8v0.2h0.7v0.4h-0.7v2.5H234z"/>
					<path class="st19" d="M235.7,219.8c0-0.3,0-0.6,0-0.9h0.5l0,0.6h0c0.1-0.4,0.5-0.6,0.8-0.6c0.1,0,0.1,0,0.1,0v0.5
						c-0.1,0-0.1,0-0.2,0c-0.4,0-0.6,0.3-0.7,0.7c0,0.1,0,0.2,0,0.2v1.5h-0.5V219.8z"/>
					<path class="st19" d="M240.3,220.4c0,1.1-0.7,1.5-1.4,1.5c-0.8,0-1.4-0.6-1.4-1.5c0-1,0.6-1.5,1.4-1.5
						C239.7,218.9,240.3,219.5,240.3,220.4z M238,220.4c0,0.6,0.4,1.1,0.9,1.1c0.5,0,0.9-0.5,0.9-1.1c0-0.5-0.2-1.1-0.9-1.1
						C238.3,219.3,238,219.8,238,220.4z"/>
					<path class="st19" d="M241,219.7c0-0.3,0-0.5,0-0.8h0.5l0,0.5h0c0.2-0.3,0.4-0.5,0.9-0.5c0.4,0,0.7,0.2,0.8,0.6h0
						c0.1-0.2,0.2-0.3,0.3-0.4c0.2-0.1,0.4-0.2,0.6-0.2c0.4,0,1,0.2,1,1.3v1.7h-0.5v-1.6c0-0.6-0.2-0.9-0.6-0.9
						c-0.3,0-0.5,0.2-0.6,0.5c0,0.1,0,0.2,0,0.3v1.8h-0.5v-1.7c0-0.5-0.2-0.8-0.6-0.8c-0.3,0-0.6,0.3-0.7,0.5c0,0.1,0,0.2,0,0.3v1.7
						H241V219.7z"/>
					<path class="st19" d="M247.3,219.7c0-0.3,0-0.5,0-0.8h0.5l0,0.5h0c0.2-0.3,0.4-0.5,0.9-0.5c0.4,0,0.7,0.2,0.8,0.6h0
						c0.1-0.2,0.2-0.3,0.3-0.4c0.2-0.1,0.4-0.2,0.6-0.2c0.4,0,1,0.2,1,1.3v1.7h-0.5v-1.6c0-0.6-0.2-0.9-0.6-0.9
						c-0.3,0-0.5,0.2-0.6,0.5c0,0.1,0,0.2,0,0.3v1.8h-0.5v-1.7c0-0.5-0.2-0.8-0.6-0.8c-0.3,0-0.6,0.3-0.7,0.5c0,0.1,0,0.2,0,0.3v1.7
						h-0.5V219.7z"/>
					<path class="st19" d="M254.9,220.4c0,1.1-0.7,1.5-1.4,1.5c-0.8,0-1.4-0.6-1.4-1.5c0-1,0.6-1.5,1.4-1.5
						C254.3,218.9,254.9,219.5,254.9,220.4z M252.6,220.4c0,0.6,0.4,1.1,0.9,1.1c0.5,0,0.9-0.5,0.9-1.1c0-0.5-0.2-1.1-0.9-1.1
						C252.9,219.3,252.6,219.8,252.6,220.4z"/>
					<path class="st19" d="M255.5,221.3c0.2,0.1,0.4,0.2,0.7,0.2c0.4,0,0.6-0.2,0.6-0.4c0-0.3-0.2-0.4-0.5-0.5
						c-0.5-0.2-0.8-0.5-0.8-0.8c0-0.5,0.4-0.9,1-0.9c0.3,0,0.5,0.1,0.7,0.2l-0.1,0.4c-0.1-0.1-0.3-0.2-0.6-0.2
						c-0.3,0-0.5,0.2-0.5,0.4c0,0.2,0.2,0.3,0.6,0.5c0.5,0.2,0.8,0.4,0.8,0.9c0,0.5-0.4,0.9-1.1,0.9c-0.3,0-0.6-0.1-0.8-0.2
						L255.5,221.3z"/>
					<path class="st19" d="M258.6,218.1v0.8h0.8v0.4h-0.8v1.6c0,0.4,0.1,0.6,0.4,0.6c0.1,0,0.2,0,0.3,0l0,0.4
						c-0.1,0-0.3,0.1-0.5,0.1c-0.2,0-0.4-0.1-0.6-0.2c-0.1-0.2-0.2-0.4-0.2-0.8v-1.6h-0.4v-0.4h0.4v-0.7L258.6,218.1z"/>
					<path class="st19" d="M263.3,221.7c-0.1,0.1-0.4,0.2-0.8,0.2c-0.9,0-1.4-0.6-1.4-1.5c0-0.9,0.6-1.5,1.6-1.5
						c0.3,0,0.6,0.1,0.7,0.2l-0.1,0.4c-0.1-0.1-0.3-0.1-0.6-0.1c-0.7,0-1,0.5-1,1.1c0,0.7,0.4,1.1,1,1.1c0.3,0,0.5-0.1,0.6-0.1
						L263.3,221.7z"/>
					<path class="st19" d="M266.5,220.4c0,1.1-0.7,1.5-1.4,1.5c-0.8,0-1.4-0.6-1.4-1.5c0-1,0.6-1.5,1.4-1.5
						C265.9,218.9,266.5,219.5,266.5,220.4z M264.2,220.4c0,0.6,0.4,1.1,0.9,1.1c0.5,0,0.9-0.5,0.9-1.1c0-0.5-0.2-1.1-0.9-1.1
						C264.5,219.3,264.2,219.8,264.2,220.4z"/>
					<path class="st19" d="M267.2,219.7c0-0.3,0-0.5,0-0.8h0.5l0,0.5h0c0.2-0.3,0.4-0.5,0.9-0.5c0.4,0,0.7,0.2,0.8,0.6h0
						c0.1-0.2,0.2-0.3,0.3-0.4c0.2-0.1,0.4-0.2,0.6-0.2c0.4,0,1,0.2,1,1.3v1.7h-0.5v-1.6c0-0.6-0.2-0.9-0.6-0.9
						c-0.3,0-0.5,0.2-0.6,0.5c0,0.1,0,0.2,0,0.3v1.8H269v-1.7c0-0.5-0.2-0.8-0.6-0.8c-0.3,0-0.6,0.3-0.7,0.5c0,0.1,0,0.2,0,0.3v1.7
						h-0.5V219.7z"/>
					<path class="st19" d="M272.2,219.7c0-0.3,0-0.5,0-0.8h0.5l0,0.5h0c0.2-0.3,0.4-0.5,0.9-0.5c0.4,0,0.7,0.2,0.8,0.6h0
						c0.1-0.2,0.2-0.3,0.3-0.4c0.2-0.1,0.4-0.2,0.6-0.2c0.4,0,1,0.2,1,1.3v1.7h-0.5v-1.6c0-0.6-0.2-0.9-0.6-0.9
						c-0.3,0-0.5,0.2-0.6,0.5c0,0.1,0,0.2,0,0.3v1.8H274v-1.7c0-0.5-0.2-0.8-0.6-0.8c-0.3,0-0.6,0.3-0.7,0.5c0,0.1,0,0.2,0,0.3v1.7
						h-0.5V219.7z"/>
					<path class="st19" d="M279.8,220.4c0,1.1-0.7,1.5-1.4,1.5c-0.8,0-1.4-0.6-1.4-1.5c0-1,0.6-1.5,1.4-1.5
						C279.2,218.9,279.8,219.5,279.8,220.4z M277.5,220.4c0,0.6,0.4,1.1,0.9,1.1c0.5,0,0.9-0.5,0.9-1.1c0-0.5-0.2-1.1-0.9-1.1
						C277.8,219.3,277.5,219.8,277.5,220.4z"/>
					<path class="st19" d="M280.5,219.7c0-0.3,0-0.5,0-0.8h0.5l0,0.5h0c0.1-0.3,0.5-0.5,1-0.5c0.4,0,1,0.2,1,1.2v1.7h-0.5v-1.7
						c0-0.5-0.2-0.9-0.7-0.9c-0.3,0-0.6,0.2-0.7,0.5c0,0.1,0,0.2,0,0.2v1.7h-0.5V219.7z"/>
					<path class="st19" d="M283.5,222.6c0.4-0.6,0.8-1.4,0.8-2.4c0-1.1-0.3-1.8-0.8-2.4h0.4c0.4,0.5,0.8,1.3,0.8,2.4
						c0,1.2-0.4,1.9-0.8,2.4H283.5z"/>
				</g>
			</g>
		</g>
	</g>
</g>
<g>
	<g>
	</g>
</g>
<g>
	<g>
	</g>
</g>
<g>
	<g>
	</g>
</g>
<g>
	<g>
		<path d="M6,37.4c0.2,0.2,0.8,0.4,1.4,0.4c1.1,0,1.5-0.7,1.5-1.3c0-0.9-0.8-1.3-1.7-1.3H6.7v-0.7h0.5c0.6,0,1.4-0.3,1.4-1.1
			c0-0.5-0.3-1-1.1-1c-0.5,0-1,0.2-1.3,0.4L6,32.3c0.3-0.3,1-0.5,1.7-0.5c1.3,0,1.9,0.8,1.9,1.6c0,0.7-0.4,1.2-1.2,1.5v0
			c0.8,0.2,1.4,0.8,1.4,1.7c0,1-0.8,1.9-2.4,1.9c-0.7,0-1.4-0.2-1.7-0.4L6,37.4z"/>
		<path d="M15.2,35.1c0,2.2-0.8,3.4-2.3,3.4c-1.3,0-2.1-1.2-2.2-3.3c0-2.2,0.9-3.4,2.3-3.4C14.5,31.8,15.2,33,15.2,35.1z M11.7,35.2
			c0,1.7,0.5,2.7,1.3,2.7c0.9,0,1.3-1,1.3-2.7c0-1.6-0.4-2.6-1.3-2.6C12.3,32.5,11.7,33.4,11.7,35.2z"/>
		<path d="M21.1,33.7c0,1.4-0.7,2.1-1.6,2.1c-0.8,0-1.5-0.7-1.5-2c0-1.3,0.7-2,1.6-2C20.5,31.8,21.1,32.5,21.1,33.7z M18.7,33.8
			c0,0.8,0.3,1.5,0.8,1.5c0.6,0,0.8-0.6,0.8-1.5c0-0.8-0.2-1.5-0.8-1.5C19,32.3,18.7,33,18.7,33.8z M19.5,38.5l3.8-6.7h0.6L20,38.5
			H19.5z M25.3,36.4c0,1.4-0.7,2.1-1.6,2.1c-0.8,0-1.5-0.7-1.5-2c0-1.3,0.7-2,1.6-2C24.7,34.5,25.3,35.2,25.3,36.4z M22.9,36.5
			c0,0.8,0.3,1.5,0.8,1.5c0.6,0,0.8-0.6,0.8-1.5c0-0.8-0.2-1.5-0.8-1.5C23.2,35,22.9,35.7,22.9,36.5z"/>
	</g>
</g>
</svg>
