<?xml version="1.0" encoding="utf-8"?>
<!-- Generator: Adobe Illustrator 28.2.0, SVG Export Plug-In . SVG Version: 6.00 Build 0)  -->
<svg version="1.1" id="Layer_1" xmlns="http://www.w3.org/2000/svg" xmlns:xlink="http://www.w3.org/1999/xlink" x="0px" y="0px"
	 viewBox="0 0 288 249.2" style="enable-background:new 0 0 288 249.2;" xml:space="preserve">
<style type="text/css">
	.st0{fill:none;}
	.st1{clip-path:url(#SVGID_00000093867712758409012080000003174906668127428760_);}
	.st2{fill:none;stroke:#BEBEBE;stroke-width:1.07;stroke-linejoin:round;stroke-miterlimit:10;}
	.st3{fill:none;stroke:#ADD8E6;stroke-width:2.13;stroke-linejoin:round;stroke-miterlimit:10;}
	.st4{fill:none;stroke:#90EE90;stroke-width:2.13;stroke-linejoin:round;stroke-miterlimit:10;}
	.st5{fill:#ADD8E6;stroke:#ADD8E6;stroke-width:0.71;stroke-linecap:round;stroke-linejoin:round;stroke-miterlimit:10;}
	.st6{fill:#90EE90;stroke:#90EE90;stroke-width:0.71;stroke-linecap:round;stroke-linejoin:round;stroke-miterlimit:10;}
	.st7{fill:none;stroke:#0000FF;stroke-width:1.07;stroke-linecap:round;stroke-linejoin:round;stroke-miterlimit:10;}
	.st8{fill:#0000FF;}
	.st9{font-family:'ArialMT';}
	.st10{font-size:11.04px;}
	.st11{clip-path:url(#SVGID_00000095317421475593925360000015449107825415418772_);}
	.st12{fill:#4D4D4D;}
	.st13{font-size:8.8px;}
	.st14{fill:none;stroke:#6091A0;stroke-width:2.13;stroke-linejoin:round;stroke-miterlimit:10;}
	.st15{fill:none;stroke:#65AA81;stroke-width:2.13;stroke-linejoin:round;stroke-miterlimit:10;}
	.st16{fill:#414242;}
</style>
<rect y="-38.8" class="st0" width="288" height="288"/>
<g>
	<g>
		<defs>
			<rect id="SVGID_1_" x="32.2" y="-7.1" width="250.3" height="224.6"/>
		</defs>
		<clipPath id="SVGID_00000010311125812192051760000014351387979572099995_">
			<use xlink:href="#SVGID_1_"  style="overflow:visible;"/>
		</clipPath>
		<g style="clip-path:url(#SVGID_00000010311125812192051760000014351387979572099995_);">
			<line class="st2" x1="32.2" y1="216.5" x2="282.5" y2="216.5"/>
			<line class="st2" x1="32.2" y1="155.5" x2="282.5" y2="155.5"/>
			<line class="st2" x1="32.2" y1="94.5" x2="282.5" y2="94.5"/>
			<line class="st2" x1="32.2" y1="33.6" x2="282.5" y2="33.6"/>
			<polyline class="st3" points="44.5,76.3 65,137.2 85.5,137.8 106.1,140.3 126.6,155.5 147.1,161.6 167.6,167.7 188.1,176.8 
				208.6,186 229.2,192.1 249.7,198.2 270.2,204.3 			"/>
			<polyline class="st4" points="44.5,106.7 65,131.1 85.5,128.1 106.1,129.3 126.6,161.6 147.1,164.6 167.6,186 188.1,189 
				208.6,192.1 229.2,193.3 249.7,204.3 270.2,207.3 			"/>
			<circle class="st5" cx="44.5" cy="76.3" r="1.9"/>
			<circle class="st5" cx="65" cy="137.2" r="1.9"/>
			<circle class="st5" cx="85.5" cy="137.8" r="1.9"/>
			<circle class="st5" cx="106.1" cy="140.3" r="1.9"/>
			<circle class="st5" cx="126.6" cy="155.5" r="1.9"/>
			<circle class="st5" cx="147.1" cy="161.6" r="1.9"/>
			<circle class="st5" cx="167.6" cy="167.7" r="1.9"/>
			<circle class="st5" cx="188.1" cy="176.8" r="1.9"/>
			<circle class="st5" cx="208.6" cy="186" r="1.9"/>
			<circle class="st5" cx="229.2" cy="192.1" r="1.9"/>
			<circle class="st5" cx="249.7" cy="198.2" r="1.9"/>
			<circle class="st5" cx="270.2" cy="204.3" r="2"/>
			<circle class="st6" cx="44.5" cy="106.7" r="1.9"/>
			<circle class="st6" cx="65" cy="131.1" r="1.9"/>
			<circle class="st6" cx="85.5" cy="128.1" r="1.9"/>
			<circle class="st6" cx="106.1" cy="129.3" r="1.9"/>
			<circle class="st6" cx="126.6" cy="161.6" r="1.9"/>
			<circle class="st6" cx="147.1" cy="164.6" r="1.9"/>
			<circle class="st6" cx="167.6" cy="186" r="1.9"/>
			<circle class="st6" cx="188.1" cy="189" r="1.9"/>
			<circle class="st6" cx="208.6" cy="192.1" r="1.9"/>
			<circle class="st6" cx="229.2" cy="193.3" r="1.9"/>
			<circle class="st6" cx="249.7" cy="204.3" r="2"/>
			<circle class="st6" cx="270.2" cy="207.3" r="2"/>
			<path class="st7" d="M86.2,138.7"/>
			<path class="st7" d="M99.5,155.2"/>
			<path class="st7" d="M86.1,127.1"/>
			<path class="st7" d="M97.7,105.5"/>
			<text transform="matrix(1 0 0 1 41.2364 71.551)" class="st8 st9 st10">Oaks</text>
		</g>
	</g>
</g>
<g>
	<g>
		<defs>
			<rect id="SVGID_00000152954211735951152360000011970125944301346748_" y="-38.8" width="288" height="288"/>
		</defs>
		<clipPath id="SVGID_00000017511167446561832830000014775332721028218791_">
			<use xlink:href="#SVGID_00000152954211735951152360000011970125944301346748_"  style="overflow:visible;"/>
		</clipPath>
		<g style="clip-path:url(#SVGID_00000017511167446561832830000014775332721028218791_);">
			<rect x="10.4" y="212.1" class="st0" width="4.9" height="10.4"/>
			<text transform="matrix(1 0 0 1 10.376 219.6009)" class="st12 st9 st13">0</text>
			<rect x="5.5" y="151.1" class="st0" width="9.8" height="10.4"/>
			<text transform="matrix(1 0 0 1 5.4819 158.6312)" class="st12 st9 st13">10</text>
			<rect x="5.5" y="90.1" class="st0" width="9.8" height="10.4"/>
			<text transform="matrix(1 0 0 1 5.4819 97.6712)" class="st12 st9 st13">20</text>
			<rect x="5.5" y="29.2" class="st0" width="9.8" height="10.4"/>
			<text transform="matrix(1 0 0 1 5.4819 36.701)" class="st12 st9 st13">30 </text>
			<rect x="42.1" y="221.2" class="st0" width="4.9" height="10.4"/>
			<text transform="matrix(1 0 0 1 42.0527 228.7508)" class="st12 st9 st13">1</text>
			<rect x="62.6" y="221.2" class="st0" width="4.9" height="10.4"/>
			<text transform="matrix(1 0 0 1 62.5728 228.7508)" class="st12 st9 st13">2</text>
			<rect x="83.1" y="221.2" class="st0" width="4.9" height="10.4"/>
			<text transform="matrix(1 0 0 1 83.083 228.7508)" class="st12 st9 st13">3</text>
			<rect x="103.6" y="221.2" class="st0" width="4.9" height="10.4"/>
			<text transform="matrix(1 0 0 1 103.603 228.7508)" class="st12 st9 st13">4</text>
			<rect x="124.1" y="221.2" class="st0" width="4.9" height="10.4"/>
			<text transform="matrix(1 0 0 1 124.123 228.7508)" class="st12 st9 st13">5</text>
			<rect x="144.6" y="221.2" class="st0" width="4.9" height="10.4"/>
			<text transform="matrix(1 0 0 1 144.6431 228.7508)" class="st12 st9 st13">6</text>
			<rect x="165.2" y="221.2" class="st0" width="4.9" height="10.4"/>
			<text transform="matrix(1 0 0 1 165.1631 228.7508)" class="st12 st9 st13">7</text>
			<rect x="185.7" y="221.2" class="st0" width="4.9" height="10.4"/>
			<text transform="matrix(1 0 0 1 185.6831 228.7508)" class="st12 st9 st13">8</text>
			<rect x="206.2" y="221.2" class="st0" width="4.9" height="10.4"/>
			<text transform="matrix(1 0 0 1 206.2031 228.7508)" class="st12 st9 st13">9</text>
			<rect x="224.3" y="221.2" class="st0" width="9.8" height="10.4"/>
			<text transform="matrix(1 0 0 1 224.2759 228.7508)" class="st12 st9 st13">10</text>
			<rect x="245.1" y="221.2" class="st0" width="9.8" height="10.4"/>
			<text transform="matrix(1 0 0 1 245.1226 228.7508)" class="st12 st9 st13">11</text>
			<rect x="265.3" y="221.2" class="st0" width="9.8" height="10.4"/>
			<text transform="matrix(1 0 0 1 265.3159 228.7508)" class="st12 st9 st13">12</text>
		</g>
	</g>
</g>
<line class="st14" x1="206.1" y1="78.3" x2="218" y2="78.3"/>
<line class="st15" x1="206.6" y1="68.1" x2="218.4" y2="68.1"/>
<g>
	<g>
		<path d="M222.4,70.2c0.3,0.2,0.8,0.3,1.2,0.3c0.7,0,1.1-0.4,1.1-0.9s-0.3-0.8-1-1.1c-0.9-0.3-1.4-0.8-1.4-1.5
			c0-0.8,0.7-1.5,1.7-1.5c0.5,0,1,0.1,1.2,0.3l-0.2,0.6c-0.2-0.1-0.5-0.3-1-0.3c-0.7,0-1,0.4-1,0.8c0,0.5,0.3,0.7,1.1,1
			c0.9,0.4,1.4,0.8,1.4,1.6c0,0.8-0.6,1.6-1.9,1.6c-0.5,0-1.1-0.2-1.4-0.4L222.4,70.2z"/>
		<path d="M226.4,65.3h0.7v2.4l0,0c0.1-0.2,0.3-0.4,0.5-0.5s0.5-0.2,0.7-0.2c0.5,0,1.3,0.3,1.3,1.7V71H229v-2.2
			c0-0.6-0.2-1.1-0.9-1.1c-0.5,0-0.8,0.3-0.9,0.7c0,0.1,0,0.2,0,0.3V71h-0.7v-5.7H226.4z"/>
		<path d="M233,71l-0.1-0.5l0,0c-0.2,0.3-0.6,0.6-1.2,0.6c-0.8,0-1.2-0.6-1.2-1.1c0-0.9,0.8-1.5,2.3-1.4v-0.1c0-0.3-0.1-0.9-0.9-0.9
			c-0.4,0-0.7,0.1-1,0.3l-0.2-0.5c0.3-0.2,0.8-0.3,1.3-0.3c1.2,0,1.5,0.8,1.5,1.6v1.4c0,0.3,0,0.7,0.1,0.9H233z M232.9,69.1
			c-0.8,0-1.6,0.1-1.6,0.9c0,0.5,0.3,0.7,0.7,0.7c0.5,0,0.8-0.3,0.9-0.6c0-0.1,0-0.2,0-0.2L232.9,69.1L232.9,69.1z"/>
		<path d="M234.7,68.4c0-0.5,0-0.8,0-1.2h0.6V68l0,0c0.2-0.5,0.6-0.8,1.1-0.8c0.1,0,0.1,0,0.2,0v0.7c-0.1,0-0.1,0-0.2,0
			c-0.5,0-0.8,0.4-0.9,0.9c0,0.1,0,0.2,0,0.3v2.1h-0.7v-2.8H234.7z"/>
		<path d="M237.7,69.2c0,1,0.6,1.3,1.3,1.3c0.5,0,0.8-0.1,1.1-0.2l0.1,0.5c-0.2,0.1-0.7,0.2-1.3,0.2c-1.2,0-1.9-0.8-1.9-2
			s0.7-2.1,1.8-2.1c1.3,0,1.6,1.1,1.6,1.8c0,0.1,0,0.3,0,0.3h-2.7V69.2z M239.8,68.7c0-0.4-0.2-1.1-1-1.1c-0.7,0-1,0.6-1.1,1.1
			H239.8z"/>
		<path d="M246.5,69.1c0,1.4-1,2.1-1.9,2.1c-1,0-1.9-0.8-1.9-2c0-1.3,0.9-2.1,1.9-2.1C245.8,67.1,246.5,67.9,246.5,69.1z
			 M243.5,69.1c0,0.8,0.5,1.5,1.2,1.5s1.2-0.6,1.2-1.5c0-0.7-0.3-1.5-1.2-1.5S243.5,68.4,243.5,69.1z"/>
		<path d="M247.5,71v-3.3H247v-0.5h0.5V67c0-0.5,0.1-1,0.4-1.4c0.3-0.3,0.6-0.4,0.9-0.4c0.3,0,0.5,0.1,0.6,0.1l-0.1,0.5
			c-0.1,0-0.2-0.1-0.5-0.1c-0.6,0-0.8,0.5-0.8,1.1V67h0.9v0.5H248v3.3h-0.5V71z"/>
		<path d="M254.2,70.9c-0.2,0.1-0.6,0.2-1.1,0.2c-1.2,0-1.9-0.8-1.9-2s0.8-2.1,2.1-2.1c0.4,0,0.8,0.1,1,0.2l-0.2,0.5
			c-0.2-0.1-0.4-0.2-0.8-0.2c-0.9,0-1.4,0.7-1.4,1.5c0,0.9,0.6,1.4,1.3,1.4c0.4,0,0.7-0.1,0.9-0.2L254.2,70.9z"/>
		<path d="M258.6,69.1c0,1.4-1,2.1-1.9,2.1c-1,0-1.9-0.8-1.9-2c0-1.3,0.9-2.1,1.9-2.1C257.8,67.1,258.6,67.9,258.6,69.1z
			 M255.5,69.1c0,0.8,0.5,1.5,1.2,1.5s1.2-0.6,1.2-1.5c0-0.7-0.3-1.5-1.2-1.5C255.8,67.6,255.5,68.4,255.5,69.1z"/>
		<path d="M262.7,70c0,0.4,0,0.8,0,1.1h-0.6v-0.6l0,0c-0.2,0.3-0.6,0.7-1.3,0.7c-0.6,0-1.3-0.3-1.3-1.7v-2.3h0.7v2.1
			c0,0.7,0.2,1.2,0.9,1.2c0.5,0,0.8-0.3,0.9-0.6c0-0.1,0.1-0.2,0.1-0.4v-2.3h0.7V70H262.7z"/>
		<path d="M263.9,68.2c0-0.4,0-0.7,0-1h0.6v0.6l0,0c0.2-0.4,0.6-0.7,1.3-0.7c0.5,0,1.4,0.3,1.4,1.6V71h-0.7v-2.2
			c0-0.6-0.2-1.1-0.9-1.1c-0.5,0-0.8,0.3-0.9,0.7c0,0.1,0,0.2,0,0.3V71H264L263.9,68.2L263.9,68.2z"/>
		<path d="M269.1,66v1.1h1v0.5h-1v2.1c0,0.5,0.1,0.8,0.5,0.8c0.2,0,0.3,0,0.4-0.1v0.5c-0.1,0.1-0.4,0.1-0.6,0.1
			c-0.3,0-0.6-0.1-0.8-0.3c-0.2-0.2-0.3-0.6-0.3-1v-2.1h-0.6v-0.4h0.6v-1L269.1,66z"/>
	</g>
</g>
<g>
	<g>
		<path d="M222.4,80.4c0.3,0.2,0.8,0.3,1.2,0.3c0.7,0,1.1-0.4,1.1-0.9s-0.3-0.8-1-1.1c-0.9-0.3-1.4-0.8-1.4-1.5
			c0-0.8,0.7-1.5,1.7-1.5c0.5,0,1,0.1,1.2,0.3l-0.2,0.6c-0.2-0.1-0.5-0.3-1-0.3c-0.7,0-1,0.4-1,0.8c0,0.5,0.3,0.7,1.1,1
			c0.9,0.4,1.4,0.8,1.4,1.6c0,0.8-0.6,1.6-1.9,1.6c-0.5,0-1.1-0.2-1.4-0.4L222.4,80.4z"/>
		<path d="M226.4,75.5h0.7v2.4l0,0c0.1-0.2,0.3-0.4,0.5-0.5s0.5-0.2,0.7-0.2c0.5,0,1.3,0.3,1.3,1.7v2.3H229V79
			c0-0.6-0.2-1.1-0.9-1.1c-0.5,0-0.8,0.3-0.9,0.7c0,0.1,0,0.2,0,0.3v2.3h-0.7v-5.7H226.4z"/>
		<path d="M233,81.2l-0.1-0.5l0,0c-0.2,0.3-0.6,0.6-1.2,0.6c-0.8,0-1.2-0.6-1.2-1.1c0-0.9,0.8-1.5,2.3-1.4v-0.1
			c0-0.3-0.1-0.9-0.9-0.9c-0.4,0-0.7,0.1-1,0.3l-0.2-0.5c0.3-0.2,0.8-0.3,1.3-0.3c1.2,0,1.5,0.8,1.5,1.6v1.4c0,0.3,0,0.7,0.1,0.9
			H233z M232.9,79.2c-0.8,0-1.6,0.1-1.6,0.9c0,0.5,0.3,0.7,0.7,0.7c0.5,0,0.8-0.3,0.9-0.6c0-0.1,0-0.2,0-0.2L232.9,79.2L232.9,79.2z
			"/>
		<path d="M234.7,78.6c0-0.5,0-0.8,0-1.2h0.6v0.8l0,0c0.2-0.5,0.6-0.8,1.1-0.8c0.1,0,0.1,0,0.2,0v0.7c-0.1,0-0.1,0-0.2,0
			c-0.5,0-0.8,0.4-0.9,0.9c0,0.1,0,0.2,0,0.3v2.1h-0.7v-2.8H234.7z"/>
		<path d="M237.7,79.4c0,1,0.6,1.3,1.3,1.3c0.5,0,0.8-0.1,1.1-0.2l0.1,0.5c-0.2,0.1-0.7,0.2-1.3,0.2c-1.2,0-1.9-0.8-1.9-2
			s0.7-2.1,1.8-2.1c1.3,0,1.6,1.1,1.6,1.8c0,0.1,0,0.3,0,0.3h-2.7V79.4z M239.8,78.9c0-0.4-0.2-1.1-1-1.1c-0.7,0-1,0.6-1.1,1.1
			H239.8z"/>
		<path d="M246.5,79.2c0,1.4-1,2.1-1.9,2.1c-1,0-1.9-0.8-1.9-2c0-1.3,0.9-2.1,1.9-2.1C245.8,77.3,246.5,78.1,246.5,79.2z
			 M243.4,79.3c0,0.8,0.5,1.5,1.2,1.5s1.2-0.6,1.2-1.5c0-0.7-0.3-1.5-1.2-1.5C243.8,77.8,243.4,78.6,243.4,79.3z"/>
		<path d="M247.5,81.2v-3.3H247v-0.5h0.5v-0.2c0-0.5,0.1-1,0.4-1.4c0.3-0.3,0.6-0.4,0.9-0.4c0.3,0,0.5,0.1,0.6,0.1l-0.1,0.5
			c-0.1,0-0.2-0.1-0.5-0.1c-0.6,0-0.8,0.5-0.8,1.1v0.2h0.9v0.5H248V81h-0.5V81.2z"/>
		<path d="M251.4,78.6c0-0.5,0-0.9,0-1.3h0.6V78l0,0c0.3-0.5,0.7-0.7,1.4-0.7c0.9,0,1.6,0.8,1.6,2c0,1.4-0.9,2.1-1.8,2.1
			c-0.5,0-1-0.2-1.2-0.6l0,0v2.1h-0.7L251.4,78.6L251.4,78.6z M252.1,79.6c0,0.1,0,0.2,0,0.3c0.1,0.5,0.6,0.8,1.1,0.8
			c0.7,0,1.2-0.6,1.2-1.5c0-0.8-0.4-1.4-1.1-1.4c-0.5,0-0.9,0.3-1.1,0.9c0,0.1,0,0.2,0,0.3L252.1,79.6L252.1,79.6z"/>
		<path d="M256,75.5h0.7v5.7H256V75.5z"/>
		<path d="M260,81.2l-0.1-0.5l0,0c-0.2,0.3-0.6,0.6-1.2,0.6c-0.8,0-1.2-0.6-1.2-1.1c0-0.9,0.8-1.5,2.3-1.4v-0.1
			c0-0.3-0.1-0.9-0.9-0.9c-0.4,0-0.7,0.1-1,0.3l-0.2-0.5c0.3-0.2,0.8-0.3,1.3-0.3c1.2,0,1.5,0.8,1.5,1.6v1.4c0,0.3,0,0.7,0.1,0.9
			H260z M259.9,79.2c-0.8,0-1.6,0.1-1.6,0.9c0,0.5,0.3,0.7,0.7,0.7c0.5,0,0.8-0.3,0.9-0.6c0-0.1,0-0.2,0-0.2V79.2z"/>
		<path d="M261.7,78.4c0-0.4,0-0.7,0-1h0.6V78l0,0c0.2-0.4,0.6-0.7,1.3-0.7c0.5,0,1.4,0.3,1.4,1.6v2.3h-0.7V79
			c0-0.6-0.2-1.1-0.9-1.1c-0.5,0-0.8,0.3-0.9,0.7c0,0.1,0,0.2,0,0.3v2.3h-0.7L261.7,78.4L261.7,78.4z"/>
		<path d="M267,76.2v1.1h1v0.5h-1v2.1c0,0.5,0.1,0.8,0.5,0.8c0.2,0,0.3,0,0.4-0.1v0.5c-0.1,0.1-0.4,0.1-0.6,0.1
			c-0.3,0-0.6-0.1-0.8-0.3c-0.2-0.2-0.3-0.6-0.3-1v-2.1h-0.6v-0.5h0.6v-0.9L267,76.2z"/>
		<path d="M272.7,81.2l-0.1-0.5l0,0c-0.2,0.3-0.6,0.6-1.2,0.6c-0.8,0-1.2-0.6-1.2-1.1c0-0.9,0.8-1.5,2.3-1.4v-0.1
			c0-0.3-0.1-0.9-0.9-0.9c-0.4,0-0.7,0.1-1,0.3l-0.2-0.5c0.3-0.2,0.8-0.3,1.3-0.3c1.2,0,1.5,0.8,1.5,1.6v1.4c0,0.3,0,0.7,0.1,0.9
			H272.7z M272.5,79.2c-0.8,0-1.6,0.1-1.6,0.9c0,0.5,0.3,0.7,0.7,0.7c0.5,0,0.8-0.3,0.9-0.6c0-0.1,0-0.2,0-0.2V79.2z"/>
		<path d="M274.4,78.6c0-0.5,0-0.8,0-1.2h0.6v0.8l0,0c0.2-0.5,0.6-0.8,1.1-0.8c0.1,0,0.1,0,0.2,0v0.7c-0.1,0-0.1,0-0.2,0
			c-0.5,0-0.8,0.4-0.9,0.9c0,0.1,0,0.2,0,0.3v2.1h-0.7v-2.8H274.4z"/>
		<path d="M277.4,79.4c0,1,0.6,1.3,1.3,1.3c0.5,0,0.8-0.1,1.1-0.2l0.1,0.5c-0.2,0.1-0.7,0.2-1.3,0.2c-1.2,0-1.9-0.8-1.9-2
			s0.7-2.1,1.8-2.1c1.3,0,1.6,1.1,1.6,1.8c0,0.1,0,0.3,0,0.3h-2.7V79.4z M279.4,78.9c0-0.4-0.2-1.1-1-1.1c-0.7,0-1,0.6-1.1,1.1
			H279.4z"/>
		<path d="M283.1,81.2l-0.1-0.5l0,0c-0.2,0.3-0.6,0.6-1.2,0.6c-0.8,0-1.2-0.6-1.2-1.1c0-0.9,0.8-1.5,2.3-1.4v-0.1
			c0-0.3-0.1-0.9-0.9-0.9c-0.4,0-0.7,0.1-1,0.3l-0.2-0.5c0.3-0.2,0.8-0.3,1.3-0.3c1.2,0,1.5,0.8,1.5,1.6v1.4c0,0.3,0,0.7,0.1,0.9
			H283.1z M283,79.2c-0.8,0-1.6,0.1-1.6,0.9c0,0.5,0.3,0.7,0.7,0.7c0.5,0,0.8-0.3,0.9-0.6c0-0.1,0-0.2,0-0.2V79.2z"/>
	</g>
</g>
<rect x="16.1" y="30.3" class="st0" width="9.8" height="10.4"/>
<text transform="matrix(1 0 0 1 16.1016 36.5711)" class="st12 st9 st13">%</text>
<g>
	<g>
		<path class="st16" d="M195.1,234.2c0.3-0.1,0.6-0.1,1-0.1c0.6,0,0.9,0.1,1.2,0.3c0.2,0.2,0.3,0.5,0.3,0.8c0,0.5-0.3,0.9-0.8,1l0,0
			c0.3,0.1,0.5,0.4,0.6,0.8c0.1,0.6,0.2,1,0.3,1.1h-0.5c-0.1-0.1-0.2-0.5-0.3-1c-0.1-0.6-0.3-0.8-0.8-0.8h-0.5v1.8h-0.5V234.2z
			 M195.7,236.1h0.5c0.6,0,0.9-0.3,0.9-0.8s-0.4-0.8-0.9-0.8c-0.3,0-0.4,0-0.5,0V236.1z"/>
		<path class="st16" d="M199.9,238.2v-0.4l0,0c-0.2,0.2-0.5,0.4-0.9,0.4c-0.6,0-0.9-0.4-0.9-0.8c0-0.7,0.6-1.1,1.7-1.1v-0.1
			c0-0.2-0.1-0.7-0.7-0.7c-0.3,0-0.6,0.1-0.8,0.2l-0.1-0.4c0.2-0.2,0.6-0.3,1-0.3c0.9,0,1.1,0.6,1.1,1.2v1.1c0,0.2,0,0.5,0,0.7h-0.4
			V238.2z M199.9,236.7c-0.6,0-1.2,0.1-1.2,0.7c0,0.3,0.2,0.5,0.5,0.5c0.4,0,0.6-0.2,0.7-0.5c0-0.1,0-0.1,0-0.2V236.7z"/>
		<path class="st16" d="M201.2,236.1c0-0.3,0-0.5,0-0.8h0.5v0.5l0,0c0.1-0.3,0.5-0.5,1-0.5c0.4,0,1,0.2,1,1.2v1.7h-0.5v-1.7
			c0-0.5-0.2-0.9-0.7-0.9c-0.3,0-0.6,0.2-0.7,0.5c0,0.1,0,0.2,0,0.2v1.7h-0.5v-1.9H201.2z"/>
		<path class="st16" d="M205.1,236.6L205.1,236.6c0.1-0.1,0.2-0.2,0.3-0.3l0.9-1h0.6l-1.1,1.2l1.3,1.7h-0.6l-1-1.4l-0.3,0.3v1.1
			h-0.5v-4.3h0.5L205.1,236.6L205.1,236.6z"/>
		<path class="st16" d="M209.8,234c-0.4,0.6-0.8,1.4-0.8,2.5s0.3,1.8,0.8,2.4h-0.4c-0.4-0.5-0.8-1.3-0.8-2.4c0-1.2,0.4-2,0.8-2.5
			H209.8z"/>
		<path class="st16" d="M210.3,237.7c0.2,0.1,0.4,0.2,0.7,0.2c0.4,0,0.6-0.2,0.6-0.4c0-0.3-0.2-0.4-0.5-0.5
			c-0.5-0.2-0.8-0.5-0.8-0.8c0-0.5,0.4-0.9,1-0.9c0.3,0,0.5,0.1,0.7,0.2l-0.1,0.4c-0.1-0.1-0.3-0.2-0.6-0.2s-0.5,0.2-0.5,0.4
			c0,0.2,0.2,0.3,0.6,0.5c0.5,0.2,0.8,0.4,0.8,0.9s-0.4,0.9-1.1,0.9c-0.3,0-0.6-0.1-0.8-0.2L210.3,237.7z"/>
		<path class="st16" d="M213.4,234.5v0.8h0.8v0.4h-0.8v1.6c0,0.4,0.1,0.6,0.4,0.6c0.1,0,0.2,0,0.3,0v0.4c-0.1,0-0.3,0.1-0.5,0.1
			s-0.4-0.1-0.6-0.2c-0.1-0.2-0.2-0.4-0.2-0.8v-1.6h-0.4v-0.4h0.4v-0.7L213.4,234.5z"/>
		<path class="st16" d="M216.3,238.2v-0.4l0,0c-0.2,0.2-0.5,0.4-0.9,0.4c-0.6,0-0.9-0.4-0.9-0.8c0-0.7,0.6-1.1,1.7-1.1v-0.1
			c0-0.2-0.1-0.7-0.7-0.7c-0.3,0-0.6,0.1-0.8,0.2l-0.1-0.4c0.2-0.2,0.6-0.3,1-0.3c0.9,0,1.1,0.6,1.1,1.2v1.1c0,0.2,0,0.5,0,0.7h-0.4
			V238.2z M216.2,236.7c-0.6,0-1.2,0.1-1.2,0.7c0,0.3,0.2,0.5,0.5,0.5c0.4,0,0.6-0.2,0.7-0.5c0-0.1,0-0.1,0-0.2V236.7z"/>
		<path class="st16" d="M217.6,236.2c0-0.3,0-0.6,0-0.9h0.5v0.6l0,0c0.1-0.4,0.5-0.6,0.8-0.6c0.1,0,0.1,0,0.1,0v0.5
			c-0.1,0-0.1,0-0.2,0c-0.4,0-0.6,0.3-0.7,0.7c0,0.1,0,0.2,0,0.2v1.5h-0.5L217.6,236.2L217.6,236.2z"/>
		<path class="st16" d="M220.2,234.5v0.8h0.8v0.4h-0.8v1.6c0,0.4,0.1,0.6,0.4,0.6c0.1,0,0.2,0,0.3,0v0.4c-0.1,0-0.3,0.1-0.5,0.1
			s-0.4-0.1-0.6-0.2c-0.1-0.2-0.2-0.4-0.2-0.8v-1.6h-0.4v-0.4h0.4v-0.7L220.2,234.5z"/>
		<path class="st16" d="M222.1,234.5c0,0.2-0.1,0.3-0.3,0.3s-0.3-0.1-0.3-0.3c0-0.2,0.1-0.3,0.3-0.3S222.1,234.3,222.1,234.5z
			 M221.6,238.2v-2.9h0.5v2.9H221.6z"/>
		<path class="st16" d="M223,236.1c0-0.3,0-0.5,0-0.8h0.5v0.5l0,0c0.1-0.3,0.5-0.5,1-0.5c0.4,0,1,0.2,1,1.2v1.7H225v-1.7
			c0-0.5-0.2-0.9-0.7-0.9c-0.3,0-0.6,0.2-0.7,0.5c0,0.1,0,0.2,0,0.2v1.7H223V236.1z"/>
		<path class="st16" d="M228.8,235.3c0,0.2,0,0.4,0,0.8v1.7c0,0.7-0.1,1.1-0.4,1.3c-0.3,0.3-0.7,0.3-1.1,0.3c-0.4,0-0.7-0.1-1-0.2
			l0.1-0.4c0.2,0.1,0.5,0.2,0.9,0.2c0.5,0,0.9-0.3,0.9-1v-0.3l0,0c-0.2,0.3-0.5,0.5-0.9,0.5c-0.7,0-1.2-0.6-1.2-1.4
			c0-1,0.6-1.5,1.3-1.5c0.5,0,0.8,0.3,0.9,0.5l0,0v-0.4h0.5V235.3z M228.2,236.5c0-0.1,0-0.2,0-0.2c-0.1-0.3-0.4-0.6-0.7-0.6
			c-0.5,0-0.9,0.4-0.9,1.1c0,0.6,0.3,1,0.9,1c0.3,0,0.6-0.2,0.7-0.5c0-0.1,0-0.2,0-0.3V236.5z"/>
		<path class="st16" d="M231,238.2v-2.5h-0.4v-0.4h0.4v-0.1c0-0.4,0.1-0.8,0.3-1s0.5-0.3,0.7-0.3s0.3,0,0.5,0.1l-0.1,0.4
			c-0.1,0-0.2-0.1-0.3-0.1c-0.4,0-0.6,0.4-0.6,0.8v0.2h0.7v0.4h-0.7v2.5H231z"/>
		<path class="st16" d="M232.7,236.2c0-0.3,0-0.6,0-0.9h0.5v0.6l0,0c0.1-0.4,0.5-0.6,0.8-0.6c0.1,0,0.1,0,0.1,0v0.5
			c-0.1,0-0.1,0-0.2,0c-0.4,0-0.6,0.3-0.7,0.7c0,0.1,0,0.2,0,0.2v1.5h-0.5L232.7,236.2L232.7,236.2z"/>
		<path class="st16" d="M237.3,236.7c0,1.1-0.7,1.5-1.4,1.5c-0.8,0-1.4-0.6-1.4-1.5c0-1,0.6-1.5,1.4-1.5S237.3,235.9,237.3,236.7z
			 M235,236.8c0,0.6,0.4,1.1,0.9,1.1s0.9-0.5,0.9-1.1c0-0.5-0.2-1.1-0.9-1.1C235.2,235.6,235,236.2,235,236.8z"/>
		<path class="st16" d="M237.9,236.1c0-0.3,0-0.5,0-0.8h0.5v0.5l0,0c0.2-0.3,0.4-0.5,0.9-0.5c0.4,0,0.7,0.2,0.8,0.6l0,0
			c0.1-0.2,0.2-0.3,0.3-0.4c0.2-0.1,0.4-0.2,0.6-0.2c0.4,0,1,0.2,1,1.3v1.7h-0.5v-1.6c0-0.6-0.2-0.9-0.6-0.9c-0.3,0-0.5,0.2-0.6,0.5
			c0,0.1,0,0.2,0,0.3v1.8h-0.5v-1.7c0-0.5-0.2-0.8-0.6-0.8c-0.3,0-0.6,0.3-0.7,0.5c0,0.1,0,0.2,0,0.3v1.7H238L237.9,236.1
			L237.9,236.1z"/>
		<path class="st16" d="M244.2,236.1c0-0.3,0-0.5,0-0.8h0.5v0.5l0,0c0.2-0.3,0.4-0.5,0.9-0.5c0.4,0,0.7,0.2,0.8,0.6l0,0
			c0.1-0.2,0.2-0.3,0.3-0.4c0.2-0.1,0.4-0.2,0.6-0.2c0.4,0,1,0.2,1,1.3v1.7h-0.5v-1.6c0-0.6-0.2-0.9-0.6-0.9c-0.3,0-0.5,0.2-0.6,0.5
			c0,0.1,0,0.2,0,0.3v1.8H246v-1.7c0-0.5-0.2-0.8-0.6-0.8c-0.3,0-0.6,0.3-0.7,0.5c0,0.1,0,0.2,0,0.3v1.7h-0.5V236.1z"/>
		<path class="st16" d="M251.8,236.7c0,1.1-0.7,1.5-1.4,1.5c-0.8,0-1.4-0.6-1.4-1.5c0-1,0.6-1.5,1.4-1.5
			C251.3,235.2,251.8,235.9,251.8,236.7z M249.5,236.8c0,0.6,0.4,1.1,0.9,1.1s0.9-0.5,0.9-1.1c0-0.5-0.2-1.1-0.9-1.1
			C249.8,235.6,249.5,236.2,249.5,236.8z"/>
		<path class="st16" d="M252.4,237.7c0.2,0.1,0.4,0.2,0.7,0.2c0.4,0,0.6-0.2,0.6-0.4c0-0.3-0.2-0.4-0.5-0.5
			c-0.5-0.2-0.8-0.5-0.8-0.8c0-0.5,0.4-0.9,1-0.9c0.3,0,0.5,0.1,0.7,0.2l-0.1,0.4c-0.1-0.1-0.3-0.2-0.6-0.2s-0.5,0.2-0.5,0.4
			c0,0.2,0.2,0.3,0.6,0.5c0.5,0.2,0.8,0.4,0.8,0.9s-0.4,0.9-1.1,0.9c-0.3,0-0.6-0.1-0.8-0.2L252.4,237.7z"/>
		<path class="st16" d="M255.5,234.5v0.8h0.8v0.4h-0.8v1.6c0,0.4,0.1,0.6,0.4,0.6c0.1,0,0.2,0,0.3,0v0.4c-0.1,0-0.3,0.1-0.5,0.1
			s-0.4-0.1-0.6-0.2c-0.1-0.2-0.2-0.4-0.2-0.8v-1.6h-0.4v-0.4h0.4v-0.7L255.5,234.5z"/>
		<path class="st16" d="M260.2,238.1c-0.1,0.1-0.4,0.2-0.8,0.2c-0.9,0-1.4-0.6-1.4-1.5s0.6-1.5,1.6-1.5c0.3,0,0.6,0.1,0.7,0.2
			l-0.1,0.4c-0.1-0.1-0.3-0.1-0.6-0.1c-0.7,0-1,0.5-1,1.1c0,0.7,0.4,1.1,1,1.1c0.3,0,0.5-0.1,0.6-0.1L260.2,238.1z"/>
		<path class="st16" d="M263.4,236.7c0,1.1-0.7,1.5-1.4,1.5c-0.8,0-1.4-0.6-1.4-1.5c0-1,0.6-1.5,1.4-1.5
			C262.9,235.2,263.4,235.9,263.4,236.7z M261.1,236.8c0,0.6,0.4,1.1,0.9,1.1s0.9-0.5,0.9-1.1c0-0.5-0.2-1.1-0.9-1.1
			C261.4,235.6,261.1,236.2,261.1,236.8z"/>
		<path class="st16" d="M264.1,236.1c0-0.3,0-0.5,0-0.8h0.5v0.5l0,0c0.2-0.3,0.4-0.5,0.9-0.5c0.4,0,0.7,0.2,0.8,0.6l0,0
			c0.1-0.2,0.2-0.3,0.3-0.4c0.2-0.1,0.4-0.2,0.6-0.2c0.4,0,1,0.2,1,1.3v1.7h-0.5v-1.6c0-0.6-0.2-0.9-0.6-0.9c-0.3,0-0.5,0.2-0.6,0.5
			c0,0.1,0,0.2,0,0.3v1.8H266v-1.7c0-0.5-0.2-0.8-0.6-0.8c-0.3,0-0.6,0.3-0.7,0.5c0,0.1,0,0.2,0,0.3v1.7h-0.5L264.1,236.1
			L264.1,236.1z"/>
		<path class="st16" d="M269.1,236.1c0-0.3,0-0.5,0-0.8h0.5v0.5l0,0c0.2-0.3,0.4-0.5,0.9-0.5c0.4,0,0.7,0.2,0.8,0.6l0,0
			c0.1-0.2,0.2-0.3,0.3-0.4c0.2-0.1,0.4-0.2,0.6-0.2c0.4,0,1,0.2,1,1.3v1.7h-0.5v-1.6c0-0.6-0.2-0.9-0.6-0.9c-0.3,0-0.5,0.2-0.6,0.5
			c0,0.1,0,0.2,0,0.3v1.8H271v-1.7c0-0.5-0.2-0.8-0.6-0.8c-0.3,0-0.6,0.3-0.7,0.5c0,0.1,0,0.2,0,0.3v1.7h-0.5L269.1,236.1
			L269.1,236.1z"/>
		<path class="st16" d="M276.7,236.7c0,1.1-0.7,1.5-1.4,1.5c-0.8,0-1.4-0.6-1.4-1.5c0-1,0.6-1.5,1.4-1.5
			C276.2,235.2,276.7,235.9,276.7,236.7z M274.4,236.8c0,0.6,0.4,1.1,0.9,1.1s0.9-0.5,0.9-1.1c0-0.5-0.2-1.1-0.9-1.1
			C274.7,235.6,274.4,236.2,274.4,236.8z"/>
		<path class="st16" d="M277.4,236.1c0-0.3,0-0.5,0-0.8h0.5v0.5l0,0c0.1-0.3,0.5-0.5,1-0.5c0.4,0,1,0.2,1,1.2v1.7h-0.5v-1.7
			c0-0.5-0.2-0.9-0.7-0.9c-0.3,0-0.6,0.2-0.7,0.5c0,0.1,0,0.2,0,0.2v1.7h-0.5L277.4,236.1L277.4,236.1z"/>
		<path class="st16" d="M280.4,238.9c0.4-0.6,0.8-1.4,0.8-2.4c0-1.1-0.3-1.8-0.8-2.4h0.4c0.4,0.5,0.8,1.3,0.8,2.4
			c0,1.2-0.4,1.9-0.8,2.4H280.4z"/>
	</g>
</g>
</svg>
